<svg width="501" height="373" viewBox="0 0 501 373" fill="none" xmlns="http://www.w3.org/2000/svg">
<g clip-path="url(#clip0_925_17727)">
<path d="M500.5 327.4H0.5V327.65H500.5V327.4Z" fill="#06D6A0" fill-opacity="0.1"/>
<path d="M430.22 340.46H401.83V340.71H430.22V340.46Z" fill="#06D6A0" fill-opacity="0.1"/>
<path d="M394.5 340.58H369.13V340.83H394.5V340.58Z" fill="#06D6A0" fill-opacity="0.1"/>
<path d="M277.12 334.79H242.97V335.04H277.12V334.79Z" fill="#06D6A0" fill-opacity="0.1"/>
<path d="M341.52 342.54H294.06V342.79H341.52V342.54Z" fill="#06D6A0" fill-opacity="0.1"/>
<path d="M143.34 334.5H97.3896V334.75H143.34V334.5Z" fill="#06D6A0" fill-opacity="0.1"/>
<path d="M164.5 334.5H148.89V334.75H164.5V334.5Z" fill="#06D6A0" fill-opacity="0.1"/>
<path d="M103.17 339H62.96V339.25H103.17V339Z" fill="#06D6A0" fill-opacity="0.1"/>
<path d="M237.5 282.8H44.41C42.8973 282.797 41.4475 282.195 40.3788 281.124C39.3102 280.053 38.71 278.603 38.71 277.09V5.66C38.7231 4.15602 39.3292 2.71798 40.3964 1.65822C41.4637 0.59846 42.9059 0.00257639 44.41 0L237.5 0C239.014 0 240.467 0.601588 241.538 1.67242C242.608 2.74325 243.21 4.19561 243.21 5.71V277.09C243.21 278.604 242.608 280.057 241.538 281.128C240.467 282.198 239.014 282.8 237.5 282.8ZM44.41 0.2C42.9636 0.202649 41.5774 0.779067 40.5556 1.80273C39.5338 2.82639 38.96 4.21365 38.96 5.66V277.09C38.96 278.536 39.5338 279.924 40.5556 280.947C41.5774 281.971 42.9636 282.547 44.41 282.55H237.5C238.946 282.545 240.332 281.968 241.355 280.945C242.378 279.922 242.955 278.536 242.96 277.09V5.66C242.955 4.21354 242.378 2.82783 241.355 1.80502C240.332 0.78221 238.946 0.205269 237.5 0.2H44.41Z" fill="#06D6A0" fill-opacity="0.1"/>
<path d="M453.81 282.8H260.71C259.197 282.795 257.748 282.191 256.678 281.122C255.609 280.052 255.005 278.603 255 277.09V5.66C255.016 4.15511 255.624 2.71708 256.693 1.65759C257.762 0.59811 259.205 0.00254829 260.71 0L453.81 0C455.312 0.0052045 456.752 0.602249 457.817 1.66173C458.882 2.72121 459.487 4.15775 459.5 5.66V277.09C459.501 277.839 459.355 278.58 459.07 279.272C458.785 279.964 458.366 280.593 457.838 281.123C457.309 281.654 456.682 282.075 455.991 282.362C455.299 282.65 454.559 282.799 453.81 282.8ZM260.71 0.2C259.264 0.205269 257.878 0.78221 256.855 1.80502C255.832 2.82783 255.255 4.21354 255.25 5.66V277.09C255.255 278.536 255.832 279.922 256.855 280.945C257.878 281.968 259.264 282.545 260.71 282.55H453.81C455.256 282.545 456.642 281.968 457.665 280.945C458.688 279.922 459.265 278.536 459.27 277.09V5.66C459.265 4.21354 458.688 2.82783 457.665 1.80502C456.642 0.78221 455.256 0.205269 453.81 0.2H260.71Z" fill="#06D6A0" fill-opacity="0.1"/>
<path d="M328.86 24.27H71.8604V153.83H328.86V24.27Z" fill="#06D6A0" fill-opacity="0.1"/>
<path d="M332.21 24.27H75.21V153.83H332.21V24.27Z" fill="#EFEFEF"/>
<path d="M326.2 30.3398H81.2305V147.74H326.2V30.3398Z" fill="#06D6A0" fill-opacity="0.1"/>
<path d="M99.3701 147.75L165.81 30.3501H196.94L130.51 147.75H99.3701Z" fill="#06D6A0"/>
<path d="M140.96 147.75L207.4 30.3501H238.53L172.1 147.75H140.96Z" fill="#06D6A0"/>
<path d="M227.5 147.75L293.93 30.3501H306.75L240.32 147.75H227.5Z" fill="#06D6A0"/>
<path d="M246.45 30.3398H237.39V147.74H246.45V30.3398Z" fill="#06D6A0" fill-opacity="0.1"/>
<path d="M163.35 30.3398H154.29V147.74H163.35V30.3398Z" fill="#06D6A0" fill-opacity="0.1"/>
<path d="M249.63 25.8301H240.57V151.61H249.63V25.8301Z" fill="#06D6A0" fill-opacity="0.1"/>
<path d="M166.53 25.8301H157.47V151.61H166.53V25.8301Z" fill="#06D6A0" fill-opacity="0.1"/>
<path d="M326.2 30.3398H323.67V147.74H326.2V30.3398Z" fill="#06D6A0" fill-opacity="0.1"/>
<path d="M392.34 192.08C392.34 192.08 374 160.47 399.44 135.31C399.44 135.31 406.08 139.63 405.98 145.45C405.88 151.27 398.87 152.74 400.37 157.6C401.87 162.46 408.5 167.22 404.16 171.23C399.82 175.24 404.85 178.82 404.56 183.73C404.27 188.64 392.34 192.08 392.34 192.08Z" fill="#06D6A0" fill-opacity="0.1"/>
<path d="M395.22 197.25C395.22 197.25 402.65 161.47 370.57 145.61C370.57 145.61 365.64 151.81 367.57 157.3C369.5 162.79 376.62 161.98 376.72 167.06C376.82 172.14 372.04 178.75 377.43 181.19C382.82 183.63 379.16 188.61 380.99 193.19C382.82 197.77 395.22 197.25 395.22 197.25Z" fill="#06D6A0" fill-opacity="0.1"/>
<path d="M378.89 188.16C378.89 188.16 379.21 203.08 391.55 203.08C403.89 203.08 404.22 188.16 404.22 188.16H378.89Z" fill="#06D6A0" fill-opacity="0.1"/>
<path d="M293.26 191.46C293.26 191.46 293.68 203.08 309.91 203.08C326.14 203.08 326.57 191.46 326.57 191.46H293.26Z" fill="#06D6A0" fill-opacity="0.1"/>
<path d="M330.93 194.34C330.93 194.34 331.25 203.08 343.45 203.08C355.65 203.08 355.96 194.34 355.96 194.34H330.93Z" fill="#06D6A0" fill-opacity="0.1"/>
<path d="M304.69 210.33H277.37V319.9H304.69V210.33Z" fill="#06D6A0" fill-opacity="0.1"/>
<path d="M417.33 319.89H282.61V327.4H417.33V319.89Z" fill="#06D6A0" fill-opacity="0.1"/>
<path d="M422.58 210.32H304.69V319.89H422.58V210.32Z" fill="#06D6A0" fill-opacity="0.1"/>
<path d="M411.84 220.92H315.43V259.78H411.84V220.92Z" fill="#06D6A0" fill-opacity="0.1"/>
<path d="M411.84 266.86H315.43V305.72H411.84V266.86Z" fill="#06D6A0" fill-opacity="0.1"/>
<path d="M374.5 225.18H352.81C352.103 225.18 351.426 224.9 350.925 224.402C350.425 223.903 350.142 223.226 350.14 222.52C350.145 221.814 350.428 221.137 350.927 220.638C351.427 220.138 352.103 219.855 352.81 219.85H374.5C375.206 219.855 375.882 220.138 376.382 220.638C376.881 221.137 377.164 221.814 377.17 222.52C377.167 223.226 376.885 223.903 376.384 224.402C375.884 224.9 375.206 225.18 374.5 225.18Z" fill="#06D6A0" fill-opacity="0.1"/>
<path d="M374.5 271.12H352.81C352.103 271.12 351.426 270.84 350.925 270.342C350.425 269.843 350.142 269.166 350.14 268.46C350.145 267.754 350.428 267.077 350.927 266.578C351.427 266.078 352.103 265.795 352.81 265.79H374.5C375.206 265.795 375.882 266.078 376.382 266.578C376.881 267.077 377.164 267.754 377.17 268.46C377.167 269.166 376.885 269.843 376.384 270.342C375.884 270.84 375.206 271.12 374.5 271.12Z" fill="#06D6A0" fill-opacity="0.1"/>
<path d="M426.21 203.08H304.68V210.33H426.21V203.08Z" fill="#06D6A0" fill-opacity="0.1"/>
<path d="M304.68 203.07H273.54V210.32H304.68V203.07Z" fill="#06D6A0" fill-opacity="0.1"/>
<path d="M420.12 42.5098H360.94V110.69H420.12V42.5098Z" fill="#06D6A0" fill-opacity="0.1"/>
<path d="M426.84 42.5098H362.71V110.69H426.84V42.5098Z" fill="#06D6A0" fill-opacity="0.1"/>
<path d="M421.47 47.8799H368.08V105.31H421.47V47.8799Z" fill="#06D6A0"/>
<path d="M403.82 61.7998H385.73C383.128 61.7998 381.02 63.9085 381.02 66.5098V86.6798C381.02 89.2811 383.128 91.3898 385.73 91.3898H403.82C406.421 91.3898 408.53 89.2811 408.53 86.6798V66.5098C408.53 63.9085 406.421 61.7998 403.82 61.7998Z" fill="#06D6A0" fill-opacity="0.1"/>
<path d="M269.59 263.92H262.72V327.4H269.59V263.92Z" fill="#06D6A0" fill-opacity="0.1"/>
<path opacity="0.5" d="M269.59 263.92H266.15V327.4H269.59V263.92Z" fill="#06D6A0" fill-opacity="0.1"/>
<path d="M239.5 281.7H234.78C235.298 281.262 235.713 280.717 235.998 280.102C236.283 279.487 236.431 278.818 236.43 278.14H180.5C180.501 278.819 180.65 279.489 180.937 280.104C181.224 280.718 181.641 281.263 182.16 281.7H177.5C175.829 281.7 174.227 282.364 173.045 283.545C171.864 284.727 171.2 286.329 171.2 288V306.37C171.2 308.041 171.864 309.643 173.045 310.825C174.227 312.006 175.829 312.67 177.5 312.67H239.5C241.171 312.67 242.773 312.006 243.955 310.825C245.136 309.643 245.8 308.041 245.8 306.37V288C245.8 286.329 245.136 284.727 243.955 283.545C242.773 282.364 241.171 281.7 239.5 281.7Z" fill="#06D6A0" fill-opacity="0.1"/>
<path d="M187.77 295.27H150.16C147.818 295.27 145.92 297.168 145.92 299.51V308.43C145.92 310.772 147.818 312.67 150.16 312.67H187.77C190.112 312.67 192.01 310.772 192.01 308.43V299.51C192.01 297.168 190.112 295.27 187.77 295.27Z" fill="#06D6A0" fill-opacity="0.1"/>
<path d="M190.59 291.43H147.34C146.556 291.43 145.92 292.066 145.92 292.85V294.47C145.92 295.254 146.556 295.89 147.34 295.89H190.59C191.374 295.89 192.01 295.254 192.01 294.47V292.85C192.01 292.066 191.374 291.43 190.59 291.43Z" fill="#06D6A0" fill-opacity="0.1"/>
<path d="M196.26 235.57C196.26 235.57 196.91 256.57 221.51 256.57C246.11 256.57 246.76 235.57 246.76 235.57H196.26Z" fill="#06D6A0" fill-opacity="0.1"/>
<path d="M108.29 256.58H77.6104V263.92H108.29V256.58Z" fill="#06D6A0" fill-opacity="0.1"/>
<path d="M293.4 256.58H108.3V263.92H293.4V256.58Z" fill="#06D6A0" fill-opacity="0.1"/>
<path d="M108.29 312.67H77.6104V320.01H108.29V312.67Z" fill="#06D6A0" fill-opacity="0.1"/>
<path d="M84.4901 263.92H77.6201V327.4H84.4901V263.92Z" fill="#06D6A0" fill-opacity="0.1"/>
<path opacity="0.5" d="M84.4898 263.92H81.0498V327.4H84.4898V263.92Z" fill="#06D6A0" fill-opacity="0.1"/>
<path d="M111.73 263.92H104.86V327.4H111.73V263.92Z" fill="#06D6A0" fill-opacity="0.1"/>
<path d="M108.3 263.92H104.86V327.4H108.3V263.92Z" fill="#06D6A0" fill-opacity="0.1"/>
<path d="M293.39 263.92H286.52V327.4H293.39V263.92Z" fill="#06D6A0" fill-opacity="0.1"/>
<path d="M289.96 263.92H286.52V327.4H289.96V263.92Z" fill="#06D6A0" fill-opacity="0.1"/>
<path d="M293.4 312.67H108.3V320.01H293.4V312.67Z" fill="#06D6A0" fill-opacity="0.1"/>
<path d="M157.66 252.25H120.34V256.58H157.66V252.25Z" fill="#06D6A0" fill-opacity="0.1"/>
<path d="M171.03 252.24H157.66V256.57H171.03V252.24Z" fill="#06D6A0" fill-opacity="0.1"/>
<path d="M250.5 372.56C357.583 372.56 444.39 367.492 444.39 361.24C444.39 354.988 357.583 349.92 250.5 349.92C143.418 349.92 56.6104 354.988 56.6104 361.24C56.6104 367.492 143.418 372.56 250.5 372.56Z" fill="#F5F5F5"/>
<path d="M218.37 95.6997C218.44 107.55 209.95 107.43 210.12 103.7C210.29 99.9697 208.19 91.2097 210.12 92.0597C212.05 92.9097 218.34 90.4597 218.37 95.6997Z" fill="#FFD166"/>
<path d="M213.03 117.16C214.2 117.07 216.55 118.16 216.76 121.25C216.815 122.148 217.077 123.021 217.527 123.8C217.976 124.579 218.6 125.243 219.35 125.74C219.35 125.74 215.46 126.21 212.91 124.19C210.83 122.56 209.91 118.99 211 118.19C211.599 117.711 212.29 117.36 213.03 117.16Z" fill="#FFD166"/>
<path d="M211.5 108.74C213.5 110.51 215.33 115.19 210.82 117.41C206.31 119.63 199.22 114.41 199.22 114.41L207.01 110.8L211.5 108.74Z" fill="#FFD166"/>
<path d="M213.72 117.59C213.61 116.942 213.429 116.308 213.18 115.7C213.161 115.649 213.132 115.603 213.095 115.563C213.058 115.524 213.014 115.492 212.965 115.47C212.916 115.447 212.862 115.435 212.808 115.433C212.754 115.432 212.7 115.441 212.65 115.46H212.57L209.8 117.31C209.755 117.34 209.717 117.379 209.687 117.424C209.657 117.469 209.637 117.519 209.627 117.572C209.616 117.625 209.617 117.679 209.628 117.732C209.638 117.785 209.66 117.835 209.69 117.88C209.721 117.921 209.758 117.958 209.8 117.99C210.2 118.28 210.629 118.528 211.08 118.73C211.73 118.99 213.08 118.25 213.54 117.93C213.597 117.894 213.644 117.844 213.676 117.784C213.708 117.725 213.723 117.657 213.72 117.59Z" fill="#073B4C"/>
<path opacity="0.3" d="M213.72 117.59C213.61 116.942 213.429 116.308 213.18 115.7C213.161 115.649 213.132 115.603 213.095 115.563C213.058 115.524 213.014 115.492 212.965 115.47C212.916 115.447 212.862 115.435 212.808 115.433C212.754 115.432 212.7 115.441 212.65 115.46H212.57L209.8 117.31C209.755 117.34 209.717 117.379 209.687 117.424C209.657 117.469 209.637 117.519 209.627 117.572C209.616 117.625 209.617 117.679 209.628 117.732C209.638 117.785 209.66 117.835 209.69 117.88C209.721 117.921 209.758 117.958 209.8 117.99C210.2 118.28 210.629 118.528 211.08 118.73C211.73 118.99 213.08 118.25 213.54 117.93C213.597 117.894 213.644 117.844 213.676 117.784C213.708 117.725 213.723 117.657 213.72 117.59Z" fill="black"/>
<path d="M183.91 112.68C182.8 112.31 180.26 112.81 179.32 115.77C179.053 116.628 178.59 117.413 177.969 118.064C177.348 118.714 176.585 119.212 175.74 119.52C175.74 119.52 179.41 120.9 182.37 119.52C184.77 118.43 186.47 115.17 185.64 114.13C185.17 113.532 184.581 113.038 183.91 112.68Z" fill="#FFD166"/>
<path d="M194.93 92.3301C190.88 93.4301 185.43 98.2301 187.85 104.12C185.46 105.75 182.4 110.44 185.98 113.44C189.83 116.67 199.3 112.14 199.3 112.14L199.37 110.6L200.5 99.1401L194.93 92.3301Z" fill="#FFD166"/>
<path d="M183.14 112.94C183.407 112.333 183.742 111.759 184.14 111.23C184.211 111.144 184.312 111.089 184.423 111.078C184.533 111.067 184.644 111.1 184.73 111.17L184.79 111.23L187.03 113.68C187.068 113.718 187.099 113.763 187.119 113.813C187.14 113.863 187.15 113.916 187.15 113.97C187.15 114.024 187.14 114.077 187.119 114.127C187.099 114.176 187.068 114.222 187.03 114.26C186.999 114.298 186.957 114.325 186.91 114.34C186.456 114.526 185.984 114.664 185.5 114.75C184.8 114.85 183.72 113.82 183.3 113.4C183.23 113.348 183.177 113.277 183.149 113.195C183.12 113.112 183.117 113.024 183.14 112.94Z" fill="#073B4C"/>
<path opacity="0.3" d="M183.14 112.94C183.407 112.333 183.742 111.759 184.14 111.23C184.211 111.144 184.312 111.089 184.423 111.078C184.533 111.067 184.644 111.1 184.73 111.17L184.79 111.23L187.03 113.68C187.068 113.718 187.099 113.763 187.119 113.813C187.14 113.863 187.15 113.916 187.15 113.97C187.15 114.024 187.14 114.077 187.119 114.127C187.099 114.176 187.068 114.222 187.03 114.26C186.999 114.298 186.957 114.325 186.91 114.34C186.456 114.526 185.984 114.664 185.5 114.75C184.8 114.85 183.72 113.82 183.3 113.4C183.23 113.348 183.177 113.277 183.149 113.195C183.12 113.112 183.117 113.024 183.14 112.94Z" fill="black"/>
<path d="M219.58 134.07C221.49 135.55 223.58 137.13 225.68 138.57C227.78 140.01 229.89 141.46 232.06 142.79C234.23 144.12 236.43 145.36 238.65 146.54L240.32 147.39L242.02 148.18C242.58 148.45 243.15 148.69 243.73 148.91L244.58 149.26C244.87 149.37 245.18 149.51 245.36 149.56C246.406 149.879 247.476 150.109 248.56 150.25C249.74 150.42 250.98 150.54 252.24 150.63C254.75 150.79 257.33 150.86 259.92 150.87C262.51 150.88 265.13 150.87 267.74 150.79L275.59 150.57L276.08 154.5C270.827 155.558 265.524 156.342 260.19 156.85C257.5 157.09 254.8 157.27 252.04 157.29C250.66 157.29 249.26 157.29 247.82 157.16C246.271 157.07 244.736 156.819 243.24 156.41C242.78 156.29 242.49 156.17 242.15 156.06L241.15 155.71C240.48 155.49 239.82 155.25 239.15 154.98L237.21 154.2L235.31 153.36C232.798 152.229 230.351 150.961 227.98 149.56C225.62 148.17 223.3 146.73 221.06 145.19C218.773 143.641 216.57 141.972 214.46 140.19L219.58 134.07Z" fill="#FD897B"/>
<path d="M209.2 129.58C211.69 127.64 221.94 133.99 225.06 136.64L222.79 150.37C222.79 150.37 208.04 144.19 207.15 139.97C206.23 135.56 207.32 131.06 209.2 129.58Z" fill="#FFD166"/>
<path d="M274.5 150.91L280.68 146.12L281.17 153.53C281.17 153.53 276.91 156.17 274.1 154.53L274.5 150.91Z" fill="#FD897B"/>
<path d="M286.19 145.39L289.35 148.91L281.13 153.53L280.64 146.12L286.19 145.39Z" fill="#FD897B"/>
<path d="M168.78 351.47L176.57 352.05L179.41 334.12L171.63 333.54L168.78 351.47Z" fill="#FD897B"/>
<path d="M113.67 326.41L120.28 330.57L132.05 316.61L125.44 312.44L113.67 326.41Z" fill="#FD897B"/>
<path d="M122.37 329.08L116.18 322.85C116.073 322.743 115.932 322.679 115.781 322.668C115.631 322.657 115.481 322.7 115.36 322.79L109.73 327C109.47 327.21 109.305 327.514 109.269 327.846C109.233 328.177 109.331 328.51 109.54 328.77L109.63 328.87C111.82 331 112.99 331.92 115.71 334.66C117.38 336.35 119.65 338.98 121.96 341.31C124.27 343.64 126.69 341.47 125.96 340.31C122.58 335.04 123.19 333.07 122.96 330.39C122.932 329.895 122.722 329.428 122.37 329.08Z" fill="#FFD166"/>
<path d="M177.09 350.93H168.31C168.156 350.929 168.006 350.983 167.888 351.082C167.769 351.181 167.688 351.318 167.66 351.47L166.27 358.41C166.214 358.714 166.281 359.029 166.455 359.285C166.629 359.542 166.896 359.719 167.2 359.78C167.293 359.79 167.387 359.79 167.48 359.78C170.54 359.78 172.03 359.55 175.89 359.55C178.26 359.55 184.89 359.79 188.2 359.79C191.51 359.79 191.84 356.55 190.49 356.26C184.49 354.94 180.36 353.13 178.39 351.39C178.028 351.082 177.565 350.919 177.09 350.93Z" fill="#FFD166"/>
<path d="M179.41 334.12L177.83 344.08L170.15 342.79L171.62 333.55L179.41 334.12Z" fill="#E77064"/>
<path d="M125.44 312.45L132.05 316.61L127.18 322.39L120.42 318.4L125.44 312.45Z" fill="#E77064"/>
<path d="M174.7 171.13L205.84 177.2C221.93 133.63 218.43 132.2 218.43 132.2C216.168 130.956 213.83 129.853 211.43 128.9L211.01 128.74C209.01 128.01 208.61 127.9 205.95 127.12C201.37 126.03 197.1 125.12 191.81 124.37L190.81 124.23C189.81 124.11 188.9 124.01 187.98 123.92C187.36 123.85 186.74 123.81 186.15 123.77L184.15 123.66C180.73 123.49 178.28 123.54 178.28 123.54C179.23 150.75 177.69 158.56 174.7 171.13Z" fill="#FFD166"/>
<path d="M196.31 108.74C196.31 113.46 195.58 121.97 191.8 124.39C191.8 124.39 192.15 129.25 200.6 130.89C209.9 132.7 205.94 127.14 205.94 127.14C201.11 124.94 201.94 121.2 203.54 117.84L196.31 108.74Z" fill="#FD897B"/>
<path d="M199.26 112.45L203.54 117.84C203.168 118.62 202.861 119.43 202.62 120.26C200.73 119.6 198.48 116.96 198.62 114.89C198.681 114.044 198.898 113.217 199.26 112.45Z" fill="#E77064"/>
<path d="M195.86 97.9C194.86 105.59 194.25 108.82 197.33 113.47C201.96 120.47 211.62 120.02 214.91 112.79C217.91 106.28 219.03 94.79 212.18 90.34C211.022 89.5745 209.723 89.0449 208.36 88.7814C206.996 88.5179 205.594 88.5256 204.234 88.8042C202.873 89.0828 201.581 89.6268 200.431 90.4051C199.28 91.1834 198.295 92.1807 197.53 93.34C196.631 94.7114 196.059 96.2719 195.86 97.9Z" fill="#FD897B"/>
<path d="M220.89 85.7198C221.031 86.9393 220.939 88.1744 220.62 89.3598C220.548 88.9575 220.451 88.5601 220.33 88.1698C217.59 79.1098 205.25 81.2698 201.53 85.1698C195.53 83.4498 189.82 84.8198 190.58 92.1698C190.675 94.0635 191.356 95.8807 192.53 97.3698C191.6 99.9498 192.53 104.06 195.6 104.18C199.92 104.35 204.02 98.6298 205.67 95.4898C208.67 95.9998 212.99 96.4898 216.27 95.6898C216.82 96.0198 217.27 96.2498 217.27 96.2498C220.76 94.3798 223.42 92.5698 220.89 85.7198Z" fill="#FFD166"/>
<path d="M193.2 103.15C193.08 104.642 193.55 106.121 194.51 107.27C195.81 108.78 197.51 107.89 198.12 106.1C198.63 104.48 198.56 101.75 196.82 100.9C196.518 100.758 196.191 100.677 195.858 100.661C195.524 100.646 195.191 100.696 194.877 100.81C194.563 100.923 194.275 101.097 194.028 101.322C193.782 101.547 193.582 101.818 193.44 102.12C193.29 102.443 193.208 102.794 193.2 103.15Z" fill="#FD897B"/>
<path d="M205.37 177.2C205.37 177.2 205.49 239.02 200.43 262.3C195.17 286.52 179.7 341.62 179.7 341.62L168.5 340.17C168.5 340.17 177.27 284.51 181 260.44C185.07 234.21 182.58 172.76 182.58 172.76L205.37 177.2Z" fill="#073B4C"/>
<path opacity="0.3" d="M205.37 177.2C205.37 177.2 205.49 239.02 200.43 262.3C195.17 286.52 179.7 341.62 179.7 341.62L168.5 340.17C168.5 340.17 177.27 284.51 181 260.44C185.07 234.21 182.58 172.76 182.58 172.76L205.37 177.2Z" fill="black"/>
<path d="M181.61 342.59L166.58 340.65L167.22 335.33L184.28 337.33L181.61 342.59Z" fill="#FFD166"/>
<path d="M197.62 175.6C197.62 175.6 180.85 226.69 172.52 256.12C163.74 287.17 130.08 321.51 130.08 321.51L120.43 315.93C120.43 315.93 143.43 283.33 151.88 254.36C169.09 195.55 162.02 183.09 174.7 171.13L197.62 175.6Z" fill="#073B4C"/>
<path opacity="0.3" d="M197.62 175.6C197.62 175.6 180.85 226.69 172.52 256.12C163.74 287.17 130.08 321.51 130.08 321.51L120.43 315.93C120.43 315.93 143.43 283.33 151.88 254.36C169.09 195.55 162.02 183.09 174.7 171.13L197.62 175.6Z" fill="black"/>
<path d="M131.65 323.06L118.24 315.32L121.58 310.54L136.47 318.75L131.65 323.06Z" fill="#FFD166"/>
<path d="M206.96 102.27C206.84 102.89 207.07 103.45 207.48 103.53C207.89 103.61 208.31 103.17 208.48 102.53C208.65 101.89 208.37 101.34 207.96 101.26C207.55 101.18 207.08 101.65 206.96 102.27Z" fill="#FFD166"/>
<path d="M213.95 103.63C213.83 104.25 214.06 104.82 214.47 104.9C214.88 104.98 215.3 104.54 215.42 103.9C215.54 103.26 215.31 102.71 214.9 102.64C214.49 102.57 214.07 103 213.95 103.63Z" fill="#FFD166"/>
<path d="M214.72 102.65L216.29 102.52C216.29 102.52 215.3 103.53 214.72 102.65Z" fill="#FFD166"/>
<path d="M211.9 104.34C212.176 105.856 212.661 107.326 213.34 108.71C212.981 108.878 212.591 108.965 212.195 108.965C211.799 108.965 211.408 108.878 211.05 108.71L211.9 104.34Z" fill="#FD5652"/>
<path d="M208.43 110.71C207.594 110.573 206.804 110.236 206.127 109.727C205.449 109.219 204.905 108.554 204.54 107.79C204.53 107.768 204.524 107.745 204.524 107.721C204.523 107.697 204.527 107.673 204.535 107.651C204.543 107.629 204.556 107.608 204.572 107.591C204.589 107.573 204.608 107.559 204.63 107.55C204.675 107.533 204.725 107.534 204.77 107.552C204.814 107.571 204.85 107.606 204.87 107.65C205.219 108.352 205.729 108.963 206.358 109.432C206.987 109.901 207.717 110.215 208.49 110.35C208.514 110.353 208.537 110.362 208.557 110.374C208.578 110.387 208.595 110.403 208.609 110.423C208.623 110.443 208.633 110.465 208.639 110.488C208.644 110.512 208.644 110.536 208.64 110.56C208.63 110.607 208.603 110.648 208.564 110.676C208.526 110.704 208.478 110.716 208.43 110.71Z" fill="#FFD166"/>
<path d="M205.37 99.6097C205.273 99.6049 205.182 99.5643 205.114 99.496C205.045 99.4276 205.005 99.3363 205 99.2397C205.004 99.1377 205.047 99.0411 205.12 98.9697C205.548 98.567 206.067 98.2724 206.632 98.1107C207.198 97.9489 207.793 97.9246 208.37 98.0397C208.465 98.0677 208.545 98.1313 208.593 98.2171C208.642 98.303 208.655 98.4043 208.63 98.4997C208.618 98.5458 208.598 98.5891 208.569 98.6271C208.541 98.6651 208.505 98.6972 208.464 98.7213C208.423 98.7455 208.378 98.7613 208.331 98.7679C208.284 98.7745 208.236 98.7717 208.19 98.7597C207.732 98.6785 207.261 98.7049 206.815 98.8368C206.369 98.9687 205.96 99.2025 205.62 99.5197C205.551 99.5805 205.462 99.6127 205.37 99.6097Z" fill="#FFD166"/>
<path d="M217.83 101C217.757 101.001 217.685 100.979 217.624 100.938C217.563 100.897 217.517 100.838 217.49 100.77C217.317 100.342 217.048 99.9591 216.702 99.6521C216.357 99.3451 215.946 99.1219 215.5 99C215.452 98.9916 215.406 98.9737 215.365 98.9475C215.324 98.9213 215.289 98.8873 215.261 98.8473C215.233 98.8074 215.213 98.7623 215.203 98.7147C215.192 98.6671 215.192 98.618 215.2 98.57C215.22 98.4744 215.275 98.3898 215.355 98.334C215.435 98.2781 215.534 98.2552 215.63 98.27C216.201 98.4125 216.729 98.6892 217.171 99.0771C217.612 99.465 217.955 99.9528 218.17 100.5C218.19 100.545 218.201 100.593 218.202 100.642C218.203 100.69 218.195 100.739 218.177 100.785C218.16 100.83 218.133 100.872 218.099 100.907C218.065 100.942 218.025 100.97 217.98 100.99L217.83 101Z" fill="#FFD166"/>
<path d="M207.8 107.75C207.491 107.751 207.185 107.68 206.907 107.543C206.63 107.406 206.388 107.207 206.2 106.96C205.73 106.226 205.416 105.404 205.279 104.543C205.141 103.683 205.183 102.804 205.4 101.96C205.97 98.8 207.95 96.23 209.82 96.23C210.132 96.2344 210.438 96.3086 210.716 96.4471C210.995 96.5855 211.239 96.7847 211.43 97.03C211.901 97.7635 212.215 98.5861 212.352 99.4465C212.49 100.307 212.448 101.186 212.23 102.03C211.66 105.19 209.67 107.75 207.8 107.75ZM209.8 96.51C208.05 96.51 206.17 98.99 205.62 102.03C205.27 104.03 205.55 105.83 206.37 106.8C206.537 107.016 206.75 107.192 206.994 107.313C207.239 107.435 207.508 107.498 207.78 107.5C209.54 107.5 211.41 105.03 211.96 101.99C212.173 101.186 212.216 100.347 212.086 99.5262C211.957 98.7051 211.659 97.9197 211.21 97.22C211.048 97.0033 210.839 96.8266 210.598 96.7035C210.357 96.5804 210.091 96.5142 209.82 96.51H209.8Z" fill="#F9F9F9"/>
<path d="M215.57 108.75C215.247 108.745 214.928 108.667 214.639 108.522C214.35 108.376 214.097 108.167 213.9 107.91C213.451 107.237 213.148 106.477 213.008 105.68C212.869 104.883 212.897 104.066 213.09 103.28C213.6 100.34 215.52 97.96 217.37 97.96C217.694 97.9686 218.013 98.0493 218.301 98.1964C218.59 98.3434 218.843 98.553 219.04 98.81C219.485 99.4832 219.787 100.241 219.926 101.036C220.065 101.831 220.04 102.646 219.85 103.43C219.35 106.38 217.43 108.75 215.57 108.75ZM217.34 98.21C215.6 98.21 213.8 100.5 213.34 103.33C213.161 104.08 213.136 104.858 213.267 105.618C213.397 106.378 213.681 107.103 214.1 107.75C214.279 107.974 214.504 108.156 214.759 108.286C215.014 108.415 215.294 108.488 215.58 108.5C217.32 108.5 219.13 106.22 219.58 103.39C219.758 102.641 219.784 101.863 219.655 101.104C219.526 100.344 219.246 99.6187 218.83 98.97C218.653 98.7445 218.429 98.5599 218.173 98.4288C217.918 98.2976 217.637 98.223 217.35 98.21H217.34Z" fill="#F9F9F9"/>
<path d="M124.67 332.71C123.67 332.71 122.67 331.17 122.08 330.28C122.06 330.25 122.05 330.215 122.05 330.18C122.05 330.144 122.06 330.109 122.08 330.08C122.102 330.05 122.131 330.027 122.164 330.013C122.198 329.999 122.234 329.994 122.27 330C122.59 330.07 125.34 330.67 125.69 331.61C125.73 331.713 125.741 331.826 125.721 331.935C125.702 332.044 125.653 332.146 125.58 332.23C125.486 332.385 125.352 332.511 125.192 332.596C125.031 332.68 124.851 332.72 124.67 332.71ZM122.58 330.46C123.35 331.62 124.1 332.31 124.64 332.34C124.76 332.341 124.878 332.311 124.983 332.253C125.088 332.195 125.177 332.111 125.24 332.01C125.274 331.974 125.297 331.93 125.306 331.882C125.314 331.834 125.309 331.785 125.29 331.74C125.11 331.24 123.68 330.74 122.58 330.46Z" fill="#073B4C"/>
<path d="M123.03 330.46C122.727 330.461 122.425 330.428 122.13 330.36C122.1 330.35 122.073 330.332 122.05 330.31C122.028 330.287 122.011 330.26 122 330.23C121.98 330.172 121.98 330.108 122 330.05C122.07 329.99 123.6 328.48 124.73 328.48H124.81C124.95 328.489 125.087 328.528 125.211 328.593C125.335 328.659 125.444 328.75 125.53 328.86C125.632 328.967 125.695 329.104 125.71 329.251C125.724 329.398 125.689 329.545 125.61 329.67C125.29 330.21 124.01 330.46 123.03 330.46ZM122.58 330.07C123.52 330.18 125.04 329.91 125.35 329.46C125.4 329.39 125.44 329.28 125.29 329.09C125.238 329.016 125.169 328.956 125.089 328.915C125.009 328.873 124.92 328.851 124.83 328.85C123.971 329.011 123.184 329.438 122.58 330.07Z" fill="#073B4C"/>
<path d="M179.96 352.3C179.132 352.28 178.308 352.179 177.5 352C177.461 351.992 177.426 351.972 177.399 351.943C177.373 351.915 177.355 351.879 177.35 351.84C177.345 351.802 177.353 351.763 177.37 351.729C177.388 351.695 177.416 351.667 177.45 351.65C177.82 351.47 181.03 349.87 181.96 350.41C182.044 350.464 182.113 350.537 182.162 350.625C182.211 350.712 182.238 350.81 182.24 350.91C182.251 351.078 182.221 351.247 182.153 351.402C182.085 351.557 181.981 351.693 181.85 351.8C181.293 352.173 180.628 352.349 179.96 352.3ZM178.13 351.76C179.84 352.04 181.13 351.97 181.63 351.54C181.716 351.466 181.783 351.374 181.826 351.269C181.87 351.165 181.888 351.052 181.88 350.94C181.882 350.902 181.874 350.864 181.856 350.831C181.838 350.797 181.812 350.769 181.78 350.75C181.28 350.46 179.5 351.14 178.13 351.75V351.76Z" fill="#073B4C"/>
<path d="M177.55 352H177.44C177.41 351.981 177.387 351.954 177.373 351.922C177.359 351.89 177.354 351.855 177.36 351.82C177.36 351.68 177.84 348.5 179.58 348.5H179.73C180.23 348.55 180.37 348.8 180.4 349.01C180.54 349.89 178.6 351.59 177.62 352.01L177.55 352ZM179.55 348.84C178.42 348.84 177.92 350.68 177.75 351.48C178.75 350.89 180.08 349.56 180 349.03C180 349.03 180 348.87 179.65 348.84H179.55Z" fill="#073B4C"/>
<path d="M207.73 101.29L209.3 101.15C209.3 101.15 208.31 102.17 207.73 101.29Z" fill="#FFD166"/>
<path d="M200.86 137.54C187.86 132.61 183.8 125.23 184.11 123.68L186.11 123.8H186.5C186.999 123.813 187.496 123.856 187.99 123.93C188.91 124.01 189.86 124.11 190.82 124.24L191.82 124.38C196.593 124.96 201.318 125.879 205.96 127.13C208.08 127.75 208.78 127.95 209.96 128.37L210.96 128.75L211.38 128.91C212.42 131.15 212.19 135.73 200.86 137.54Z" fill="#FD897B"/>
<path d="M200.86 137.54C187.86 132.61 183.8 125.23 184.11 123.68L186.11 123.8H186.5C189.14 127.55 194.92 132.73 200.81 133.44C205.55 132.44 210.02 131.3 209.98 128.37L210.98 128.75L211.4 128.91C212.42 131.15 212.19 135.73 200.86 137.54Z" fill="#073B4C"/>
<path opacity="0.3" d="M200.86 137.54C187.86 132.61 183.8 125.23 184.11 123.68L186.11 123.8H186.5C189.14 127.55 194.92 132.73 200.81 133.44C205.55 132.44 210.02 131.3 209.98 128.37L210.98 128.75L211.4 128.91C212.42 131.15 212.19 135.73 200.86 137.54Z" fill="black"/>
<path d="M174.59 169.21L172.59 171.73C172.44 171.92 172.66 172.19 173.02 172.26L205.68 178.62C205.96 178.68 206.22 178.62 206.27 178.41L207.09 175.68C207.15 175.49 206.94 175.28 206.63 175.22L175.09 169.08C175.002 169.06 174.911 169.062 174.824 169.085C174.737 169.107 174.657 169.15 174.59 169.21Z" fill="#FFD166"/>
<path d="M178.14 173.56L177.3 173.4C177.13 173.4 177.02 173.26 177.05 173.15L178.15 169.61C178.15 169.5 178.35 169.45 178.51 169.48L179.36 169.64C179.53 169.64 179.64 169.79 179.61 169.89L178.51 173.44C178.471 173.499 178.413 173.543 178.346 173.565C178.279 173.587 178.206 173.585 178.14 173.56Z" fill="#073B4C"/>
<path opacity="0.3" d="M178.14 173.56L177.3 173.4C177.13 173.4 177.02 173.26 177.05 173.15L178.15 169.61C178.15 169.5 178.35 169.45 178.51 169.48L179.36 169.64C179.53 169.64 179.64 169.79 179.61 169.89L178.51 173.44C178.471 173.499 178.413 173.543 178.346 173.565C178.279 173.587 178.206 173.585 178.14 173.56Z" fill="black"/>
<path d="M180.36 135.61C179.98 137.98 179.62 140.61 179.36 143.07C179.1 145.53 178.87 148.07 178.75 150.63C178.683 151.89 178.643 153.15 178.63 154.41V158.16C178.679 160.609 178.87 163.053 179.2 165.48C179.39 166.31 179.729 167.1 180.2 167.81C180.801 168.782 181.469 169.71 182.2 170.59C183.797 172.487 185.507 174.287 187.32 175.98C189.15 177.74 191.07 179.44 193.04 181.1C195.01 182.76 197.04 184.41 199.04 186L196.89 189.32C192.183 186.742 187.683 183.803 183.43 180.53C181.232 178.85 179.16 177.012 177.23 175.03C176.198 173.97 175.251 172.83 174.4 171.62C173.342 170.192 172.589 168.561 172.19 166.83L171.82 164.71C171.69 164.02 171.6 163.33 171.52 162.65C171.32 161.27 171.21 159.9 171.1 158.53C170.891 155.805 170.828 153.071 170.91 150.34C170.99 147.63 171.14 144.93 171.41 142.24C171.68 139.55 172.02 136.91 172.56 134.13L180.36 135.61Z" fill="#FD897B"/>
<path d="M173.72 125.63C169.44 129.09 170.46 139.37 170.46 139.37L184.86 144.11C184.86 144.11 184.2 132.26 183.5 128C182.64 122.93 177.92 122.22 173.72 125.63Z" fill="#FFD166"/>
<path d="M197.28 185.36L203.79 182.94L202.79 189.13C202.79 189.13 198.07 190.83 195.65 188.65L197.28 185.36Z" fill="#FD897B"/>
<path d="M211.54 183.86V188.64L202.79 189.13L203.79 182.94L211.54 183.86Z" fill="#FD897B"/>
<path d="M203.29 178.46L202.45 178.3C202.28 178.3 202.17 178.16 202.2 178.05L203.3 174.51C203.3 174.4 203.5 174.35 203.67 174.38L204.51 174.54C204.68 174.54 204.79 174.69 204.76 174.79L203.66 178.34C203.63 178.44 203.5 178.5 203.29 178.46Z" fill="#073B4C"/>
<path opacity="0.3" d="M203.29 178.46L202.45 178.3C202.28 178.3 202.17 178.16 202.2 178.05L203.3 174.51C203.3 174.4 203.5 174.35 203.67 174.38L204.51 174.54C204.68 174.54 204.79 174.69 204.76 174.79L203.66 178.34C203.63 178.44 203.5 178.5 203.29 178.46Z" fill="black"/>
<path d="M190.72 176L189.87 175.84C189.7 175.84 189.59 175.7 189.63 175.59L190.73 172.05C190.73 171.94 190.92 171.89 191.09 171.92L191.94 172.08C192.1 172.08 192.22 172.23 192.18 172.33L191.08 175.88C191.05 176 190.89 176.05 190.72 176Z" fill="#073B4C"/>
<path opacity="0.3" d="M190.72 176L189.87 175.84C189.7 175.84 189.59 175.7 189.63 175.59L190.73 172.05C190.73 171.94 190.92 171.89 191.09 171.92L191.94 172.08C192.1 172.08 192.22 172.23 192.18 172.33L191.08 175.88C191.05 176 190.89 176.05 190.72 176Z" fill="black"/>
<path d="M127.03 234.31L178.87 347.53C180.058 350.103 182.217 352.101 184.873 353.089C187.53 354.076 190.47 353.972 193.05 352.8L201.28 349.04L391.85 261.79C394.424 260.605 396.425 258.45 397.414 255.794C398.404 253.139 398.301 250.2 397.13 247.62L351.32 147.62L345.32 134.41C344.128 131.84 341.969 129.845 339.314 128.858C336.659 127.872 333.721 127.973 331.14 129.14L132.33 220.14C129.756 221.325 127.754 223.479 126.762 226.133C125.769 228.787 125.865 231.726 127.03 234.31Z" fill="#073B4C"/>
<path opacity="0.1" d="M127.03 234.31L178.87 347.53C180.058 350.103 182.217 352.101 184.873 353.089C187.53 354.076 190.47 353.972 193.05 352.8L201.28 349.04L391.85 261.79C394.424 260.605 396.425 258.45 397.414 255.794C398.404 253.139 398.301 250.2 397.13 247.62L351.32 147.62L345.32 134.41C344.128 131.84 341.969 129.845 339.314 128.858C336.659 127.872 333.721 127.973 331.14 129.14L132.33 220.14C129.756 221.325 127.754 223.479 126.762 226.133C125.769 228.787 125.865 231.726 127.03 234.31Z" fill="#06D6A0"/>
<path d="M366.326 180.333L148.073 280.257L173.616 336.048L391.869 236.124L366.326 180.333Z" fill="#073B4C"/>
<path opacity="0.3" d="M366.326 180.333L148.073 280.257L173.616 336.048L391.869 236.124L366.326 180.333Z" fill="#06D6A0"/>
<path d="M357.289 206.143L219.367 269.289L228.509 289.255L366.431 226.11L357.289 206.143Z" fill="#073B4C"/>
<path opacity="0.8" d="M357.289 206.143L219.367 269.289L228.509 289.255L366.431 226.11L357.289 206.143Z" fill="#06D6A0"/>
<path d="M358.856 160.001L140.428 260.836L154.18 290.625L372.608 189.79L358.856 160.001Z" fill="#073B4C"/>
<path opacity="0.3" d="M358.856 160.001L140.428 260.836L154.18 290.625L372.608 189.79L358.856 160.001Z" fill="black"/>
<path d="M156.67 235.73L201.28 349L391.85 261.75C394.424 260.566 396.425 258.41 397.414 255.755C398.404 253.099 398.301 250.16 397.13 247.58L351.32 147.58L162.71 221.86C160.077 222.908 157.965 224.953 156.834 227.551C155.702 230.149 155.643 233.089 156.67 235.73Z" fill="#073B4C"/>
<path d="M408.907 199.925L407.964 200.257L409.525 204.7L410.469 204.369L408.907 199.925Z" fill="#073B4C"/>
<path opacity="0.1" d="M408.907 199.925L407.964 200.257L409.525 204.7L410.469 204.369L408.907 199.925Z" fill="#06D6A0"/>
<path d="M401.032 177.591L400.089 177.922L406.238 195.433L407.182 195.102L401.032 177.591Z" fill="#073B4C"/>
<path opacity="0.1" d="M401.032 177.591L400.089 177.922L406.238 195.433L407.182 195.102L401.032 177.591Z" fill="#06D6A0"/>
<path d="M169.94 222.25L376.24 149.8C378.916 148.868 381.852 149.034 384.407 150.262C386.961 151.489 388.925 153.678 389.87 156.35L431.13 273.84C432.062 276.516 431.898 279.453 430.672 282.008C429.447 284.564 427.26 286.531 424.59 287.48L218.29 359.93C215.612 360.856 212.677 360.687 210.122 359.461C207.568 358.234 205.601 356.049 204.65 353.38L163.39 235.89C162.458 233.212 162.624 230.274 163.851 227.719C165.079 225.163 167.268 223.197 169.94 222.25Z" fill="#073B4C"/>
<path opacity="0.1" d="M169.94 222.25L376.24 149.8C378.916 148.868 381.852 149.034 384.407 150.262C386.961 151.489 388.925 153.678 389.87 156.35L431.13 273.84C432.062 276.516 431.898 279.453 430.672 282.008C429.447 284.564 427.26 286.531 424.59 287.48L218.29 359.93C215.612 360.856 212.677 360.687 210.122 359.461C207.568 358.234 205.601 356.049 204.65 353.38L163.39 235.89C162.458 233.212 162.624 230.274 163.851 227.719C165.079 225.163 167.268 223.197 169.94 222.25Z" fill="#06D6A0"/>
<path d="M405.665 201.311L179.185 280.846L197.133 331.956L423.614 252.421L405.665 201.311Z" fill="#073B4C"/>
<path opacity="0.3" d="M405.665 201.311L179.185 280.846L197.133 331.956L423.614 252.421L405.665 201.311Z" fill="#06D6A0"/>
<path d="M378.554 176.437L331.737 192.878L334.299 200.172L381.116 183.731L378.554 176.437Z" fill="#073B4C"/>
<path opacity="0.8" d="M378.554 176.437L331.737 192.878L334.299 200.172L381.116 183.731L378.554 176.437Z" fill="#06D6A0"/>
<path d="M409.922 265.753L372.36 278.943L373.699 282.755L411.26 269.565L409.922 265.753Z" fill="#073B4C"/>
<path opacity="0.8" d="M409.922 265.753L372.36 278.943L373.699 282.755L411.26 269.565L409.922 265.753Z" fill="#06D6A0"/>
<path d="M412.476 273.045L364.074 290.043L365.413 293.855L413.815 276.857L412.476 273.045Z" fill="#073B4C"/>
<path opacity="0.8" d="M412.476 273.045L364.074 290.043L365.413 293.855L413.815 276.857L412.476 273.045Z" fill="#06D6A0"/>
<path d="M239.891 328.727L215.689 337.226L218.569 345.425L242.77 336.926L239.891 328.727Z" fill="#073B4C"/>
<path opacity="0.8" d="M239.891 328.727L215.689 337.226L218.569 345.425L242.77 336.926L239.891 328.727Z" fill="#06D6A0"/>
<path d="M369.29 258.5L397.55 248.58C399.04 248.049 400.26 246.953 400.945 245.528C401.631 244.102 401.726 242.464 401.21 240.97C400.68 239.48 399.583 238.26 398.158 237.574C396.733 236.889 395.095 236.794 393.6 237.31L365.33 247.24C363.84 247.77 362.62 248.867 361.935 250.292C361.249 251.717 361.154 253.355 361.67 254.85C362.202 256.34 363.301 257.56 364.729 258.243C366.156 258.927 367.795 259.019 369.29 258.5Z" fill="#073B4C"/>
<path d="M320.88 275.5L349.15 265.57C350.628 265.037 351.839 263.946 352.521 262.531C353.204 261.115 353.304 259.488 352.8 258C352.267 256.512 351.17 255.294 349.745 254.611C348.32 253.927 346.683 253.834 345.19 254.35L316.93 264.28C315.44 264.81 314.22 265.907 313.534 267.332C312.849 268.757 312.754 270.395 313.27 271.89C313.81 273.37 314.911 274.579 316.335 275.255C317.759 275.93 319.391 276.018 320.88 275.5Z" fill="#073B4C"/>
<path d="M272.5 292.5L300.77 282.57C302.245 282.033 303.451 280.941 304.129 279.525C304.808 278.11 304.905 276.486 304.4 275C303.868 273.512 302.77 272.294 301.345 271.611C299.92 270.927 298.283 270.834 296.79 271.35L268.5 281.24C267.012 281.772 265.794 282.87 265.111 284.295C264.427 285.719 264.334 287.356 264.85 288.85C265.382 290.347 266.486 291.573 267.92 292.257C269.354 292.941 271.001 293.028 272.5 292.5Z" fill="#073B4C"/>
<path d="M224.07 309.5L252.34 299.57C253.82 299.039 255.033 297.949 255.718 296.533C256.402 295.117 256.504 293.49 256 292C255.468 290.512 254.37 289.294 252.945 288.611C251.521 287.927 249.884 287.834 248.39 288.35L220.12 298.28C218.63 298.81 217.41 299.907 216.725 301.332C216.039 302.757 215.944 304.395 216.46 305.89C217 307.37 218.101 308.579 219.525 309.255C220.949 309.93 222.582 310.018 224.07 309.5Z" fill="#073B4C"/>
<g opacity="0.8">
<path d="M369.29 258.5L397.55 248.58C399.04 248.049 400.26 246.953 400.945 245.528C401.631 244.102 401.726 242.464 401.21 240.97C400.68 239.48 399.583 238.26 398.158 237.574C396.733 236.889 395.095 236.794 393.6 237.31L365.33 247.24C363.84 247.77 362.62 248.867 361.935 250.292C361.249 251.717 361.154 253.355 361.67 254.85C362.202 256.34 363.301 257.56 364.729 258.243C366.156 258.927 367.795 259.019 369.29 258.5Z" fill="#06D6A0"/>
<path d="M320.88 275.5L349.15 265.57C350.628 265.037 351.839 263.946 352.521 262.531C353.204 261.115 353.304 259.488 352.8 258C352.267 256.512 351.17 255.294 349.745 254.611C348.32 253.927 346.683 253.834 345.19 254.35L316.93 264.28C315.44 264.81 314.22 265.907 313.534 267.332C312.849 268.757 312.754 270.395 313.27 271.89C313.81 273.37 314.911 274.579 316.335 275.255C317.759 275.93 319.391 276.018 320.88 275.5Z" fill="#06D6A0"/>
<path d="M272.5 292.5L300.77 282.57C302.245 282.033 303.451 280.941 304.129 279.525C304.808 278.11 304.905 276.486 304.4 275C303.868 273.512 302.77 272.294 301.345 271.611C299.92 270.927 298.283 270.834 296.79 271.35L268.5 281.24C267.012 281.772 265.794 282.87 265.111 284.295C264.427 285.719 264.334 287.356 264.85 288.85C265.382 290.347 266.486 291.573 267.92 292.257C269.354 292.941 271.001 293.028 272.5 292.5Z" fill="#06D6A0"/>
<path d="M224.07 309.5L252.34 299.57C253.82 299.039 255.033 297.949 255.718 296.533C256.402 295.117 256.504 293.49 256 292C255.468 290.512 254.37 289.294 252.945 288.611C251.521 287.927 249.884 287.834 248.39 288.35L220.12 298.28C218.63 298.81 217.41 299.907 216.725 301.332C216.039 302.757 215.944 304.395 216.46 305.89C217 307.37 218.101 308.579 219.525 309.255C220.949 309.93 222.582 310.018 224.07 309.5Z" fill="#06D6A0"/>
</g>
<path d="M383.979 204.262L358.825 213.095C356.689 213.845 355.565 216.186 356.316 218.322L361.557 233.248C362.308 235.385 364.648 236.509 366.784 235.758L391.938 226.925C394.075 226.175 395.198 223.834 394.448 221.698L389.206 206.772C388.456 204.635 386.116 203.511 383.979 204.262Z" fill="#073B4C"/>
<path opacity="0.3" d="M383.979 204.262L358.825 213.095C356.689 213.845 355.565 216.186 356.316 218.322L361.557 233.248C362.308 235.385 364.648 236.509 366.784 235.758L391.938 226.925C394.075 226.175 395.198 223.834 394.448 221.698L389.206 206.772C388.456 204.635 386.116 203.511 383.979 204.262Z" fill="black"/>
<path d="M232.18 232C231.553 230.207 230.578 228.556 229.312 227.14C228.046 225.724 226.514 224.572 224.802 223.749C223.09 222.926 221.233 222.449 219.337 222.344C217.44 222.24 215.542 222.51 213.75 223.14L193.43 230.77L193.17 230.84L192.57 231.09L192.2 231.23C188.919 232.711 186.335 235.4 184.984 238.737C183.634 242.074 183.621 245.803 184.948 249.15C186.275 252.496 188.84 255.203 192.11 256.708C195.381 258.212 199.105 258.399 202.51 257.23L221.75 250.83C222.305 250.706 222.852 250.552 223.39 250.37C223.788 250.23 224.179 250.07 224.56 249.89C227.83 248.392 230.424 245.728 231.833 242.419C233.242 239.111 233.366 235.395 232.18 232Z" fill="#073B4C"/>
<path opacity="0.8" d="M232.18 232C231.553 230.207 230.578 228.556 229.312 227.14C228.046 225.724 226.514 224.572 224.802 223.749C223.09 222.926 221.233 222.449 219.337 222.344C217.44 222.24 215.542 222.51 213.75 223.14L193.43 230.77L193.17 230.84L192.57 231.09L192.2 231.23C188.919 232.711 186.335 235.4 184.984 238.737C183.634 242.074 183.621 245.803 184.948 249.15C186.275 252.496 188.84 255.203 192.11 256.708C195.381 258.212 199.105 258.399 202.51 257.23L221.75 250.83C222.305 250.706 222.852 250.552 223.39 250.37C223.788 250.23 224.179 250.07 224.56 249.89C227.83 248.392 230.424 245.728 231.833 242.419C233.242 239.111 233.366 235.395 232.18 232Z" fill="#06D6A0"/>
</g>
<defs>
<clipPath id="clip0_925_17727">
<rect width="500" height="372.56" fill="white" transform="translate(0.5)"/>
</clipPath>
</defs>
</svg>
