<?xml version="1.0" encoding="UTF-8" standalone="no"?>
<!-- Uploaded to: SVG Repo, www.svgrepo.com, Generator: SVG Repo Mixer Tools -->

<svg
   version="1.1"
   id="Layer_1"
   viewBox="0 0 512 375"
   xml:space="preserve"
   sodipodi:docname="default-image.svg"
   width="512"
   height="375"
   inkscape:version="1.3.2 (091e20e, 2023-11-25, custom)"
   xmlns:inkscape="http://www.inkscape.org/namespaces/inkscape"
   xmlns:sodipodi="http://sodipodi.sourceforge.net/DTD/sodipodi-0.dtd"
   xmlns="http://www.w3.org/2000/svg"
   xmlns:svg="http://www.w3.org/2000/svg"><defs
   id="defs3" /><sodipodi:namedview
   id="namedview3"
   pagecolor="#505050"
   bordercolor="#eeeeee"
   borderopacity="1"
   inkscape:showpageshadow="0"
   inkscape:pageopacity="0"
   inkscape:pagecheckerboard="0"
   inkscape:deskcolor="#505050"
   inkscape:zoom="0.70996094"
   inkscape:cx="252.83081"
   inkscape:cy="214.80055"
   inkscape:window-width="1920"
   inkscape:window-height="1051"
   inkscape:window-x="-9"
   inkscape:window-y="-9"
   inkscape:window-maximized="1"
   inkscape:current-layer="Layer_1" />



<g
   id="g4"
   transform="translate(0,-68.500504)"><rect
     y="68.266998"
     style="fill:#f2f2f4"
     width="512"
     height="375.46701"
     id="rect1"
     x="0" /><rect
     x="256"
     y="68.266998"
     style="fill:#dfdfe1"
     width="256"
     height="375.46701"
     id="rect2" /><polygon
     style="fill:#88888f"
     points="51.2,392.533 460.8,392.533 460.8,305.493 375.467,219.796 307.2,288.063 187.733,168.596 51.2,305.493 "
     id="polygon2" /><g
     id="g3">
	<path
   style="fill:#56545a"
   d="m 315.733,213.333 c 18.821,0 34.133,-15.312 34.133,-34.133 0,-18.821 -15.312,-34.133 -34.133,-34.133 -18.821,0 -34.133,15.312 -34.133,34.133 0,18.821 15.312,34.133 34.133,34.133 z"
   id="path2" />
	<polygon
   style="fill:#56545a"
   points="460.8,392.533 460.8,305.493 375.467,219.796 307.2,288.063 256,236.863 256,392.533 "
   id="polygon3" />
</g></g>
</svg>
