<?xml version="1.0" encoding="UTF-8" standalone="no"?>
<svg
   width="800"
   height="800"
   viewBox="0 0 24 24"
   fill="none"
   version="1.1"
   id="svg1"
   xmlns="http://www.w3.org/2000/svg"
   xmlns:svg="http://www.w3.org/2000/svg">
  <defs
     id="defs1" />
  <path
     d="M 10.719878,13.280117 H 4.3192822 c -0.3626962,0 -0.6665108,-0.122891 -0.9114398,-0.368675 C 3.162912,12.665659 3.0400206,12.361849 3.0391667,11.999997 3.0383142,11.638159 3.1612056,11.334335 3.4078424,11.088552 3.6544778,10.84277 3.9582885,10.719878 4.3192822,10.719878 H 10.719878 V 4.3192819 c 0,-0.3626963 0.122892,-0.6665108 0.368675,-0.9114399 0.245783,-0.2449301 0.549606,-0.3678216 0.911445,-0.368675 0.361851,-8.534e-4 0.666097,0.1220382 0.912725,0.368675 0.24664,0.2466355 0.36911,0.55045 0.367394,0.9114399 v 6.4005961 h 6.400596 c 0.362658,0 0.666943,0.122892 0.912725,0.368674 0.245783,0.245783 0.368291,0.549607 0.367395,0.911445 -8.96e-4,0.361852 -0.123788,0.666098 -0.368675,0.912725 -0.244886,0.246641 -0.548787,0.36911 -0.911445,0.367395 h -6.400596 v 6.400596 c 0,0.362658 -0.122891,0.666942 -0.368674,0.912725 -0.245783,0.245783 -0.549594,0.368291 -0.911445,0.367395 -0.361839,-8.97e-4 -0.665662,-0.123788 -0.911445,-0.368675 -0.245783,-0.244887 -0.368675,-0.548787 -0.368675,-0.911445 z"
     fill="#ffffff"
     id="path1"
     style="stroke-width:1.28012" />
</svg>
