<?xml version="1.0" encoding="UTF-8" standalone="no"?>
<svg
   width="800"
   height="800"
   viewBox="0 0 24 24"
   fill="none"
   version="1.1"
   id="svg3"
   xmlns="http://www.w3.org/2000/svg"
   xmlns:svg="http://www.w3.org/2000/svg">
  <defs
     id="defs3" />
  <path
     id="path4"
     style="fill:currentColor;stroke-width:1.03104"
     d="m 7.3951068,11.48057 v 1.038859 H 16.093202 V 11.48057 Z M 11.846474,6.9620508 11.130203,7.6891969 14.864819,11.48057 h 1.228383 v 1.038859 h -1.227604 l -3.735395,3.792165 0.716271,0.727146 4.96306,-5.038344 z M 11.99997,3.1698857 c -4.8095141,0 -8.6980348,3.9475542 -8.6980348,8.8300833 0,4.88253 3.8885207,8.830145 8.6980348,8.830145 4.809514,0 8.698095,-3.947615 8.698095,-8.830145 0,-4.882529 -3.888581,-8.8300832 -8.698095,-8.8300833 z m 0,1.0387976 c 4.246698,0 7.674771,3.4801164 7.674771,7.7912857 0,4.31117 -3.428073,7.791286 -7.674771,7.791286 -4.2466987,0 -7.6747718,-3.480116 -7.6747718,-7.791286 0,-4.3111693 3.4280731,-7.7912857 7.6747718,-7.7912857 z" />
</svg>
