<?xml version="1.0" encoding="UTF-8" standalone="no"?>
<svg
   width="800"
   height="800"
   viewBox="0 0 24 24"
   fill="none"
   version="1.1"
   id="svg3"
   sodipodi:docname="arrow-circle-down.svg"
   inkscape:version="1.3.2 (091e20e, 2023-11-25, custom)"
   xmlns:inkscape="http://www.inkscape.org/namespaces/inkscape"
   xmlns:sodipodi="http://sodipodi.sourceforge.net/DTD/sodipodi-0.dtd"
   xmlns="http://www.w3.org/2000/svg"
   xmlns:svg="http://www.w3.org/2000/svg">
  <defs
     id="defs3" />
  <sodipodi:namedview
     id="namedview3"
     pagecolor="#505050"
     bordercolor="#eeeeee"
     borderopacity="1"
     inkscape:showpageshadow="0"
     inkscape:pageopacity="0"
     inkscape:pagecheckerboard="0"
     inkscape:deskcolor="#505050"
     inkscape:zoom="0.2271875"
     inkscape:cx="517.19395"
     inkscape:cy="697.66162"
     inkscape:window-width="1920"
     inkscape:window-height="1051"
     inkscape:window-x="-9"
     inkscape:window-y="-9"
     inkscape:window-maximized="1"
     inkscape:current-layer="svg3" />
  <path
     id="path4"
     style="fill:currentColor;stroke-width:1.03104"
     d="m 12.51943,7.395107 h -1.038859 v 8.698095 h 1.038859 z m 4.518519,4.451367 -0.727146,-0.716271 -3.791373,3.734616 v 1.228383 h -1.038859 v -1.227604 l -3.792165,-3.735395 -0.727146,0.716271 5.038344,4.96306 z m 3.792165,0.153496 c 0,-4.809514 -3.947554,-8.698035 -8.830083,-8.698035 -4.88253,0 -8.830145,3.888521 -8.830145,8.698035 0,4.809514 3.9476149,8.698095 8.830145,8.698095 4.882529,0 8.830083,-3.888581 8.830083,-8.698095 z m -1.038798,0 c 0,4.246698 -3.480116,7.674771 -7.791285,7.674771 -4.31117,0 -7.791286,-3.428073 -7.791286,-7.674771 0,-4.246699 3.480116,-7.674772 7.791286,-7.674772 4.311169,0 7.791285,3.428073 7.791285,7.674772 z" />
</svg>
