<?xml version="1.0" encoding="UTF-8" standalone="no"?>
<svg
   width="800"
   height="800"
   viewBox="0 0 24 24"
   fill="none"
   version="1.1"
   id="svg3"
   xmlns="http://www.w3.org/2000/svg"
   xmlns:svg="http://www.w3.org/2000/svg">
  <defs
     id="defs3" />
  <path
     id="path6"
     style="clip-rule:evenodd;fill:currentColor;fill-rule:evenodd;stroke-width:1.26323"
     d="m 11.999971,1.8941689 c -3.978061,0 -7.2184,3.2404088 -7.2183987,7.218457 -7e-7,2.0128701 0.8304804,3.8359731 2.1655078,5.1468751 v 7.124414 c 0,0.123038 0.031478,0.244062 0.091406,0.351562 0.059915,0.107374 0.1462865,0.197823 0.250957,0.2625 0.1046706,0.06468 0.2241267,0.101552 0.3470508,0.107109 0.122924,0.0056 0.245248,-0.02046 0.3553125,-0.07541 l 4.0081646,-2.004843 4.008223,2.004843 c 0.110063,0.05495 0.232331,0.08097 0.355253,0.07541 0.122925,-0.0056 0.24238,-0.04244 0.347051,-0.107109 0.10462,-0.06468 0.191073,-0.155126 0.251074,-0.2625 0.05988,-0.1075 0.09129,-0.228524 0.09129,-0.351562 v -7.124414 c 1.335043,-1.310902 2.165566,-3.134005 2.165566,-5.1468751 0,-3.9780482 -3.240409,-7.218457 -7.218457,-7.218457 z m 0,1.4436913 c 3.197832,0 5.774707,2.5769336 5.774707,5.7747657 0,1.6728181 -0.706018,3.1747961 -1.836328,4.2277731 -0.04209,0.02731 -0.0817,0.05878 -0.117715,0.0948 -0.01709,0.01708 -0.03317,0.03496 -0.04834,0.0535 -1.7e-5,2.1e-5 -4.1e-5,3.7e-5 -5.8e-5,5.8e-5 -1.010849,0.871422 -2.327656,1.398516 -3.772266,1.398516 -1.444535,0 -2.7612623,-0.527059 -3.7720901,-1.398398 -0.056316,-0.04854 -0.1119098,-0.09782 -0.1662891,-0.148477 -4.03e-5,-3.8e-5 -7.68e-5,-8e-5 -1.172e-4,-1.17e-4 -2.28e-5,-1.5e-5 -3.57e-5,-4.4e-5 -5.86e-5,-5.9e-5 -1.1302036,-1.052967 -1.8361523,-2.554868 -1.8361523,-4.2275961 0,-3.1978321 2.5768749,-5.7747657 5.7747073,-5.7747657 z M 8.0615918,13.340399 c 0.05438,0.05066 0.1099727,0.09993 0.1662891,0.148477 -0.015212,-0.01861 -0.031365,-0.03653 -0.048516,-0.05367 -0.036028,-0.03604 -0.075677,-0.0675 -0.1177735,-0.0948 z M 11.999912,4.6777821 c -0.136112,0 -0.269424,0.038302 -0.384668,0.1105078 C 11.5,4.8604832 11.40751,4.9636202 11.348467,5.0858876 L 10.322432,7.2037587 7.98542,7.5222157 C 7.8506972,7.5405707 7.7238776,7.5963888 7.6195606,7.6833485 7.5152311,7.7702964 7.437676,7.8848216 7.3956739,8.0137587 c -0.04199,0.1289244 -0.046661,0.2670451 -0.013477,0.3984961 0.033185,0.1314634 0.1028781,0.2509506 0.2010937,0.344707 l 1.702793,1.6265042 -0.4182422,2.314863 c -0.032111,0.178696 0.00458,0.362901 0.1027735,0.5158 0.098191,0.152863 0.2506693,0.263305 0.426914,0.308907 0.1762197,0.04598 0.3632933,0.02383 0.5238867,-0.06182 l 2.078496,-1.112226 2.078496,1.112226 c 0.119779,0.06405 0.255293,0.09325 0.390938,0.08402 0.135658,-0.0091 0.265982,-0.05622 0.375996,-0.135938 0.110014,-0.07958 0.195272,-0.188589 0.245977,-0.314355 0.05071,-0.125767 0.06483,-0.263224 0.04072,-0.396621 l -0.41824,-2.314856 1.702793,-1.6265042 c 0.09822,-0.093756 0.167909,-0.2132436 0.201094,-0.344707 0.03318,-0.131451 0.02851,-0.2695717 -0.01348,-0.3984961 C 16.562206,7.8848216 16.484635,7.7702961 16.380319,7.6833485 16.276003,7.5963885 16.149183,7.5405704 16.01446,7.5222157 L 13.677451,7.2037587 12.651416,5.0858876 C 12.592373,4.9636202 12.499882,4.8604832 12.384639,4.7882899 12.269395,4.7160842 12.136024,4.6777821 11.999912,4.6777821 Z m 0,2.3805469 0.543516,1.1213672 c 0.05206,0.1070076 0.129828,0.199483 0.226465,0.2692383 0.09662,0.069755 0.209067,0.1145717 0.327304,0.1304882 l 1.237442,0.1683985 -0.901934,0.8625 c -0.08616,0.082286 -0.150555,0.1845346 -0.187441,0.2976562 -0.03689,0.1131216 -0.04512,0.2335626 -0.02397,0.3506246 l 0.221724,1.226777 -1.100684,-0.588749 c -0.105252,-0.05642 -0.222921,-0.08596 -0.342422,-0.08596 -0.119501,0 -0.237111,0.02954 -0.342363,0.08596 l -1.100742,0.588749 0.221777,-1.226777 c 0.02116,-0.117062 0.01292,-0.237503 -0.02397,-0.3506246 -0.03689,-0.1131216 -0.101277,-0.2153699 -0.187441,-0.2976562 l -0.9019338,-0.8625 1.2374418,-0.1683985 c 0.118237,-0.015916 0.23068,-0.060733 0.327304,-0.1304882 0.09662,-0.069755 0.174408,-0.1622307 0.226465,-0.2692383 z m 3.938262,6.282246 c -0.05416,0.05045 -0.109507,0.09954 -0.165586,0.14789 0.05608,-0.04835 0.111428,-0.09745 0.165586,-0.14789 z m -8.6943751,1.193613 c 0.024091,0.02116 0.048343,0.04214 0.072715,0.06299 -0.024383,-0.02083 -0.048614,-0.04183 -0.072715,-0.06299 z m 9.5116991,5.86e-4 c -0.02351,0.02063 -0.04712,0.04114 -0.0709,0.06147 0.02377,-0.02034 0.0474,-0.04082 0.0709,-0.06147 z m -8.9532421,0.44332 c 0.010192,0.0073 0.020413,0.01459 0.030645,0.02186 -0.010236,-0.0073 -0.020447,-0.01454 -0.030645,-0.02186 z m 8.3944921,7.03e-4 c -0.0096,0.0069 -0.01916,0.01369 -0.02877,0.02051 0.0096,-0.0068 0.0192,-0.01364 0.02877,-0.02051 z m -7.8059765,0.380098 c 1.0628206,0.616876 2.2952125,0.972129 3.6091995,0.972129 1.313982,0 2.54637,-0.355253 3.609199,-0.972129 v 4.857715 l -3.286348,-1.643848 c -0.100249,-0.05015 -0.210778,-0.07629 -0.322851,-0.07629 -0.112073,0 -0.222603,0.02614 -0.322852,0.07629 L 8.3907715,20.21661 Z" />
</svg>
