<?xml version="1.0" encoding="UTF-8" standalone="no"?>
<svg
   width="800"
   height="800"
   viewBox="0 0 24 24"
   fill="none"
   version="1.1"
   id="svg1"
   xmlns="http://www.w3.org/2000/svg"
   xmlns:svg="http://www.w3.org/2000/svg">
  <defs
     id="defs1" />
  <path
     d="m 0.94865,20.841062 h 22.1027 v 2.210269 H 0.94865 Z m 2.21027,-8.841081 h 2.2102699 v 7.735946 H 3.15892 Z m 5.5256753,0 h 2.2102697 v 7.735946 H 8.6845953 Z m 4.4205397,0 h 2.210269 v 7.735946 h -2.210269 z m 5.525675,0 h 2.210269 v 7.735946 H 18.63081 Z M 0.94865,6.4743439 12,0.948669 23.05135,6.4743439 V 10.894847 H 0.94865 Z M 3.15892,7.8402907 V 8.6845769 H 20.841079 V 7.8402907 L 12,3.4197508 Z M 12,7.5794791 c -0.293106,0 -0.57418,-0.1164328 -0.781453,-0.3236823 -0.207274,-0.2072616 -0.323682,-0.4883588 -0.323682,-0.7814529 0,-0.2931063 0.116408,-0.5741913 0.323682,-0.7814533 C 11.42582,5.4856411 11.706894,5.3692089 12,5.3692089 c 0.293106,0 0.574179,0.1164322 0.781453,0.3236817 0.207274,0.207262 0.323682,0.488347 0.323682,0.7814533 0,0.2930941 -0.116408,0.5741913 -0.323682,0.7814529 C 12.574179,7.4630463 12.293106,7.5794791 12,7.5794791 Z"
     fill="currentColor"
     id="path1"
     style="stroke-width:1.22793" />
</svg>
