<?xml version="1.0" encoding="UTF-8" standalone="no"?>
<svg
   width="800"
   height="800"
   viewBox="0 0 24 24"
   fill="none"
   version="1.1"
   id="svg3"
   xmlns="http://www.w3.org/2000/svg"
   xmlns:svg="http://www.w3.org/2000/svg">
  <defs
     id="defs3" />
  <path
     id="path1"
     style="fill:currentColor;stroke-width:1.07075;stroke-linecap:round;stroke-linejoin:round;-inkscape-stroke:none"
     d="m 8.7877384,0.48937525 c -2.7839545,0 -4.9092288,0.55931205 -6.3241399,1.97422325 C 1.0486873,3.8785096 0.48937525,6.0037839 0.48937525,8.7877384 v 6.4245236 c 0,2.783953 0.55931205,4.909228 1.97422325,6.32414 1.4149111,1.414911 3.5401854,1.974223 6.3241399,1.974223 h 6.4245236 c 2.783953,0 4.909228,-0.559312 6.32414,-1.974223 1.414911,-1.414912 1.974223,-3.540187 1.974223,-6.32414 V 8.7877384 c 0,-2.7839545 -0.559312,-4.9092288 -1.974223,-6.3241399 C 20.12149,1.0486873 17.996215,0.48937525 15.212262,0.48937525 Z m 0,1.60613075 h 6.4245236 c 2.569805,0 4.192203,0.5114674 5.186485,1.5057476 0.994281,0.99428 1.505748,2.6166807 1.505748,5.1864848 v 6.4245236 c 0,2.569805 -0.511467,4.192203 -1.505748,5.186485 -0.994282,0.994281 -2.61668,1.505748 -5.186485,1.505748 H 8.7877384 c -2.5698041,0 -4.1922048,-0.511467 -5.1864848,-1.505748 C 2.6069734,19.404465 2.095506,17.782067 2.095506,15.212262 V 8.7877384 c 0,-2.5698041 0.5114674,-4.1922048 1.5057476,-5.1864848 C 4.5955336,2.6069735 6.2179343,2.095506 8.7877384,2.095506 Z m 6.9598786,2.1415494 c -1.61586,0 -2.944551,1.3286905 -2.944551,2.9445522 v 9.6367854 c 0,1.610994 1.321929,2.944551 2.944551,2.944551 1.615862,0 2.944616,-1.328691 2.944616,-2.944551 V 7.1816076 c 0,-1.6158617 -1.328754,-2.9445522 -2.944616,-2.9445522 z m 0,1.6061308 c 0.739793,0 1.338485,0.5986293 1.338485,1.3384214 v 9.6367854 c 0,0.739791 -0.598692,1.33842 -1.338485,1.33842 -0.754445,0 -1.338421,-0.593762 -1.338421,-1.33842 V 7.1816076 c 0,-0.7397921 0.59863,-1.3384214 1.338421,-1.3384214 z M 8.2523824,10.12616 c -1.6158617,0 -2.9446149,1.328754 -2.9446149,2.944615 v 3.747618 c 0,1.610994 1.3219919,2.944551 2.9446149,2.944551 1.6158614,0 2.9445526,-1.328691 2.9445526,-2.944551 v -3.747618 c 0,-1.615861 -1.3286912,-2.944615 -2.9445526,-2.944615 z m 0,1.60613 c 0.7397921,0 1.3384213,0.598693 1.3384213,1.338485 v 3.747618 c 0,0.739791 -0.5986293,1.33842 -1.3384213,1.33842 -0.7544459,0 -1.3384841,-0.593762 -1.3384841,-1.33842 v -3.747618 c 0,-0.739792 0.598692,-1.338485 1.3384841,-1.338485 z" />
</svg>
