<?xml version="1.0" encoding="UTF-8" standalone="no"?>
<svg
   width="800"
   height="800"
   viewBox="0 0 24 24"
   fill="none"
   version="1.1"
   id="svg3"
   xmlns="http://www.w3.org/2000/svg"
   xmlns:svg="http://www.w3.org/2000/svg">
  <defs
     id="defs3" />
  <path
     id="path1"
     style="fill:currentColor;stroke-width:1.24632;stroke-linecap:round;stroke-miterlimit:10;-inkscape-stroke:none"
     d="m 12.027375,0.61757175 c -1.100237,0 -2.0757261,0.59779025 -2.5966837,1.49639045 C 6.7623481,3.1589093 4.861044,5.7602252 4.8610441,8.7892618 V 11.79307 c 0,0.367992 -0.2714351,1.343804 -0.4600684,1.660189 l -1.1927454,1.979025 c -0.4964744,0.825093 -0.6033377,1.789469 -0.2969997,2.616766 0.3063381,0.827296 1.012433,1.486723 1.9206027,1.794047 v 0.0025 h 0.00241 c 1.1085754,0.370382 2.2384143,0.649793 3.3788005,0.844189 0.2042839,0.571145 0.532293,1.085399 0.9516842,1.504789 0.7322239,0.732224 1.752663,1.187854 2.862648,1.187853 1.749059,0 3.25215,-1.130722 3.814258,-2.695416 1.135444,-0.194326 2.26039,-0.472736 3.364269,-0.841415 1.809836,-0.598253 2.613976,-2.772605 1.630979,-4.410814 L 19.646546,13.45567 c -0.187163,-0.330277 -0.452767,-1.296788 -0.452767,-1.6626 V 8.7892618 c 0,-3.0226907 -1.904155,-5.6261511 -4.569865,-6.6734008 C 14.10295,1.2169597 13.127443,0.61757175 12.027375,0.61757175 Z m 2.93e-4,2.91004175 c 0.263715,7.369e-4 0.532978,0.018069 0.807894,0.052433 a 0.93483551,0.93483551 0 0 0 0.0049,0 c 0.26161,0.031708 0.52167,0.087001 0.779998,0.1588331 2.142984,0.6789565 3.703842,2.6877035 3.703842,5.050382 v 3.0038074 c 0,0.899216 0.270032,1.849239 0.705876,2.604644 l 0.0049,0.0074 1.197639,1.991146 c 0.387954,0.646546 0.09007,1.442251 -0.613426,1.674795 h -0.0025 c -4.284758,1.431553 -8.9039081,1.431551 -13.1886262,0 C 4.9891196,17.92129 4.7647722,17.674284 4.6637989,17.401595 4.5627247,17.128635 4.5705954,16.797846 4.8098523,16.398719 v -0.0025 l 1.1952284,-1.983917 0.00241,-0.0025 c 0.4553901,-0.763591 0.723042,-1.71758 0.7230421,-2.616747 V 8.7892618 c 0,-2.3614197 1.5362628,-4.3533198 3.6656502,-5.039501 0.518332,-0.1477385 1.061877,-0.223739 1.63149,-0.2221473 z m 1.44549,17.4362255 c -0.385009,0.341388 -0.891212,0.549088 -1.445783,0.549088 -0.544795,0 -1.059557,-0.211774 -1.441693,-0.54792 0.961683,0.06101 1.925825,0.06068 2.887476,-0.0012 z" />
</svg>
