<?xml version="1.0" encoding="UTF-8" standalone="no"?>
<svg
   width="800"
   height="800"
   viewBox="0 0 24 24"
   fill="none"
   version="1.1"
   id="svg4"
   xmlns="http://www.w3.org/2000/svg"
   xmlns:svg="http://www.w3.org/2000/svg">
  <defs
     id="defs4" />
  <path
     id="path1"
     style="color:currentColor;fill:currentColor;stroke-width:1.03261;stroke-linecap:round;stroke-linejoin:round;-inkscape-stroke:none"
     d="m 8.2355819,0.46983905 c -2.2158119,0 -3.8002986,0.2507357 -4.8504164,1.30085005 C 2.3350478,2.8208036 2.0822581,4.4053537 2.0822581,6.6211662 V 18.45382 18.992312 c 0,2.495965 2.0439047,4.537849 4.5399065,4.537849 H 17.377836 c 2.495986,0 4.539906,-2.041889 4.539906,-4.537849 v -3.765386 a 0.77453707,0.77453707 0 0 0 -5.9e-5,-3.03e-4 V 6.6211662 c 0,-2.2158144 -0.252732,-3.8003642 -1.302847,-4.850477 C 19.564722,0.72057645 17.980135,0.46983905 15.764358,0.46983905 Z m 0,1.54891935 h 7.5288371 c 2.086699,0 3.191943,0.283726 3.755282,0.8470652 0.56334,0.5633389 0.849121,1.6686087 0.849121,3.7553426 V 14.452466 H 5.9223072 c -0.8575389,0 -1.6496737,0.289355 -2.2911298,0.770406 V 6.6211662 c 0,-2.0867359 0.2857831,-3.1920053 0.8491223,-3.7553426 C 5.0436389,2.3024861 6.1488453,2.0187584 8.2355819,2.0187584 Z M 7.6970905,5.8467066 A 0.77445963,0.77445963 0 0 0 6.9226308,6.6211662 0.77445963,0.77445963 0 0 0 7.6970905,7.3956258 h 8.6058185 a 0.77445963,0.77445963 0 0 0 0.77446,-0.7744597 0.77445963,0.77445963 0 0 0 -0.77446,-0.7744596 z m 0,3.7653863 a 0.77445963,0.77445963 0 0 0 -0.7744597,0.7744601 0.77445963,0.77445963 0 0 0 0.7744597,0.77446 h 5.3788645 a 0.77445963,0.77445963 0 0 0 0.77446,-0.77446 0.77445963,0.77445963 0 0 0 -0.77446,-0.7744601 z M 5.9223072,16.001385 H 20.368822 v 1.375453 c 0,0.150555 -0.002,0.283353 -0.01012,0.397334 a 0.77445963,0.77445963 0 0 0 0.01012,0.053 v 1.165138 c 0,1.655962 -1.335049,2.98893 -2.990986,2.98893 H 6.6221646 c -1.6559609,0 -2.9909872,-1.332973 -2.9909872,-2.98893 v -0.699798 c 0,-1.267918 1.0233159,-2.291131 2.2911298,-2.291131 z" />
</svg>
