<?xml version="1.0" encoding="UTF-8" standalone="no"?>
<svg
   width="800"
   height="800"
   viewBox="0 0 24 24"
   fill="none"
   version="1.1"
   id="svg1"
   xmlns="http://www.w3.org/2000/svg"
   xmlns:svg="http://www.w3.org/2000/svg">
  <g
     clip-path="url(#clip0_1254_12100)"
     id="g1"
     transform="matrix(0.77719707,0,0,0.77719707,2.6739072,2.6740925)">
    <path
       d="M 22.9792,19.7705 18.321,2.38327 c -0.288,-1.0485 -1.233,-1.805997 -2.3543,-1.805997 -0.2242,0 -0.4417,0.03 -0.648,0.087 L 15.336,0.660523 13.164,1.24252 c -0.1725,0.04875 -0.3218,0.10875 -0.4635,0.18225 l 0.0135,-0.006 C 12.2685,0.895273 11.61,0.563773 10.8742,0.561523 H 8.625 C 8.055,0.563773 7.53225,0.764023 7.1205,1.09627 L 7.125,1.09252 C 6.71775,0.764023 6.195,0.563773 5.62575,0.561523 H 3.375 C 2.0295,0.563023 0.939,1.65352 0.9375,2.99902 V 20.999 c 0.0015,1.3455 1.092,2.436 2.4375,2.4375 h 2.25 c 0.57,-0.0022 1.09275,-0.2017 1.5045,-0.534 L 7.125,22.9063 c 0.40725,0.3285 0.93,0.528 1.49925,0.531 h 2.24925 c 1.3455,-0.0015 2.436,-1.092 2.4375,-2.4375 V 11.21 l 2.7878,10.4048 c 0.2865,1.0485 1.2307,1.806 2.352,1.806 0.225,0 0.4424,-0.0308 0.6495,-0.0878 l -0.0173,0.0038 2.1735,-0.5813 c 1.0485,-0.2895 1.8053,-1.2345 1.8053,-2.3557 0,-0.2235 -0.0301,-0.4403 -0.0863,-0.6465 z M 14.2695,7.54552 17.529,6.67177 l 2.6205,9.78153 -3.2588,0.873 z M 13.6493,3.05377 15.8205,2.47252 c 0.042,-0.01125 0.0908,-0.01725 0.141,-0.01725 0.2595,0 0.4793,0.17325 0.5483,0.41025 l 7e-4,0.00375 0.534,1.992 -3.2595,0.87375 -0.474,-1.76775 v -0.636 c 0.0705,-0.13425 0.1905,-0.234 0.3345,-0.2775 z M 8.625,2.43727 h 2.2485 c 0.309,0.0045 0.558,0.2535 0.5625,0.56175 v 2.0625 L 8.0625,5.06227 V 2.99977 C 8.067,2.69077 8.316,2.44177 8.62425,2.43727 Z M 6.1875,17.0623 H 2.8125 V 6.93727 l 3.375,-7.5e-4 z M 8.0625,6.93727 11.436,6.93652 V 17.0623 H 8.0625 Z m -4.6875,-4.5 h 2.25 c 0.309,0.0045 0.558,0.2535 0.5625,0.56175 v 2.0625 l -3.375,7.5e-4 V 2.99977 C 2.817,2.69077 3.06675,2.44177 3.375,2.43727 Z M 5.625,21.5623 H 3.375 C 3.066,21.5578 2.817,21.3088 2.8125,21.0005 v -2.0632 h 3.375 v 2.0625 c -0.0045,0.309 -0.25425,0.558 -0.5625,0.5625 z m 5.2485,0 H 8.625 C 8.316,21.5578 8.067,21.3088 8.0625,21.0005 v -2.0632 h 3.3735 v 2.0625 c -0.0045,0.309 -0.2542,0.558 -0.5625,0.5625 z m 9.8963,-0.6165 -2.172,0.5812 c -0.0428,0.0113 -0.0915,0.018 -0.1418,0.018 -0.1043,0 -0.2018,-0.0277 -0.2858,-0.0765 L 18.1733,21.47 C 18.045,21.3958 17.9498,21.2758 17.9108,21.1325 l -8e-4,-0.0037 -0.5332,-1.9913 3.2587,-0.873 0.534,1.9928 c 0.0112,0.042 0.0173,0.09 0.0173,0.1395 0,0.2602 -0.174,0.4792 -0.4118,0.5475 l -0.0038,7e-4 z"
       fill="#ffffff"
       id="path1" />
  </g>
  <defs
     id="defs1">
    <clipPath
       id="clip0_1254_12100">
      <rect
         width="24"
         height="24"
         fill="#ffffff"
         id="rect1"
         x="0"
         y="0" />
    </clipPath>
  </defs>
</svg>
