<?xml version="1.0" encoding="UTF-8" standalone="no"?>
<!-- Uploaded to: SVG Repo, www.svgrepo.com, Generator: SVG Repo Mixer Tools -->

<svg
   width="800px"
   height="800px"
   viewBox="0 0 24 24"
   fill="none"
   version="1.1"
   id="svg10"
   xmlns="http://www.w3.org/2000/svg"
   xmlns:svg="http://www.w3.org/2000/svg">
  <defs
     id="defs10" />
  <path
     id="path1"
     style="fill:currentColor;stroke-linecap:round;-inkscape-stroke:none"
     d="m 7.0000195,1.7500195 a 0.75,0.75 0 0 0 -0.75,0.75 v 0.827461 C 5.993819,3.3473136 5.7460752,3.3708576 5.5117383,3.4023633 4.337522,3.5602322 3.3686911,3.9125846 2.6406445,4.640625 1.9126042,5.3686716 1.5601933,6.3375024 1.4023242,7.5117188 1.351036,7.8931962 1.3210267,8.3143826 1.2984375,8.7564844 A 0.75,0.75 0 0 0 1.2499805,9 0.75,0.75 0 0 0 1.2812695,9.1570312 C 1.2521273,9.9820558 1.2499805,10.907522 1.2499805,12 v 1.99998 c 0,1.885597 -0.00553,3.314059 0.1523437,4.488282 0.157869,1.174224 0.5102586,2.143075 1.2383203,2.871093 0.7280448,0.728058 1.6968754,1.080448 2.8710938,1.238321 1.1742185,0.157874 2.602665,0.152344 4.4882817,0.152344 h 3.99996 a 0.75,0.75 0 0 0 0.75,-0.75 0.75,0.75 0 0 0 -0.75,-0.75 h -3.99996 c -1.8856167,0 -3.2847758,-0.0056 -4.289063,-0.140625 C 4.7066698,20.974369 4.1447243,20.742349 3.7011914,20.298809 3.2576854,19.855329 3.0256285,19.293341 2.8906055,18.289043 2.7555824,17.284746 2.7499805,15.885577 2.7499805,13.99998 V 12 c 0,-0.850621 0.00276,-1.588961 0.016406,-2.25 h 3.1086328 a 0.75,0.75 0 0 0 0.75,-0.75 0.75,0.75 0 0 0 -0.75,-0.75 H 2.8345312 C 2.8504067,8.0605096 2.868128,7.8781205 2.8906055,7.7109375 3.0256284,6.7066482 3.257664,6.1447029 3.7011914,5.7011719 4.1447225,5.2576445 4.7066677,5.0256675 5.710957,4.8906445 6.7152463,4.7556216 8.1144033,4.7500195 10.00002,4.7500195 h 3.99996 c 1.885597,0 3.284766,0.0056 4.289063,0.140625 1.004298,0.1350231 1.566286,0.3670214 2.009766,0.8105274 0.44354,0.4435328 0.67556,1.0054784 0.810586,2.0097656 0.02248,0.1671827 0.0402,0.3495722 0.05607,0.5390625 H 16.62498 10.75002 a 0.75,0.75 0 0 0 -0.75,0.75 0.75,0.75 0 0 0 0.75,0.75 h 5.87496 4.608633 c 0.01365,0.661028 0.01641,1.399399 0.01641,2.25 v 1.99998 c 0,1.885597 -0.0056,3.284768 -0.140625,4.289063 -0.135026,1.004296 -0.367067,1.566284 -0.810586,2.009766 -0.494582,0.494581 -1.149867,0.733202 -2.373047,0.853535 a 0.75,0.75 0 0 0 -0.671836,0.820312 0.75,0.75 0 0 0 0.820312,0.671895 c 1.377014,-0.135466 2.473302,-0.47338 3.285117,-1.285196 0.728079,-0.728016 1.080448,-1.696867 1.238321,-2.871093 0.157874,-1.174225 0.152344,-2.602685 0.152344,-4.488282 V 12 c 0,-1.885616 0.0055,-3.3140627 -0.152344,-4.4882812 C 22.439803,6.3375003 22.087413,5.3686698 21.359355,4.640625 20.631337,3.9125632 19.662486,3.5602321 18.488262,3.4023633 18.253924,3.3708576 18.006183,3.3473136 17.74998,3.3274805 v -0.827461 a 0.75,0.75 0 0 0 -0.75,-0.75 0.75,0.75 0 0 0 -0.75,0.75 v 0.7635352 c -0.675546,-0.012669 -1.411501,-0.013535 -2.25,-0.013535 h -3.99996 c -0.8385076,0 -1.5744551,8.665e-4 -2.2500005,0.013535 V 2.5000195 a 0.75,0.75 0 0 0 -0.75,-0.75 z M 7.0000195,12 C 6.4477401,12 6,12.44772 6,13.00002 c 0,0.552299 0.4477401,0.99996 1.0000195,0.99996 0.5522795,0 0.999961,-0.447661 0.999961,-0.99996 C 7.9999805,12.44772 7.552299,12 7.0000195,12 Z M 12,12 c -0.552299,0 -1.00002,0.44772 -1.00002,1.00002 0,0.552299 0.447721,0.99996 1.00002,0.99996 0.552299,0 1.00002,-0.447661 1.00002,-0.99996 C 13.00002,12.44772 12.552299,12 12,12 Z m 4.99998,0 c -0.552299,0 -0.99996,0.44772 -0.99996,1.00002 0,0.552299 0.447661,0.99996 0.99996,0.99996 C 17.55228,13.99998 18,13.552319 18,13.00002 18,12.44772 17.55228,12 16.99998,12 Z M 7.0000195,16.00002 C 6.4477401,16.00002 6,16.447681 6,16.99998 6,17.55228 6.4477401,18 7.0000195,18 c 0.5522795,0 0.999961,-0.44772 0.999961,-1.00002 0,-0.552299 -0.4476815,-0.99996 -0.999961,-0.99996 z m 4.9999805,0 c -0.552299,0 -1.00002,0.447661 -1.00002,0.99996 C 10.99998,17.55228 11.447701,18 12,18 c 0.552299,0 1.00002,-0.44772 1.00002,-1.00002 0,-0.552299 -0.447721,-0.99996 -1.00002,-0.99996 z m 4.99998,0 c -0.552299,0 -0.99996,0.447661 -0.99996,0.99996 0,0.5523 0.447661,1.00002 0.99996,1.00002 C 17.55228,18 18,17.55228 18,16.99998 18,16.447681 17.55228,16.00002 16.99998,16.00002 Z" />
</svg>
