<?xml version="1.0" encoding="UTF-8" standalone="no"?>
<!-- Uploaded to: SVG Repo, www.svgrepo.com, Generator: SVG Repo Mixer Tools -->

<svg
   width="800px"
   height="800px"
   viewBox="0 0 24 24"
   fill="none"
   version="1.1"
   id="svg2"
   xmlns="http://www.w3.org/2000/svg"
   xmlns:svg="http://www.w3.org/2000/svg">
  <defs
     id="defs2" />
  <path
     id="path2"
     style="fill:currentColor;stroke-linecap:round;-inkscape-stroke:none"
     d="M 18,9.25 A 0.75,0.75 0 0 0 17.25,10 0.75,0.75 0 0 0 18,10.75 h 1 A 0.75,0.75 0 0 0 19.75,10 0.75,0.75 0 0 0 19,9.25 Z m -7.632812,-7 C 9.0324223,2.25 7.8631226,3.1831431 7.5976562,4.4863281 7.5390574,4.7740025 7.2653687,5.0117188 6.9785156,5.0117187 H 6.9609375 6.9453125 C 5.5178916,5.0741329 4.4562782,5.2508672 3.5644531,5.8359375 2.9974003,6.2079356 2.5089544,6.6857069 2.1289063,7.2441406 1.197734,8.6124051 1.25,10.299084 1.25,13.363281 a 0.75,0.75 0 0 0 0.75,0.75 0.75,0.75 0 0 0 0.75,-0.75 C 2.75,10.299084 2.8022743,8.920844 3.3691406,8.0878906 3.6376119,7.6934053 3.9831925,7.3545651 4.3867187,7.0898437 4.9355122,6.729815 5.6778024,6.5680913 7.0117187,6.5097656 l -0.033203,0.00195 c 1.0308457,0 1.8900229,-0.7455981 2.0898438,-1.7265625 C 9.1905326,4.1854031 9.7254547,3.75 10.367188,3.75 h 3.265625 c 0.641665,0 1.176595,0.4353573 1.298828,1.0351562 0.199796,0.9809214 1.058976,1.7265626 2.089843,1.7265625 l -0.0332,-0.00195 c 1.333946,0.058326 2.076063,0.2200003 2.625,0.5800781 0.403477,0.2647383 0.749066,0.6035494 1.017578,0.9980469 C 21.197711,8.9208443 21.25,10.299084 21.25,13.363281 c 0,3.064297 -0.05229,4.442451 -0.619141,5.275391 -0.268519,0.394458 -0.614071,0.733256 -1.017578,0.998047 C 18.759199,20.197015 17.343753,20.25 14.222656,20.25 H 9.7773438 C 6.6563169,20.25 5.2407992,20.197014 4.3867187,19.636719 3.9831626,19.371945 3.6376186,19.033117 3.3691406,18.638672 3.2090127,18.403354 3.0913045,18.143737 3,17.804687 A 0.75,0.75 0 0 0 2.0820313,17.275391 0.75,0.75 0 0 0 1.5527344,18.195312 c 0.1265553,0.46995 0.3131802,0.900628 0.5761719,1.28711 0.3800413,0.558353 0.868524,1.038131 1.4355468,1.410156 C 4.9523705,21.803082 6.6563169,21.75 9.7773438,21.75 h 4.4453122 c 3.121097,0 4.824975,0.05308 6.212891,-0.857422 0.566892,-0.372008 1.055467,-0.851815 1.435547,-1.410156 C 22.802245,18.114163 22.75,16.427578 22.75,13.363281 22.75,10.299084 22.802241,8.6124047 21.871094,7.2441406 21.491007,6.6857191 21.002469,6.2079187 20.435547,5.8359375 19.543685,5.2509163 18.482139,5.0741329 17.054687,5.0117187 h -0.01563 -0.01758 c -0.286931,0 -0.560537,-0.2376732 -0.61914,-0.5253906 C 16.136777,3.183189 14.967545,2.25 13.632813,2.25 Z M 12,9.25 c -2.0621823,0 -3.75,1.687818 -3.75,3.75 0,2.062182 1.6878177,3.75 3.75,3.75 2.062182,0 3.75,-1.687818 3.75,-3.75 0,-2.062182 -1.687818,-3.75 -3.75,-3.75 z m 0,1.5 c 1.251523,0 2.25,0.998477 2.25,2.25 0,1.251523 -0.998477,2.25 -2.25,2.25 -1.251523,0 -2.25,-0.998477 -2.25,-2.25 0,-1.251523 0.998477,-2.25 2.25,-2.25 z" />
</svg>
