<?xml version="1.0" encoding="UTF-8" standalone="no"?>
<!-- Uploaded to: SVG Repo, www.svgrepo.com, Generator: SVG Repo Mixer Tools -->

<svg
   width="800px"
   height="800px"
   viewBox="0 0 16 16"
   fill="none"
   version="1.1"
   id="svg4"
   xmlns="http://www.w3.org/2000/svg"
   xmlns:svg="http://www.w3.org/2000/svg">
  <defs
     id="defs4" />
  <path
     id="path5"
     style="clip-rule:evenodd;fill:currentColor;fill-rule:evenodd;stroke-width:0.034;stroke-dasharray:none"
     d="m 9.6557422,11.803281 c -1.014029,0 -1.8360547,0.822017 -1.8360547,1.836016 v 0.524609 C 7.8196875,15.178005 8.6417132,16 9.6557422,16 h 2.6229688 c 1.013999,0 1.836094,-0.821995 1.836094,-1.836094 v -0.524609 c 0,-1.013999 -0.822095,-1.836016 -1.836094,-1.836016 z m 0,1.573711 h 2.6229688 c 0.1448,0 0.262305,0.117505 0.262305,0.262305 v 0.524609 c 0,0.1449 -0.117505,0.262305 -0.262305,0.262305 H 9.6557422 c -0.1448599,0 -0.2623047,-0.117405 -0.2623047,-0.262305 v -0.524609 c 0,-0.1448 0.1174448,-0.262305 0.2623047,-0.262305 z m 0,-6.8196092 c -1.014028,0 -1.8360547,0.8220267 -1.8360547,1.8360547 v 0.5246094 c 0,1.0140279 0.8220267,1.8360551 1.8360547,1.8360551 h 2.6229688 c 1.013998,0 1.836094,-0.8220272 1.836094,-1.8360551 V 8.3934375 c 0,-1.014028 -0.822096,-1.8360547 -1.836094,-1.8360547 z m 0,1.57375 h 2.6229688 c 0.1448,0 0.262305,0.117445 0.262305,0.2623047 v 0.5246094 c 0,0.1448597 -0.117505,0.2622656 -0.262305,0.2622656 H 9.6557422 c -0.1448597,0 -0.2623047,-0.1174059 -0.2623047,-0.2622656 V 8.3934375 c 0,-0.1448597 0.117445,-0.2623047 0.2623047,-0.2623047 z M 2.8360547,0 C 1.8220167,0 1,0.82202072 1,1.8360547 v 1.8360937 c 0,1.014028 0.8220167,1.8360547 1.8360547,1.8360547 h 7.8688283 c 1.013998,0 1.836133,-0.8220267 1.836133,-1.8360547 V 1.8360547 C 12.541016,0.82202072 11.718881,0 10.704883,0 Z m 0,1.5737891 h 7.8688283 c 0.1449,0 0.262305,0.1173959 0.262305,0.2622656 v 1.8360937 c 0,0.1448597 -0.117405,0.2622657 -0.262305,0.2622657 H 2.8360547 c -0.1448697,0 -0.2622656,-0.117406 -0.2622656,-0.2622657 V 1.8360547 c 0,-0.1448697 0.1173959,-0.2622656 0.2622656,-0.2622656 z m 0.5246094,3.934414 v 8.3933989 c 0,0.434599 0.3522958,0.786914 0.786875,0.786914 h 3.7491796 c -0.049538,-0.166332 -0.077031,-0.342177 -0.077031,-0.52461 v -0.524609 c 0,-0.182388 0.027507,-0.358193 0.077031,-0.524492 H 4.9344141 V 9.4426172 H 7.8967187 C 7.8471813,9.2762937 7.8196875,9.1004654 7.8196875,8.9180469 V 8.3934375 c 0,-0.1824185 0.027494,-0.3582468 0.077031,-0.5245703 H 4.9344141 V 5.5082031 Z" />
</svg>
