<?xml version="1.0" encoding="UTF-8" standalone="no"?>
<!-- Uploaded to: SVG Repo, www.svgrepo.com, Generator: SVG Repo Mixer Tools -->

<svg
   width="24"
   height="24"
   viewBox="0 0 0.72 0.72"
   fill="none"
   version="1.1"
   xmlns="http://www.w3.org/2000/svg"
   xmlns:svg="http://www.w3.org/2000/svg">
  <path
     fill-rule="evenodd"
     clip-rule="evenodd"
     d="m 0.71678066,0.36000004 c 0,0.19704284 -0.15973778,0.35678062 -0.35678062,0.35678062 -0.19704462,0 -0.3567807,-0.15973778 -0.3567807,-0.35678062 0,-0.19704462 0.15973608,-0.3567807 0.3567807,-0.3567807 0.19704284,0 0.35678062,0.15973608 0.35678062,0.3567807 z M 0.25188224,0.251883 c 0.0104496,-0.0104496 0.027392,-0.0104496 0.037843,0 l 0.0702747,0.0702732 0.0702715,-0.0702725 c 0.0104506,-0.0104496 0.0273938,-0.0104496 0.0378436,0 0.0104506,0.0104496 0.0104506,0.0273927 0,0.0378412 l -0.0702749,0.070275 0.0702751,0.0702715 c 0.0104506,0.0104506 0.0104506,0.0273938 0,0.0378436 -0.0104506,0.0104506 -0.0273932,0.0104506 -0.0378436,0 l -0.0702716,-0.0702714 -0.0702751,0.0702715 c -0.0104496,0.0104506 -0.0273922,0.0104506 -0.0378419,0 -0.0104496,-0.0104506 -0.0104496,-0.0273932 0,-0.03784 l 0.0702732,-0.070275 -0.070274,-0.070275 c -0.0104506,-0.0104496 -0.0104506,-0.0273922 0,-0.0378421 z"
     fill="currentColor"
     id="path1"
     style="stroke-width:0.0356779" />
</svg>
