<?xml version="1.0" encoding="UTF-8" standalone="no"?>
<svg
   width="800"
   height="800"
   viewBox="0 0 24 24"
   fill="none"
   version="1.1"
   id="svg1"
   xmlns="http://www.w3.org/2000/svg"
   xmlns:svg="http://www.w3.org/2000/svg">
  <defs
     id="defs1" />
  <path
     d="m 13.594702,20.758701 h -3.188168 c -0.4115803,0 -0.7676741,-0.28641 -0.8557428,-0.688434 L 9.194312,18.420128 C 8.7187583,18.211758 8.2678341,17.951187 7.8498514,17.643231 L 6.2408779,18.155615 C 5.8484881,18.280777 5.4219306,18.115588 5.2161098,17.758846 L 3.6185227,14.998979 C 3.4149617,14.642063 3.4850926,14.191864 3.7875656,13.913776 l 1.248115,-1.138631 c -0.056756,-0.5158 -0.056756,-1.036242 0,-1.552042 L 3.7875656,10.087099 C 3.4846459,9.8088969 3.4144887,9.3581303 3.6185227,9.0010206 L 5.2126064,6.239402 C 5.4184271,5.8826601 5.8449846,5.717506 6.2373744,5.8426328 L 7.8463479,6.3550169 C 8.0601127,6.1966245 8.2826451,6.0504067 8.5128851,5.9170818 8.7339021,5.7924367 8.9613656,5.6795896 9.194312,5.5789959 L 9.551667,3.9306083 C 9.6393154,3.5285576 9.9950238,3.2417277 10.406534,3.2412985 h 3.188168 c 0.411483,4.292e-4 0.767174,0.2872591 0.854849,0.6893098 l 0.360858,1.6492635 c 0.245945,0.1081875 0.485408,0.2304239 0.717338,0.3661137 0.216252,0.125083 0.425323,0.2622268 0.626247,0.4107831 l 1.609849,-0.512384 c 0.392127,-0.1246626 0.818151,0.04043 1.023893,0.3967691 l 1.594083,2.7616186 c 0.203553,0.3568996 0.133395,0.8071231 -0.169043,1.0852027 l -1.248115,1.138632 c 0.05676,0.515799 0.05676,1.036241 0,1.552041 l 1.248115,1.138631 c 0.302438,0.278089 0.372596,0.728287 0.169043,1.085203 l -1.594083,2.761619 c -0.205742,0.356304 -0.631766,0.521405 -1.023893,0.396769 l -1.609849,-0.512384 c -0.203727,0.150037 -0.415425,0.28895 -0.63413,0.416038 -0.229653,0.133045 -0.466488,0.253214 -0.709455,0.359983 l -0.360858,1.64576 c -0.08803,0.401674 -0.443628,0.688084 -0.854849,0.688434 z m -5.4304133,-5.054646 0.7182136,0.525521 c 0.1619046,0.119294 0.3306497,0.228953 0.505377,0.328453 0.1644009,0.09521 0.3336803,0.181743 0.5071288,0.259256 l 0.8172039,0.358231 0.400273,1.831446 h 1.778017 l 0.400273,-1.832321 0.817186,-0.358231 c 0.356742,-0.157307 0.695354,-0.352888 1.009879,-0.583329 l 0.719089,-0.525522 1.787651,0.569314 0.889008,-1.539778 -1.386502,-1.263881 0.0981,-0.886381 c 0.04309,-0.38766 0.04309,-0.778998 0,-1.166659 L 17.127086,10.533793 18.514464,9.2672851 17.62458,7.7266295 15.836929,8.2959451 15.11784,7.770423 C 14.803227,7.5389393 14.464616,7.3419035 14.107961,7.1827141 L 13.290775,6.8244833 12.890502,4.9930388 H 11.112485 L 10.710461,6.8253591 9.8950081,7.1827141 C 9.7214194,7.2589499 9.5521225,7.3446275 9.3878793,7.4393441 9.2142293,7.5386065 9.0463688,7.6476786 8.8851299,7.7660437 L 8.1660405,8.2915658 6.3792654,7.7222502 5.4885054,9.2672851 6.8750079,10.529414 6.7769104,11.41667 c -0.043093,0.38766 -0.043093,0.778999 0,1.166659 l 0.098097,0.886381 -1.3865025,1.26388 0.8890082,1.53978 z m 3.8328253,-0.200574 c -1.934937,0 -3.5034981,-1.568596 -3.5034981,-3.503481 0,-1.93492 1.5685611,-3.5034806 3.5034981,-3.5034806 1.934885,0 3.503481,1.5685606 3.503481,3.5034806 -0.0025,1.933922 -1.569559,3.501029 -3.503481,3.503481 z m 0,-5.255221 c -0.956976,9.63e-4 -1.736062,0.769714 -1.749805,1.726603 -0.01372,0.956888 0.742992,1.747711 1.699618,1.776089 0.956538,0.02838 1.758835,-0.716111 1.801928,-1.672123 V 12.429177 12 c 0,-0.967486 -0.784342,-1.75174 -1.751741,-1.75174 z"
     fill="#fafafa"
     id="path1"
     style="stroke-width:0.87587" />
</svg>
