<?xml version="1.0" encoding="UTF-8" standalone="no"?>
<svg
   width="800"
   height="800"
   viewBox="0 0 24 24"
   fill="none"
   version="1.1"
   id="svg1"
   xmlns="http://www.w3.org/2000/svg"
   xmlns:svg="http://www.w3.org/2000/svg">
  <defs
     id="defs1" />
  <path
     d="m 12,0.390377 c -1.418954,0 -2.5799162,1.1609623 -2.5799162,2.5799162 0,1.418954 1.1609622,2.5799163 2.5799162,2.5799163 1.418954,0 2.579916,-1.1609623 2.579916,-2.5799163 C 14.579916,1.5513393 13.418954,0.390377 12,0.390377 Z m 0,18.059414 c -1.418954,0 -2.5799162,1.160962 -2.5799162,2.579916 0,1.418954 1.1609622,2.579916 2.5799162,2.579916 1.418954,0 2.579916,-1.160962 2.579916,-2.579916 0,-1.418954 -1.160962,-2.579916 -2.579916,-2.579916 z m 0,-9.0297072 c -1.418954,0 -2.5799162,1.1609622 -2.5799162,2.5799162 0,1.418954 1.1609622,2.579916 2.5799162,2.579916 1.418954,0 2.579916,-1.160962 2.579916,-2.579916 0,-1.418954 -1.160962,-2.5799162 -2.579916,-2.5799162 z"
     fill="currentColor"
     id="path1"
     style="stroke-width:1.71994" />
</svg>
