<?xml version="1.0" encoding="UTF-8" standalone="no"?>
<svg
   width="24"
   height="24"
   viewBox="0 0 24 24"
   fill="none"
   version="1.1"
   xmlns="http://www.w3.org/2000/svg"
   xmlns:svg="http://www.w3.org/2000/svg">
  <g
     id="g6"
     transform="matrix(1.0921263,0,0,1.0921263,-1.1056794,-1.1056794)">
    <path
       d="M 14.5299,9.46992 9.46992,14.5299 c -0.65,-0.65 -1.05,-1.54 -1.05,-2.53 0,-1.98 1.59998,-3.57998 3.57998,-3.57998 0.99,0 1.88,0.4 2.53,1.05 z"
       stroke="currentColor"
       stroke-opacity="0.4"
       stroke-width="1.5"
       stroke-linecap="round"
       stroke-linejoin="round"
       id="path1" />
    <path
       d="m 17.8198,5.77047 c -1.75,-1.32 -3.75,-2.04 -5.82,-2.04 -3.52996,0 -6.81996,2.08 -9.10996,5.68 -0.9,1.41003 -0.9,3.78003 0,5.19003 0.79,1.24 1.71,2.31 2.71,3.17"
       stroke="currentColor"
       stroke-opacity="0.4"
       stroke-width="1.5"
       stroke-linecap="round"
       stroke-linejoin="round"
       id="path2" />
    <path
       d="m 8.41992,19.5297 c 1.14,0.48 2.34998,0.74 3.57998,0.74 3.53,0 6.82,-2.08 9.11,-5.68 0.9,-1.41 0.9,-3.78 0,-5.19001 -0.33,-0.52 -0.69,-1.01 -1.06,-1.47"
       stroke="currentColor"
       stroke-opacity="0.4"
       stroke-width="1.5"
       stroke-linecap="round"
       stroke-linejoin="round"
       id="path3" />
    <path
       d="m 15.5104,12.7002 c -0.26,1.41 -1.41,2.56 -2.82,2.82"
       stroke="currentColor"
       stroke-opacity="0.4"
       stroke-width="1.5"
       stroke-linecap="round"
       stroke-linejoin="round"
       id="path4" />
    <path
       d="M 9.47,14.5303 2,22.0003"
       stroke="currentColor"
       stroke-opacity="0.4"
       stroke-width="1.5"
       stroke-linecap="round"
       stroke-linejoin="round"
       id="path5" />
    <path
       d="m 22.0003,2 -7.47,7.47"
       stroke="currentColor"
       stroke-opacity="0.4"
       stroke-width="1.5"
       stroke-linecap="round"
       stroke-linejoin="round"
       id="path6" />
  </g>
</svg>
