<?xml version="1.0" encoding="UTF-8" standalone="no"?>
<svg
   width="24"
   height="24"
   viewBox="0 0 24 24"
   fill="none"
   version="1.1"
   xmlns="http://www.w3.org/2000/svg"
   xmlns:svg="http://www.w3.org/2000/svg">
  <path
     d="m 12.000058,2.2463177 c 5.843539,0 10.705208,4.2049207 11.724937,9.7536823 -1.018717,5.54876 -5.881398,9.753682 -11.724936,9.753682 C 6.1564756,21.753683 1.2948068,17.54876 0.27500525,12 1.2937231,6.4512384 6.1564756,2.2463177 12.000058,2.2463177 Z m 0,17.3398783 c 2.210257,-4.33e-4 4.354911,-0.751249 6.08283,-2.129337 C 19.810951,16.078628 21.01983,14.15477 21.511993,12 21.018096,9.8469362 19.80835,7.9251282 18.080431,6.5488042 16.352657,5.1724802 14.209015,4.4230506 12.000058,4.4230506 c -2.2090431,0 -4.3526852,0.7494296 -6.0805175,2.1257536 C 4.1917227,7.9251282 2.9819338,9.8469362 2.4880073,12 c 0.4921202,2.15477 1.7011144,4.078628 3.4291201,5.456859 1.7279913,1.378088 3.8726305,2.128905 6.0829306,2.129337 z m 0,-2.709356 c -1.293468,0 -2.5339053,-0.513839 -3.4484968,-1.428371 C 7.6369834,14.53379 7.1231738,13.29341 7.1231738,12 c 0,-1.293425 0.5138096,-2.5338627 1.4283874,-3.4484542 0.9145915,-0.9145775 2.1550288,-1.4283871 3.4484968,-1.4283871 1.293411,0 2.53379,0.5138096 3.448469,1.4283871 0.914534,0.9145915 1.428372,2.1550282 1.428372,3.4484542 0,1.29341 -0.513838,2.53379 -1.428372,3.448469 -0.914678,0.914532 -2.155058,1.428371 -3.448469,1.428371 z m 0,-2.167485 c 0.718595,0 1.40771,-0.285385 1.915768,-0.793588 0.508058,-0.508059 0.793588,-1.197175 0.793588,-1.915768 0,-0.718593 -0.28553,-1.407694 -0.793588,-1.915811 -0.508058,-0.5081014 -1.197174,-0.7935447 -1.915768,-0.7935447 -0.718608,0 -1.407753,0.2854433 -1.915854,0.7935447 -0.508102,0.508117 -0.7935453,1.197218 -0.7935453,1.915811 0,0.718593 0.2854433,1.407709 0.7935453,1.915768 0.508101,0.508203 1.197246,0.793588 1.915854,0.793588 z"
     fill="currentColor"
     id="path1"
     style="stroke-width:1.44498" />
</svg>
