<?xml version="1.0" encoding="UTF-8" standalone="no"?>
<svg
   width="800"
   height="800"
   viewBox="0 0 24 24"
   fill="none"
   version="1.1"
   id="svg1"
   xmlns="http://www.w3.org/2000/svg"
   xmlns:svg="http://www.w3.org/2000/svg">
  <defs
     id="defs1" />
  <path
     d="m 12.471509,4.0276485 h 9.778692 c 0.302064,0 0.591727,0.1199905 0.805336,0.3335743 0.213609,0.2135839 0.333575,0.5032722 0.333575,0.8053368 V 21.111266 c 0,0.302064 -0.119966,0.591853 -0.333575,0.805336 -0.213609,0.21361 -0.503272,0.333574 -0.805336,0.333574 H 1.7497992 c -0.302052,0 -0.5917441,-0.119965 -0.80533171,-0.333574 C 0.73087989,21.703119 0.610888,21.41333 0.610888,21.111266 V 2.8887372 c 0,-0.3020646 0.11999189,-0.591753 0.33357949,-0.8053368 C 1.1580551,1.8698154 1.4477472,1.7498235 1.7497992,1.7498235 h 8.4438878 z m -9.5827986,0 V 19.972354 H 21.11129 V 6.3054708 h -9.5828 L 9.2506683,4.0276485 Z M 13.138911,13.138937 v 4.555594 H 10.861088 V 13.138937 H 7.4443552 L 12,8.5832932 16.555645,13.138937 Z"
     fill="currentColor"
     id="path1"
     style="stroke-width:1.26546" />
</svg>
