<?xml version="1.0" encoding="UTF-8" standalone="no"?>
<svg
   width="800"
   height="800"
   viewBox="0 0 24 24"
   fill="none"
   version="1.1"
   id="svg1"
   xmlns="http://www.w3.org/2000/svg"
   xmlns:svg="http://www.w3.org/2000/svg">
  <defs
     id="defs1" />
  <path
     d="m 4.4682326,9.4056995 c 0.275215,0 0.5391649,0.1093295 0.7337836,0.3039367 C 5.3966232,9.904255 5.5059529,10.168205 5.5059529,10.44342 7.1363612,10.44102 8.7197492,10.989537 9.9992809,12 h 2.2518421 c 1.383281,0 2.625433,0.601878 3.480514,1.556581 h 3.264668 c 0.980876,-2.66e-4 1.941804,0.277531 2.771289,0.801119 0.829484,0.523703 1.49351,1.271784 1.915055,2.157421 -2.454208,3.238724 -6.42764,5.343221 -10.912666,5.343221 -2.8952281,0 -5.3442478,-0.625745 -7.3262934,-1.72054 -0.072595,0.200395 -0.2052265,0.373464 -0.3797941,0.495569 -0.1745676,0.12222 -0.3825728,0.187597 -0.5956629,0.187251 H 1.3550709 c -0.2752196,0 -0.53916834,-0.109307 -0.73377893,-0.303937 C 0.42668138,20.322055 0.3173511,20.058128 0.3173511,19.782902 V 10.44342 c 0,-0.275215 0.10933028,-0.539165 0.30394087,-0.7337838 C 0.81590256,9.515029 1.0798513,9.4056995 1.3550709,9.4056995 Z m 1.038758,3.1131605 -0.00104,5.211431 0.046697,0.0332 c 1.8627078,1.307527 4.2888976,2.019404 7.2173324,2.019404 3.117311,0 6.01774,-1.199605 8.130538,-3.248065 l 0.138017,-0.138017 -0.124527,-0.103772 c -0.490037,-0.383722 -1.083958,-0.611559 -1.704976,-0.65376 l -0.212733,-0.0073 h -2.190627 c 0.07472,0.334147 0.115187,0.680745 0.115187,1.037721 v 1.03772 H 7.5813933 v -2.075441 l 7.0461097,-10e-4 -0.03528,-0.08094 C 14.393326,15.134493 14.08743,14.779362 13.705895,14.521085 13.32436,14.262807 12.881022,14.11084 12.421312,14.08063 l -0.170186,-0.0052 H 9.210614 C 8.728397,13.582235 8.1524161,13.190449 7.5165588,12.923133 6.8807015,12.655816 6.1977894,12.518364 5.5080283,12.51886 Z M 3.4305124,11.48114 H 2.3927922 v 7.264041 H 3.4305124 Z M 17.958584,5.2548186 c 0.82568,0 1.617575,0.3279888 2.201351,0.9118217 0.583775,0.5838329 0.91181,1.3756827 0.91181,2.2013389 0,0.8256564 -0.328035,1.6175058 -0.91181,2.2013388 -0.583776,0.583833 -1.375671,0.911822 -2.201351,0.911822 -0.82568,0 -1.61746,-0.327989 -2.20135,-0.911822 -0.583776,-0.583833 -0.911811,-1.3756824 -0.911811,-2.2013388 0,-0.8256562 0.328035,-1.617506 0.911811,-2.2013389 0.58389,-0.5838329 1.37567,-0.9118217 2.20135,-0.9118217 z m 0,2.0754404 c -0.275227,0 -0.539153,0.1093296 -0.733783,0.3039367 -0.194631,0.1946187 -0.303937,0.4585686 -0.303937,0.7337835 0,0.2752266 0.109306,0.5391649 0.303937,0.7337836 0.19463,0.194607 0.458556,0.3039367 0.733783,0.3039367 0.275227,0 0.539153,-0.1093297 0.733783,-0.3039367 0.194631,-0.1946187 0.303938,-0.458557 0.303938,-0.7337836 0,-0.2752149 -0.109307,-0.5391648 -0.303938,-0.7337835 C 18.497737,7.4395886 18.233811,7.330259 17.958584,7.330259 Z m -7.26403,-5.188601 c 0.825657,0 1.617449,0.3279934 2.20134,0.911824 0.583774,0.5838306 0.911809,1.3756804 0.911809,2.2013366 0,0.8256564 -0.328035,1.6175061 -0.911809,2.2013389 -0.583891,0.583833 -1.375683,0.9118217 -2.20134,0.9118217 -0.8256681,0 -1.6175061,-0.3279887 -2.201339,-0.9118217 C 7.909382,6.8723247 7.5813933,6.080475 7.5813933,5.2548186 7.5813933,4.4291624 7.909382,3.6373126 8.493215,3.053482 9.0770479,2.4696514 9.8688859,2.141658 10.694554,2.141658 Z m 0,2.0754404 c -0.275227,0 -0.539165,0.1093296 -0.7337831,0.3039367 -0.1946076,0.1946187 -0.3039372,0.4585686 -0.3039372,0.7337835 0,0.2752149 0.1093296,0.5391648 0.3039372,0.7337835 0.1946181,0.1946071 0.4585561,0.3039368 0.7337831,0.3039368 0.275215,0 0.539165,-0.1093297 0.733772,-0.3039368 0.194619,-0.1946187 0.303949,-0.4585686 0.303949,-0.7337835 0,-0.2752149 -0.10933,-0.5391648 -0.303949,-0.7337835 C 11.233719,4.326428 10.969769,4.2170984 10.694554,4.2170984 Z"
     fill="currentColor"
     id="path1"
     style="stroke-width:1.15302" />
</svg>
