<?xml version="1.0" encoding="UTF-8" standalone="no"?>
<svg
   width="800"
   height="800"
   viewBox="0 0 24 24"
   fill="none"
   version="1.1"
   id="svg6"
   xmlns="http://www.w3.org/2000/svg"
   xmlns:svg="http://www.w3.org/2000/svg">
  <defs
     id="defs6" />
  <path
     id="path1"
     style="color:#000000;fill:#025f68;stroke-width:0.907356;stroke-linecap:round;stroke-linejoin:round;stroke-miterlimit:10;-inkscape-stroke:none"
     d="m 11.993781,1.014248 c -0.606671,8.79e-5 -1.212616,0.1954944 -1.715436,0.586574 L 2.8688412,7.3692695 a 0.68058536,0.68058536 0 0 0 -0.00532,0.00357 C 2.1958319,7.9014743 1.7913377,8.7071886 1.7913377,9.568563 L 1.7409901,21.622917 H 1.4138632 a 0.68051731,0.68051731 0 0 0 -0.68051725,0.680517 0.68051731,0.68051731 0 0 0 0.68051725,0.680518 h 7.9279729 a 0.68058536,0.68058536 0 0 0 0.01143,0.0018 h 5.2934669 a 0.68058536,0.68058536 0 0 0 0.01143,-0.0018 h 7.927973 a 0.68051731,0.68051731 0 0 0 0.680518,-0.680518 0.68051731,0.68051731 0 0 0 -0.680518,-0.680517 H 22.20691 V 9.568563 c 0,-0.8611431 -0.39476,-1.6790905 -1.079258,-2.2099265 l -1.04922,-0.8153449 a 0.68051731,0.68051731 0 0 0 0.01069,-0.125683 l -0.0319,-3.1757298 A 0.68058536,0.68058536 0 0 0 19.376701,2.5684326 H 14.963335 L 13.718148,1.600822 a 0.68058536,0.68058536 0 0 0 -0.0035,-0.00351 C 13.207957,1.2086455 12.60045,1.0141601 11.993781,1.014248 Z m 0.0021,1.3578979 c 0.311685,2.843e-4 0.625026,0.1020469 0.891105,0.3061796 l 1.348222,1.0478371 a 0.68051731,0.68051731 0 0 0 0.144504,0.1123386 l 5.913216,4.5958843 a 0.68058536,0.68058536 0 0 0 0.0018,0 c 0.352971,0.273734 0.551165,0.6827435 0.551165,1.1341775 v 12.054354 h -5.518621 v -3.023304 c 0,-1.244794 -1.023462,-2.268409 -2.268356,-2.268409 h -2.11779 c -1.2448419,0 -2.268356,1.023568 -2.268356,2.268409 v 3.023304 H 3.1020778 L 3.1523728,9.572125 a 0.68058536,0.68058536 0 0 0 0,-0.0035 c 0,-0.429429 0.2087322,-0.8511253 0.5564823,-1.1271059 4.398e-4,-3.493e-4 -4.4e-4,-0.00145 0,-0.00181 l 7.4059419,-5.764902 c 0.259358,-0.2017223 0.569372,-0.3029019 0.881057,-0.3026175 z m 4.718909,1.5573213 h 1.988492 l 0.01547,1.5572149 z M 7.2354762,9.185772 c -0.9534108,0 -1.7385091,0.785088 -1.7385091,1.738509 v 1.587892 c 0,0.953387 0.7850983,1.740263 1.7385091,1.740263 h 2.1177909 c 0.9534209,0 1.7385099,-0.786876 1.7385099,-1.740263 v -1.587892 c 0,-0.953421 -0.785089,-1.738509 -1.7385099,-1.738509 z m 7.4095048,0 c -0.953421,0 -1.73851,0.785088 -1.73851,1.738509 v 1.587892 c 0,0.953387 0.785089,1.740263 1.73851,1.740263 h 2.117737 c 0.953421,0 1.738509,-0.786876 1.738509,-1.740263 v -1.587892 c 0,-0.953421 -0.785088,-1.738509 -1.738509,-1.738509 z m -7.4095048,1.361035 h 2.1177909 c 0.211079,0 0.377475,0.166396 0.377475,0.377474 v 1.587892 c 0,0.210929 -0.166396,0.379229 -0.377475,0.379229 H 7.2354762 c -0.2110337,0 -0.3774745,-0.1683 -0.3774745,-0.379229 v -1.587892 c 0,-0.211078 0.1664408,-0.377474 0.3774745,-0.377474 z m 7.4095048,0 h 2.117737 c 0.211078,0 0.377475,0.166396 0.377475,0.377474 v 1.587892 c 0,0.210929 -0.166397,0.379229 -0.377475,0.379229 h -2.117737 c -0.211079,0 -0.377475,-0.1683 -0.377475,-0.379229 v -1.587892 c 0,-0.211078 0.166396,-0.377474 0.377475,-0.377474 z m -3.703875,7.145431 h 2.11779 c 0.512471,0 0.907321,0.394986 0.907321,0.907375 v 3.023304 h -3.932432 v -3.023304 c 0,-0.512342 0.394979,-0.907375 0.907321,-0.907375 z" />
</svg>
