<?xml version="1.0" encoding="UTF-8" standalone="no"?>
<svg
   width="800"
   height="800"
   viewBox="0 0 24 24"
   fill="none"
   version="1.1"
   id="svg6"
   xmlns="http://www.w3.org/2000/svg"
   xmlns:svg="http://www.w3.org/2000/svg">
  <defs
     id="defs6" />
  <path
     id="path1"
     style="fill:currentColor;stroke-width:0.947524;stroke-linecap:round;stroke-linejoin:round;-inkscape-stroke:none"
     d="m 6.4721572,1.3403511 c -2.2701076,0 -3.8721218,0.2615343 -4.9245359,1.3139499 C 0.49520721,3.7067167 0.23552217,5.3087343 0.23552217,7.5788369 v 8.8423281 c 0,2.270074 0.2596865,3.872121 1.31209913,4.924535 1.0524126,1.052415 2.6544268,1.313949 4.9245359,1.313949 H 17.525992 c 2.270123,0 3.872133,-0.261531 4.924536,-1.313949 1.052403,-1.052417 1.31395,-2.654463 1.31395,-4.924535 V 7.5788369 c 0,-2.2700995 -0.261546,-3.8721168 -1.31395,-4.9245359 C 21.398124,1.6018818 19.796114,1.3403511 17.525992,1.3403511 Z m 0,1.4212866 H 17.525992 c 2.151682,0 3.313905,0.2918122 3.919641,0.8975573 0.605737,0.6057451 0.897559,1.767976 0.897559,3.9196419 v 8.8423281 c 0,2.151635 -0.291821,3.313895 -0.897559,3.919641 -0.605737,0.605747 -1.76796,0.897557 -3.919641,0.897557 H 6.4721572 c -2.1516655,0 -3.3138926,-0.291806 -3.9196419,-0.897557 C 1.9467659,19.735057 1.6568087,18.572797 1.6568087,16.421165 V 7.5788369 c 0,-2.1516628 0.2899586,-3.3138931 0.8957066,-3.9196419 C 3.1582632,3.0534464 4.3204901,2.7616377 6.4721572,2.7616377 Z m 1.6600183,3.7419811 c -1.4890963,-1e-7 -2.7130288,1.2220654 -2.7130288,2.7111786 0,1.4890766 1.2239,2.7111776 2.7130288,2.7111776 1.4891464,0 2.7111785,-1.222114 2.7111785,-2.7111776 0,-1.4891012 -1.2220644,-2.7111787 -2.7111785,-2.7111786 z m 6.0774805,0.3645748 a 0.71064329,0.71064329 0 0 0 -0.710643,0.7106433 0.71064329,0.71064329 0 0 0 0.710643,0.7106429 h 5.527843 A 0.71064329,0.71064329 0 0 0 20.448142,7.5788369 0.71064329,0.71064329 0 0 0 19.737499,6.8681936 Z M 8.1321755,7.9249054 c 0.7210186,0 1.289892,0.5688768 1.289892,1.289892 0,0.7209379 -0.5689057,1.2898916 -1.289892,1.2898916 -0.7209486,0 -1.2917421,-0.5689664 -1.2917421,-1.2898916 0,-0.7210025 0.570761,-1.2898921 1.2917421,-1.289892 z m 7.1841605,3.3644526 a 0.71064329,0.71064329 0 0 0 -0.710644,0.710644 0.71064329,0.71064329 0 0 0 0.710644,0.710642 h 4.421163 a 0.71064329,0.71064329 0 0 0 0.710643,-0.710642 0.71064329,0.71064329 0 0 0 -0.710643,-0.710644 z m -7.1860111,1.737745 c -0.30232,-2.6e-5 -0.6051322,0.01469 -0.9086612,0.04441 -1.9311861,0.186536 -3.4808156,1.707435 -3.6679556,3.645749 a 0.71064329,0.71064329 0 0 0 0.6403193,0.775414 0.71064329,0.71064329 0 0 0 0.7754154,-0.638467 c 0.1223776,-1.26753 1.1145822,-2.243842 2.3891679,-2.366955 a 0.71071436,0.71071436 0 0 0 0.00185,0 c 0.5180136,-0.05075 1.0346261,-0.05228 1.5397279,-0.0019 a 0.71071436,0.71071436 0 0 0 0.00744,0.0019 c 1.2681944,0.113722 2.2630034,1.099074 2.3854664,2.366958 a 0.71064329,0.71064329 0 0 0 0.775416,0.638468 0.71064329,0.71064329 0 0 0 0.638469,-0.775414 c -0.187195,-1.937959 -1.735862,-3.471988 -3.6735158,-3.645743 -0.2989597,-0.02963 -0.6007891,-0.0444 -0.9031097,-0.04441 z m 9.3956671,2.683419 a 0.71064329,0.71064329 0 0 0 -0.710644,0.710643 0.71064329,0.71064329 0 0 0 0.710644,0.710643 h 2.211507 a 0.71064329,0.71064329 0 0 0 0.710643,-0.710643 0.71064329,0.71064329 0 0 0 -0.710643,-0.710643 z" />
</svg>
