<?xml version="1.0" encoding="UTF-8" standalone="no"?>
<svg
   width="800"
   height="800"
   viewBox="0 0 24 24"
   fill="none"
   version="1.1"
   id="svg1"
   xmlns="http://www.w3.org/2000/svg"
   xmlns:svg="http://www.w3.org/2000/svg">
  <defs
     id="defs1" />
  <path
     d="M 15.425782,7.4323083 V 2.8646164 H 4.006552 V 21.135383 H 19.993443 V 7.4323083 Z M 1.722711,1.7133297 c 0,-0.6254875 0.511,-1.1325592 1.140212,-1.1325592 h 13.704782 l 5.70928,5.7096148 3.04e-4,15.9783947 c 0,0.635366 -0.508079,1.150449 -1.13431,1.150449 H 2.857099 c -0.626505,0 -1.134388,-0.519955 -1.134388,-1.132635 z m 9.135379,7.4318631 c 0,0.9459692 -0.766915,1.7128852 -1.712884,1.7128852 -0.946,0 -1.712885,-0.766916 -1.712885,-1.7128852 0,-0.9459995 0.766885,-1.7128845 1.712885,-1.7128845 0.945969,0 1.712884,0.766885 1.712884,1.7128845 z M 18.280559,17.709615 13.712898,9.7161543 7.432321,17.709615 Z"
     fill="currentColor"
     id="path1"
     style="stroke-width:1.52256" />
</svg>
