<?xml version="1.0" encoding="UTF-8" standalone="no"?>
<svg
   width="800"
   height="800"
   viewBox="0 0 24 24"
   fill="none"
   version="1.1"
   id="svg1"
   xmlns="http://www.w3.org/2000/svg"
   xmlns:svg="http://www.w3.org/2000/svg">
  <defs
     id="defs1" />
  <path
     fill-rule="evenodd"
     clip-rule="evenodd"
     d="m 11.999999,23.404196 c 6.298401,0 11.404197,-5.105796 11.404197,-11.404197 0,-6.2983631 -5.105796,-11.40419475 -11.404197,-11.40419475 -6.2983631,0 -11.40419475,5.10583165 -11.40419475,11.40419475 0,6.298401 5.10583165,11.404197 11.40419475,11.404197 z m 2.035969,-5.549556 0.182102,-0.744466 c -0.09415,0.04434 -0.246148,0.09489 -0.454526,0.15236 -0.208925,0.05765 -0.397048,0.08704 -0.562363,0.08704 -0.35198,0 -0.599953,-0.05784 -0.743736,-0.173708 -0.142872,-0.11605 -0.214217,-0.334281 -0.214217,-0.65378 0,-0.126632 0.02153,-0.315486 0.06641,-0.562546 0.04361,-0.248703 0.09379,-0.469671 0.149441,-0.662904 l 0.679872,-2.406923 c 0.0666,-0.220968 0.112218,-0.463831 0.13685,-0.728774 0.025,-0.264486 0.03667,-0.449508 0.03667,-0.554536 0,-0.507532 -0.177906,-0.919415 -0.533716,-1.237127 -0.355994,-0.317492 -0.862833,-0.4762393 -1.519659,-0.4762393 -0.365501,0 -0.751911,0.06494 -1.160857,0.1947113 -0.4089623,0.129441 -0.8364833,0.285378 -1.2837468,0.46748 l -0.1825768,0.745013 c 0.1332746,-0.04928 0.2920204,-0.102312 0.4777548,-0.157213 0.1849115,-0.05467 0.3663205,-0.08294 0.5428206,-0.08294 0.3603552,0 0.6030902,0.06144 0.7302882,0.182449 0.127216,0.121359 0.191116,0.337236 0.191116,0.645842 0,0.170735 -0.02022,0.360319 -0.06215,0.566323 -0.04135,0.207283 -0.09299,0.426609 -0.153728,0.657977 l -0.6827562,2.416595 c -0.06075,0.253994 -0.105124,0.481166 -0.133037,0.682792 -0.0277,0.201627 -0.041,0.399238 -0.041,0.591559 0,0.496674 0.1835071,0.906131 0.5504112,1.22928 0.366887,0.321689 0.881335,0.483721 1.542706,0.483721 0.43064,0 0.808712,-0.0562 1.134051,-0.169513 0.324974,-0.112764 0.761252,-0.276801 1.307559,-0.492478 z M 13.914992,8.0773218 c 0.317493,-0.2944655 0.475509,-0.6526123 0.475509,-1.0719582 0,-0.4184154 -0.157834,-0.7772552 -0.475509,-1.0754796 -0.316945,-0.2974031 -0.698666,-0.44657 -1.145164,-0.44657 -0.447774,0 -0.831229,0.1488202 -1.151055,0.44657 -0.319829,0.2982244 -0.480091,0.6569364 -0.480091,1.0754796 0,0.4193459 0.160262,0.7773644 0.480091,1.0719582 0.32041,0.2955421 0.7031,0.4434135 1.151055,0.4434135 0.446498,0 0.828219,-0.1478714 1.145164,-0.4434135 z"
     fill="currentColor"
     id="path1"
     style="stroke-width:1.82467" />
</svg>
