<?xml version="1.0" encoding="UTF-8" standalone="no"?>
<svg
   width="800"
   height="800"
   viewBox="0 0 24 24"
   fill="none"
   version="1.1"
   id="svg1"
   xmlns="http://www.w3.org/2000/svg"
   xmlns:svg="http://www.w3.org/2000/svg">
  <defs
     id="defs1" />
  <path
     d="m 11.99999,18.295263 c -1.669607,0 -3.270822,-0.663274 -4.4514097,-1.843862 -1.1805877,-1.180588 -1.8438454,-2.781803 -1.8438454,-4.45141 0,-1.669607 0.6632577,-3.270823 1.8438454,-4.4514107 C 8.729168,6.3679926 10.330384,5.7047349 11.99999,5.7047349 c 1.669608,0 3.270823,0.6632577 4.451411,1.8438454 1.180588,1.1805877 1.843862,2.7818027 1.843862,4.4514097 0,1.669607 -0.663274,3.270822 -1.843862,4.45141 -1.180588,1.180588 -2.781803,1.843863 -4.451411,1.843863 z m 0,-2.098435 c 1.113071,0 2.180554,-0.442172 2.967618,-1.22922 0.787047,-0.787064 1.22922,-1.854547 1.22922,-2.967618 0,-1.113071 -0.442172,-2.1805537 -1.22922,-2.967618 -0.787064,-0.7870469 -1.854547,-1.2292186 -2.967618,-1.2292186 -1.113071,0 -2.1805537,0.4421717 -2.967618,1.2292186 -0.7870469,0.7870643 -1.2292186,1.854547 -1.2292186,2.967618 0,1.113071 0.4421717,2.180554 1.2292186,2.967618 0.7870643,0.787047 1.854547,1.22922 2.967618,1.22922 z M 10.950781,0.4586905 h 2.098418 v 3.147626 h -2.098418 z m 0,19.9349905 h 2.098418 v 3.147628 H 10.950781 Z M 3.09745,4.5810318 4.5810318,3.09745 6.8064046,5.3228228 5.3228228,6.8064046 3.09745,4.582081 Z m 14.096127,14.0961432 1.483598,-1.483598 2.225374,2.22539 -1.483582,1.483582 z M 19.418967,3.0964008 20.902549,4.5810318 18.677175,6.8064046 17.193577,5.3228228 19.418967,3.09745 Z M 5.3228228,17.193576 6.8064046,18.677175 4.5810318,20.902549 3.09745,19.418966 Z M 23.541309,10.950781 v 2.098418 h -3.147628 v -2.098418 z m -19.9349925,0 v 2.098418 h -3.147626 v -2.098418 z"
     fill="currentColor"
     id="path1"
     style="stroke-width:1.74868" />
</svg>
