<?xml version="1.0" encoding="UTF-8" standalone="no"?>
<svg
   width="800"
   height="800"
   viewBox="0 0 24 24"
   fill="none"
   version="1.1"
   id="svg2"
   xmlns="http://www.w3.org/2000/svg"
   xmlns:svg="http://www.w3.org/2000/svg">
  <defs
     id="defs2" />
  <path
     id="path4"
     style="fill:currentColor;stroke-width:0.682907"
     d="m 3.4777694,2.439302 c -0.5883222,0 -1.0652542,0.4756003 -1.0652542,1.0622931 V 20.498365 c 0,0.586751 0.476932,1.062333 1.0652542,1.062333 H 20.521875 c 0.588322,0 1.065254,-0.475582 1.065254,-1.062333 0,-0.586684 -0.476932,-1.062253 -1.065254,-1.062253 H 4.5430234 V 3.5015951 c 0,-0.5866928 -0.4769318,-1.0622931 -1.065254,-1.0622931 z M 20.499668,6.1582081 C 20.192777,6.1648481 19.891112,6.3030083 19.686062,6.56203 L 15.578179,11.750932 12.425272,9.0679501 C 11.992446,8.6996389 11.345795,8.7355626 10.956676,9.1494987 L 6.961953,13.398671 c -0.4023814,0.428044 -0.380629,1.100293 0.048577,1.501568 0.4292059,0.401274 1.1033074,0.37956 1.5056887,-0.04842 l 3.2994393,-3.509673 3.221371,2.741323 c 0.459664,0.391169 1.153179,0.3231 1.527617,-0.149813 l 4.793642,-6.0551277 c 0.364536,-0.4604829 0.28576,-1.1284995 -0.176021,-1.492044 -0.20203,-0.1590477 -0.443908,-0.23344 -0.682599,-0.2282802 z" />
</svg>
