<?xml version="1.0" encoding="UTF-8" standalone="no"?>
<svg
   width="24"
   height="24"
   viewBox="0 0 24 24"
   fill="none"
   version="1.1"
   xmlns="http://www.w3.org/2000/svg"
   xmlns:svg="http://www.w3.org/2000/svg">
  <path
     d="M 0.4962692,7.0130344 11.398698,0.47652868 c 0.183254,-0.10994113 0.392895,-0.16801645 0.606579,-0.16801645 0.213684,0 0.423438,0.0580753 0.60658,0.16801645 L 23.503675,7.0142134 c 0.08747,0.052371 0.159786,0.1264924 0.209978,0.2151325 0.05019,0.08864 0.07658,0.1887897 0.07658,0.2906685 V 22.512464 c 0,0.312722 -0.124191,0.612643 -0.345286,0.833738 -0.221207,0.221095 -0.521016,0.345286 -0.833738,0.345286 H 1.3887899 c -0.3126995,0 -0.61258686,-0.124191 -0.83369304,-0.345286 C 0.33397944,23.125107 0.20976652,22.825186 0.20976652,22.512464 V 7.5188354 C 0.20974406,7.4169566 0.23613173,7.3168182 0.28633567,7.2281669 0.33655084,7.1395268 0.4088755,7.0654055 0.4962692,7.0130344 Z M 19.482082,8.6518657 12.071864,15.06463 4.5096648,8.6447915 2.9840085,10.441623 l 9.1020035,7.728554 8.938233,-7.734393 z"
     fill="currentColor"
     id="path1"
     style="stroke-width:1.12288" />
</svg>
