<?xml version="1.0" encoding="UTF-8" standalone="no"?>
<svg
   width="800"
   height="800"
   viewBox="0 0 24 24"
   fill="none"
   version="1.1"
   id="svg1"
   xmlns="http://www.w3.org/2000/svg"
   xmlns:svg="http://www.w3.org/2000/svg">
  <defs
     id="defs1" />
  <path
     d="M 21.658865,4.0050325 C 21.518166,3.6895257 21.258,3.4427214 20.935562,3.3187582 20.613124,3.1947948 20.254601,3.2037957 19.938807,3.3437865 L 9.2561529,8.0914841 H 6.1374899 C 5.1155709,8.0914645 4.134292,8.4917042 3.4039153,9.206454 2.6735366,9.9212301 2.2521606,10.893558 2.2300747,11.915262 c -0.022086,1.021705 0.3568754,2.01136 1.055685,2.757006 0.6988105,0.745645 1.66187,1.187938 2.6828381,1.232037 l 2.7744492,0.0027 v 4.560962 h 1.302785 v -4.209134 l 9.893626,4.397357 c 0.198348,0.088 0.415522,0.125066 0.631848,0.107804 0.216326,-0.01719 0.424901,-0.0882 0.606834,-0.206489 0.181933,-0.118292 0.331426,-0.280163 0.434933,-0.470889 0.103505,-0.190728 0.157701,-0.404252 0.157766,-0.621296 V 4.5339672 C 21.770513,4.3518062 21.732406,4.1716904 21.658865,4.0050325 Z M 6.0179014,14.60283 C 5.3379487,14.571563 4.6972357,14.275441 4.2328081,13.77778 3.7683741,13.280183 3.5170942,12.620586 3.532721,11.94008 3.5483479,11.259639 3.8296307,10.612289 4.3164075,10.136515 4.8031907,9.6607395 5.4568143,9.3943213 6.1374899,9.3942561 H 8.743047 V 14.605369 H 6.1521201 Z M 20.46806,19.46532 10.045832,14.833747 V 9.1662112 L 20.46806,4.5339672 Z"
     fill="currentColor"
     id="path1"
     style="stroke-width:0.651389" />
</svg>
