<?xml version="1.0" encoding="UTF-8" standalone="no"?> <!-- Uploaded to: SVG Repo, www.svgrepo.com, Generator: SVG Repo Mixer Tools --> <svg width="24" height="24" viewBox="0 0 0.72 0.72" fill="none" version="1.1" xmlns="http://www.w3.org/2000/svg" xmlns:svg="http://www.w3.org/2000/svg"> <g id="g3" transform="matrix(1.0477943,0,0,1.0477943,-0.01720595,-0.01720594)"> <path d="m 0.695783,0.62163098 c 0,0.0184546 -0.0149625,0.0334171 -0.0334171,0.0334171 H 0.39341712 C 0.37496249,0.6550481 0.36,0.64008561 0.36,0.62163098 c 0,-0.0184546 0.0149625,-0.0334171 0.0334171,-0.0334171 h 0.26894876 c 0.0184546,0 0.0334171,0.0149625 0.0334171,0.0334171 z" fill="currentColor" id="path1" style="stroke-width:0.0335783" /> <path d="m 0.695783,0.36000672 c 0,0.018458 -0.0149625,0.0334171 -0.0334171,0.0334171 H 0.05763379 c -0.01845564,0 -0.03341679,-0.0149591 -0.03341679,-0.0334171 0,-0.0184546 0.01496115,-0.0334138 0.03341679,-0.0334138 h 0.60473209 c 0.0184546,0 0.0334171,0.0149591 0.0334171,0.0334138 z" fill="currentColor" id="path2" style="stroke-width:0.0335783" /> <path d="m 0.66236588,0.13178581 c 0.0184546,0 0.0334171,-0.0149615 0.0334171,-0.0334171 0,-0.0184556 -0.0149625,-0.0334168 -0.0334171,-0.0334168 H 0.25910359 c -0.0184556,0 -0.0334168,0.0149612 -0.0334168,0.0334168 0,0.0184556 0.0149612,0.0334171 0.0334168,0.0334171 z" fill="currentColor" id="path3" style="stroke-width:0.0335783" /> </g> </svg>
