<svg width="25" height="26" viewBox="0 0 25 26" fill="none" xmlns="http://www.w3.org/2000/svg">
<path d="M9.89648 14.8229C9.89648 15.8333 10.6777 16.6458 11.6361 16.6458H13.5944C14.4277 16.6458 15.1048 15.9375 15.1048 15.0521C15.1048 14.1042 14.6882 13.7604 14.0736 13.5417L10.9382 12.4479C10.3236 12.2292 9.90691 11.8958 9.90691 10.9375C9.90691 10.0625 10.584 9.34375 11.4173 9.34375H13.3756C14.334 9.34375 15.1152 10.1563 15.1152 11.1667" stroke="#292D32" stroke-width="1.5" stroke-linecap="round" stroke-linejoin="round"/>
<path d="M12.5 8.3125V17.6875" stroke="#292D32" stroke-width="1.5" stroke-linecap="round" stroke-linejoin="round"/>
<path d="M17.709 3.625V7.79167H21.8757" stroke="#292D32" stroke-width="1.5" stroke-linecap="round" stroke-linejoin="round"/>
<path d="M22.9173 2.58301L17.709 7.79134" stroke="#292D32" stroke-width="1.5" stroke-linecap="round" stroke-linejoin="round"/>
<path d="M12.5007 2.58301C6.75065 2.58301 2.08398 7.24967 2.08398 12.9997C2.08398 17.1038 4.45899 20.6559 7.91732 22.3538" stroke="currentColor" stroke-width="1.5" stroke-linecap="round" stroke-linejoin="round"/>
<path d="M22.9167 13C22.9167 18.75 18.25 23.4167 12.5 23.4167" stroke="currentColor" stroke-width="1.5" stroke-linecap="round" stroke-linejoin="round"/>
</svg>
