<?xml version="1.0" encoding="UTF-8" standalone="no"?>
<svg
   width="800"
   height="800"
   viewBox="0 0 24 24"
   fill="none"
   version="1.1"
   id="svg5"
   xmlns="http://www.w3.org/2000/svg"
   xmlns:svg="http://www.w3.org/2000/svg">
  <defs
     id="defs5" />
  <path
     id="path1"
     style="color:currentColor;fill:currentColor;stroke-linecap:round;stroke-linejoin:round;-inkscape-stroke:none"
     d="m 11.999004,0.83399565 c -6.1557562,0 -11.1659765,5.01022215 -11.1659765,11.16603535 0,6.155784 5.0102256,11.165976 11.1659765,11.165976 6.155778,0 11.167968,-5.010189 11.167968,-11.165976 a 0.75,0.75 0 0 0 -0.75,-0.75 0.75,0.75 0 0 0 -0.75,0.75 c 0,5.344189 -4.323771,9.665976 -9.667968,9.665976 -5.3441657,0 -9.6659765,-4.321785 -9.6659765,-9.665976 0,-5.3442243 4.321816,-9.6660354 9.6659765,-9.6660354 a 0.75,0.75 0 0 0 0.75,-0.75 0.75,0.75 0 0 0 -0.75,-0.74999995 z m 6.250019,0 a 0.75,0.75 0 0 0 -0.75,0.74999995 0.75,0.75 0 0 0 0.75,0.7500001 h 2.355469 l -3.927715,3.9277147 a 0.75,0.75 0 0 0 0,1.0605469 0.75,0.75 0 0 0 1.06248,0 l 3.925782,-3.9272461 v 2.355 a 0.75,0.75 0 0 0 0.75,0.75 0.75,0.75 0 0 0 0.75,-0.75 V 1.5839956 a 0.750075,0.750075 0 0 0 -1.76e-4,-0.00135 0.75,0.75 0 0 0 -0.218555,-0.5299219 0.75,0.75 0 0 0 -0.04037,-0.029355 0.750075,0.750075 0 0 0 -0.131133,-0.095215 0.75,0.75 0 0 0 -0.08226,-0.034043 0.750075,0.750075 0 0 0 -0.121992,-0.039668 0.75,0.75 0 0 0 -0.09182,-0.01207 0.750075,0.750075 0 0 0 -0.06369,-0.00838 z M 11.999004,6.5625307 a 0.75,0.75 0 0 0 -0.75,0.75 v 0.28125 h -0.331993 c -1.2645635,0 -2.2617178,1.0818384 -2.2617178,2.3437506 0,0.5878297 0.1405003,1.1078897 0.4453123,1.4960737 0.304812,0.388182 0.715636,0.588941 1.0859175,0.720703 a 0.750075,0.750075 0 0 0 0.0039,0.002 l 1.058555,0.369316 v 2.370879 h -0.113262 c -0.534516,0 -0.990235,-0.45038 -0.990235,-1.074199 a 0.75,0.75 0 0 0 -0.7499995,-0.75 0.75,0.75 0 0 0 -0.7499995,0.75 c 0,1.396977 1.1079535,2.574199 2.490234,2.574199 h 0.113262 v 0.291036 a 0.75,0.75 0 0 0 0.75,0.75 0.75,0.75 0 0 0 0.75,-0.75 v -0.291036 h 0.343769 c 1.258295,0 2.261719,-1.075982 2.261719,-2.34375 0,-0.583849 -0.142266,-1.102129 -0.445313,-1.490214 -0.303045,-0.388086 -0.712162,-0.593544 -1.085918,-0.726563 a 0.750075,0.750075 0 0 0 -0.0039,-0.002 L 12.749003,11.460734 V 9.0936633 h 0.125039 c 0.534489,0 0.990233,0.448447 0.990234,1.0722657 a 0.75,0.75 0 0 0 0.75,0.75 0.75,0.75 0 0 0 0.75,-0.75 c 0,-1.3969769 -1.107928,-2.5722654 -2.490234,-2.5722654 H 12.749004 V 7.3125307 a 0.75,0.75 0 0 0 -0.75,-0.75 z m -1.081993,2.5311326 h 0.331993 v 1.8439457 l -0.560508,-0.195469 -0.0039,-0.002 c -0.239525,-0.08591 -0.347687,-0.160351 -0.404297,-0.232442 -0.05714,-0.07277 -0.12498,-0.199825 -0.12498,-0.5702927 0,-0.488084 0.359687,-0.84375 0.761718,-0.84375 z m 1.831993,3.9553127 0.576211,0.201035 c 0.236054,0.0847 0.343922,0.159611 0.402305,0.234375 0.05893,0.07546 0.126972,0.204312 0.126972,0.568359 0,0.50303 -0.353415,0.84375 -0.761718,0.84375 h -0.34377 z" />
</svg>
