<?xml version="1.0" encoding="UTF-8" standalone="no"?>
<svg
   width="800"
   height="800"
   viewBox="0 0 24 24"
   fill="none"
   version="1.1"
   id="svg6"
   xmlns="http://www.w3.org/2000/svg"
   xmlns:svg="http://www.w3.org/2000/svg">
  <defs
     id="defs6" />
  <g
     id="g6"
     transform="matrix(2.1261674,0,0,2.1261674,-0.7570044,-1.8200881)">
    <path
       d="M 8.78,9.485 H 3.22 C 1.23,9.485 0.625,8.88 0.625,6.89 V 3.72 C 0.625,1.73 1.23,1.125 3.22,1.125 H 4 c 0.205,0 0.375,0.17 0.375,0.375 0,0.205 -0.17,0.375 -0.375,0.375 H 3.22 C 1.65,1.875 1.375,2.15 1.375,3.72 v 3.165 c 0,1.57 0.275,1.845 1.845,1.845 h 5.555 c 1.57,0 1.845,-0.275 1.845,-1.845 V 6.44 c 0,-0.205 0.17,-0.375 0.375,-0.375 0.205,0 0.375,0.17 0.375,0.375 v 0.445 c 0.005,1.995 -0.6,2.6 -2.59,2.6 z"
       fill="currentColor"
       id="path1" />
    <path
       d="m 6,11.8744 c -0.205,0 -0.375,-0.17 -0.375,-0.375 V 9.10938 c 0,-0.205 0.17,-0.375 0.375,-0.375 0.205,0 0.375,0.17 0.375,0.375 v 2.39002 c 0,0.205 -0.17,0.375 -0.375,0.375 z"
       fill="currentColor"
       id="path2" />
    <path
       d="M 11,7.375 H 1 C 0.795,7.375 0.625,7.205 0.625,7 0.625,6.795 0.795,6.625 1,6.625 h 10 c 0.205,0 0.375,0.17 0.375,0.375 0,0.205 -0.17,0.375 -0.375,0.375 z"
       fill="currentColor"
       id="path3" />
    <path
       d="m 8.25,11.875 h -4.5 c -0.205,0 -0.375,-0.17 -0.375,-0.375 0,-0.205 0.17,-0.375 0.375,-0.375 h 4.5 c 0.205,0 0.375,0.17 0.375,0.375 0,0.205 -0.17,0.375 -0.375,0.375 z"
       fill="currentColor"
       id="path4" />
    <path
       d="m 8.93086,5.56086 h -2.38 c -0.785,0 -1.295,-0.51 -1.295,-1.295 v -1.76 c 0,-0.76 0.615,-1.375 1.375,-1.375 h 2.3 c 0.715,0 1.29504,0.58 1.29504,1.295 v 1.84 c 0,0.715 -0.58004,1.295 -1.29504,1.295 z m -2.3,-3.68 c -0.345,0 -0.625,0.28 -0.625,0.625 v 1.76 c 0,0.49 0.31,0.545 0.545,0.545 h 2.38 c 0.3,0 0.545,-0.245 0.545,-0.545 v -1.84 c 0,-0.3 -0.245,-0.545 -0.545,-0.545 z"
       fill="currentColor"
       id="path5" />
    <path
       d="m 10.7246,4.93388 c -0.16,0 -0.325,-0.055 -0.485,-0.17 l -0.60499,-0.425 c -0.1,-0.07 -0.16,-0.185 -0.16,-0.305 v -1.38 c 0,-0.12 0.06,-0.235 0.16,-0.305 l 0.60499,-0.425 c 0.26,-0.185 0.54,-0.22 0.77,-0.1 0.23,0.12 0.36,0.37 0.36,0.69 v 1.665 c 0,0.32 -0.13,0.57 -0.36,0.69 -0.085,0.045 -0.18,0.065 -0.285,0.065 z m -0.5,-1.095 0.4,0.28 v -1.55 l -0.4,0.28 z"
       fill="currentColor"
       id="path6" />
  </g>
</svg>
