<?xml version="1.0" encoding="UTF-8" standalone="no"?>
<!-- Uploaded to: SVG Repo, www.svgrepo.com, Generator: SVG Repo Mixer Tools -->

<svg
   fill="currentColor"
   width="800"
   height="800"
   viewBox="0 0 24 24"
   version="1.1"
   id="svg1"
   xmlns="http://www.w3.org/2000/svg"
   xmlns:svg="http://www.w3.org/2000/svg">
  <defs
     id="defs1" />
  <path
     d="M 12,0.43884425 C 5.6133935,0.43884425 0.43884425,5.6133935 0.43884425,12 0.43884425,18.386607 5.6133935,23.561156 12,23.561156 18.386607,23.561156 23.561156,18.386607 23.561156,12 23.561156,5.6133935 18.386607,0.43884425 12,0.43884425 Z M 12,21.323512 C 6.848759,21.323512 2.6764874,17.15124 2.6764874,12 2.6764874,6.848759 6.848759,2.6764874 12,2.6764874 c 5.15124,0 9.323512,4.1722716 9.323512,9.3235126 0,5.15124 -4.172272,9.323512 -9.323512,9.323512 z M 16.475285,8.270595 v 7.45881 c 0,0.410234 -0.335646,0.74588 -0.74588,0.74588 h -2.237642 c -0.410234,0 -0.745881,-0.335646 -0.745881,-0.74588 v -7.45881 c 0,-0.4102349 0.335647,-0.7458812 0.745881,-0.7458812 h 2.237642 c 0.410234,0 0.74588,0.3356463 0.74588,0.7458812 z m -5.221166,0 v 7.45881 c 0,0.410234 -0.335646,0.74588 -0.745881,0.74588 H 8.270595 c -0.4102349,0 -0.7458812,-0.335646 -0.7458812,-0.74588 v -7.45881 c 0,-0.4102349 0.3356463,-0.7458812 0.7458812,-0.7458812 h 2.237643 c 0.410235,0 0.745881,0.3356463 0.745881,0.7458812 z"
     id="path1"
     style="stroke-width:0.0466176" />
</svg>
