<?xml version="1.0" encoding="UTF-8" standalone="no"?>
<!-- Uploaded to: SVG Repo, www.svgrepo.com, Generator: SVG Repo Mixer Tools -->

<svg
   width="800px"
   height="800px"
   viewBox="0 0 24 24"
   fill="none"
   version="1.1"
   id="svg6"
   xmlns="http://www.w3.org/2000/svg"
   xmlns:svg="http://www.w3.org/2000/svg">
  <defs
     id="defs6" />
  <path
     id="path7"
     style="fill:currentColor;stroke-linecap:round;stroke-linejoin:round"
     d="m 12.003926,16.203105 c -1.184679,4.3e-5 -2.3703859,0.316721 -3.3281252,0.951211 a 0.750075,0.750075 0 0 0 -0.00199,0.002 c -0.8622843,0.574856 -1.3906055,1.429692 -1.3906055,2.333964 0,0.904274 0.5283212,1.759109 1.3906055,2.333965 1.9145122,1.280306 4.7378932,1.280314 6.6523822,0 0.862285,-0.574856 1.390606,-1.429691 1.390606,-2.333965 0,-0.904272 -0.528321,-1.759108 -1.390606,-2.333964 -0.9538,-0.635867 -2.137585,-0.953188 -3.322265,-0.953145 z m 0,1.564454 c 0.927824,4.3e-5 1.854037,0.212606 2.490234,0.636738 0.547713,0.365142 0.722637,0.750193 0.722637,1.085918 0,0.335726 -0.174924,0.720835 -0.722637,1.085976 a 0.750075,0.750075 0 0 0 -0.002,0 c -1.285506,0.859682 -3.698853,0.85969 -4.9843946,0 a 0.750075,0.750075 0 0 0 -0.00193,0 C 8.9581709,20.21105 8.7832031,19.825941 8.7832031,19.490215 c 0,-0.335725 0.1749239,-0.720776 0.7226367,-1.085918 0.6422372,-0.424883 1.5709432,-0.636781 2.4980862,-0.636738 z m -0.09375,-9.0468754 c -1.832103,0 -3.3301174,1.4980104 -3.3301174,3.3301174 0,1.792866 1.4289474,3.263843 3.2031444,3.328125 0.04051,6.78e-4 0.08102,-0.0019 0.121113,-0.0078 0.0388,0.0057 0.07798,0.0083 0.117188,0.0078 1.78098,-0.05162 3.205945,-1.534345 3.21873,-3.324258 4e-6,-0.0013 4e-6,-0.0026 0,-0.0039 0,-1.824925 -1.494459,-3.3301174 -3.330058,-3.3301174 z m 0,1.5000004 c 1.023461,0 1.826663,0.814344 1.828125,1.828125 -0.0095,0.992917 -0.760102,1.778551 -1.717031,1.828711 -0.07733,-0.0074 -0.151296,-0.0077 -0.228516,-4.69e-4 -0.963887,-0.05795 -1.712695,-0.834714 -1.712695,-1.82625 0,-1.027885 0.802229,-1.830117 1.830117,-1.830117 z M 5.9820117,8.7466992 C 5.5862533,8.744974 5.1903395,8.776882 4.8027539,8.8437305 4.0275827,8.9774275 3.2842935,9.2512575 2.6445117,9.6757617 1.7822281,10.250617 1.2519727,11.105513 1.2519727,12.009785 c 0,0.904271 0.5302554,1.759109 1.392539,2.333965 1.2685045,0.848967 2.9383484,1.094856 4.4804883,0.835957 0.4081682,-0.0687 0.6835154,-0.455081 0.6152344,-0.86332 C 7.6715616,13.907331 7.2839026,13.631688 6.8749805,13.701152 5.6777401,13.902149 4.3278472,13.667852 3.476543,13.097637 v -5.9e-5 -2.93e-4 -4.1e-4 -2.93e-4 -4.1e-4 -2.93e-4 -2.34e-4 C 2.9288308,12.73055 2.7519727,12.345509 2.7519727,12.009785 c 0,-0.335725 0.1768581,-0.720835 0.7245703,-1.085976 0.8605505,-0.569985 2.2319514,-0.804467 3.4238672,-0.595664 0.4083489,0.07206 0.7976819,-0.200917 0.869121,-0.6093755 C 7.840404,9.3111001 7.5677215,8.9230519 7.1601562,8.851582 6.7733583,8.7838218 6.3777701,8.7484244 5.9820117,8.7466992 Z m 0.078516,-7.4967187 c -1.8355889,0 -3.3300586,1.5051931 -3.3300585,3.3301172 -7.7e-6,0.00195 -7.7e-6,0.00391 0,0.00586 0.012785,1.7899394 1.4386728,3.2599168 3.212871,3.3241992 0.04116,7.835e-4 0.082315,-0.00182 0.1230469,-0.00779 0.040094,0.00586 0.080598,0.00847 0.1211133,0.00779 1.7741983,-0.064282 3.2031445,-1.5372067 3.2031445,-3.3300585 0,-1.8320924 -1.4980248,-3.3301172 -3.3301172,-3.3301179 z m 0,1.5 c 1.027899,0 1.8301172,0.8022182 1.8301172,1.8301172 0,0.9914494 -0.7486573,1.7681655 -1.7124023,1.82625 -0.076278,-0.00712 -0.1493093,-0.00712 -0.225586,0 C 4.9904246,6.3482469 4.2418645,5.5701552 4.2324023,4.5781055 c 0.00146,-1.0137788 0.804655,-1.828125 1.828125,-1.828125 z M 17.988691,8.7466992 c -0.395758,0.00172 -0.791346,0.037124 -1.178144,0.1048828 -0.407565,0.07147 -0.680248,0.4595181 -0.609375,0.8671875 0.07147,0.4075655 0.459518,0.6802475 0.867187,0.6093755 1.192801,-0.208958 2.567304,0.02675 3.427735,0.597656 0.545035,0.364466 0.720703,0.748956 0.720703,1.083984 0,0.335724 -0.174925,0.720777 -0.722637,1.085918 -6.65e-4,6.63e-4 -0.0013,0.0013 -0.002,0.002 -0.851303,0.570214 -2.201197,0.804513 -3.398438,0.603516 -0.408239,-0.06828 -0.794616,0.207066 -0.86332,0.615234 -0.06824,0.408219 0.207093,0.794558 0.615235,0.863262 1.542139,0.258899 3.211983,0.01307 4.480488,-0.835898 0.862283,-0.574856 1.390605,-1.429753 1.390605,-2.334024 0,-0.904272 -0.528322,-1.759109 -1.390605,-2.3339647 -6.64e-4,-9e-7 -0.0013,-9e-7 -0.002,0 C 20.684452,9.2512716 19.943121,8.9774275 19.167949,8.8437305 18.780363,8.776882 18.38445,8.7449743 17.988691,8.7466992 Z m -0.07851,-7.4967187 c -1.832093,0 -3.330117,1.4980248 -3.330117,3.3301172 0,1.7928518 1.428946,3.2657761 3.203144,3.3300585 0.04116,7.835e-4 0.08232,-0.00182 0.123047,-0.00779 0.04009,0.00586 0.0806,0.00847 0.121113,0.00779 1.774199,-0.064283 3.200086,-1.5342598 3.212871,-3.3241992 8e-6,-0.00195 8e-6,-0.00391 0,-0.00586 0,-1.8249235 -1.494469,-3.3301172 -3.330058,-3.3301165 z m 0,1.5 c 1.02347,0 1.82666,0.8143462 1.828125,1.828125 -0.0095,0.9920507 -0.758021,1.7701415 -1.720254,1.8282422 -0.07628,-0.00712 -0.149308,-0.00712 -0.225586,0 -0.963746,-0.058085 -1.712402,-0.8348006 -1.712402,-1.82625 0,-1.027899 0.802218,-1.8301172 1.830117,-1.8301172 z" />
</svg>
