<?xml version="1.0" encoding="UTF-8" standalone="no"?>
<svg
   width="800"
   height="800"
   viewBox="0 0 24 24"
   fill="none"
   version="1.1"
   id="svg4"
   xmlns="http://www.w3.org/2000/svg"
   xmlns:svg="http://www.w3.org/2000/svg">
  <defs
     id="defs4" />
  <path
     id="path1"
     style="color:currentColor;fill:currentColor;stroke-width:1.03075;stroke-linecap:round;stroke-linejoin:round;-inkscape-stroke:none"
     d="m 8.7779158,0.4906951 c -2.7872839,0 -4.9069836,0.5605197 -6.3173395,1.970877 C 1.0502204,3.8719295 0.48969925,5.9916123 0.48969925,8.7789118 v 6.4421772 c 0,2.787284 0.56051985,4.906994 1.97087705,6.317339 1.4103572,1.410346 3.5300571,1.970877 6.3173395,1.970877 h 6.4421772 c 2.787332,0 4.908971,-0.560529 6.319332,-1.970877 1.410361,-1.410346 1.970876,-3.530058 1.970876,-6.317339 V 8.7789118 c 0,-2.7872975 -0.560516,-4.9069807 -1.970876,-6.3173397 -1.41036,-1.4103589 -3.531999,-1.970877 -6.319332,-1.970877 z m 0,1.5461175 h 6.4421772 c 2.581187,0 4.218742,0.5124707 5.224185,1.517913 1.005445,1.0054424 1.519906,2.6430342 1.519906,5.2241862 v 6.4421772 c 0,2.581134 -0.514463,4.218754 -1.519906,5.224185 -1.005441,1.005432 -2.642995,1.517914 -5.224185,1.517914 H 8.7779158 c -2.5811357,0 -4.2187446,-0.512481 -5.224186,-1.517914 C 2.5482883,19.439842 2.0358167,17.802222 2.0358167,15.221089 V 8.7789118 c 0,-2.5811501 0.5124703,-4.2187424 1.5179131,-5.2241862 1.0054428,-1.0054439 2.6430517,-1.517913 5.224186,-1.517913 z m -0.022161,4.7994266 c -1.1471615,0 -2.0936603,0.9445034 -2.0936603,2.0916673 0,1.1471645 0.9465279,2.0937215 2.0936603,2.0937215 1.147128,0 2.0937212,-0.946593 2.0937212,-2.0937215 0,-1.1471275 -0.9465642,-2.0916673 -2.0937212,-2.0916673 z M 15.217682,7.7236261 A 0.77305876,0.77305876 0 0 0 14.791287,7.9414716 L 7.7693158,14.963382 a 0.77305876,0.77305876 0 0 0 0,1.095207 0.77305876,0.77305876 0 0 0 1.0951465,0 L 15.886433,9.0366181 a 0.77305876,0.77305876 0 0 0 0,-1.0951465 0.77305876,0.77305876 0 0 0 -0.668756,-0.2178455 z M 8.7557547,8.3823567 c 0.3115499,0 0.5476039,0.2339709 0.5476039,0.5455498 0,0.3115798 -0.2360241,0.5476039 -0.5476039,0.5476039 -0.3115956,0 -0.5475427,-0.2360602 -0.5475427,-0.5476039 0,-0.3115425 0.2359761,-0.5455498 0.5475427,-0.5455498 z m 7.0219723,4.5940223 c -1.147202,0 -2.093722,0.948513 -2.093722,2.095714 0,1.147201 0.946593,2.091728 2.093722,2.091728 1.147127,0 2.09372,-0.9446 2.09372,-2.091728 0,-1.147128 -0.94652,-2.095714 -2.09372,-2.095714 z m 0,1.546118 c 0.311505,0 0.547602,0.238018 0.547602,0.549596 0,0.31158 -0.236024,0.545611 -0.547602,0.545611 -0.31158,0 -0.547604,-0.234104 -0.547604,-0.545611 0,-0.311506 0.236096,-0.549596 0.547604,-0.549596 z" />
</svg>
