<?xml version="1.0" encoding="UTF-8" standalone="no"?>
<svg
   width="800"
   height="800"
   viewBox="0 0 24 24"
   fill="none"
   version="1.1"
   id="svg1"
   xmlns="http://www.w3.org/2000/svg"
   xmlns:svg="http://www.w3.org/2000/svg">
  <defs
     id="defs1" />
  <path
     d="m 11.99999,6.3697575 c 1.032211,0 1.876749,0.8445364 1.876749,1.8767475 0,1.0322111 -0.844538,1.876747 -1.876748,1.876747 -1.032211,0 -1.876748,-0.8445359 -1.876748,-1.876747 0,-1.0322111 0.844537,-1.8767475 1.876747,-1.8767475 z m 0,9.3837375 c 2.533609,0 5.442568,1.210502 5.630243,1.876747 H 6.369767 c 0.215826,-0.675629 3.1060171,-1.876747 5.630223,-1.876747 z m 0,-11.260485 c -2.0737865,0 -3.7534755,1.679689 -3.7534755,3.753495 0,2.073806 1.679689,3.753495 3.7534755,3.753495 2.073806,0 3.753495,-1.679689 3.753495,-3.753495 0,-2.073806 -1.679689,-3.753495 -3.753495,-3.753495 z m 0,9.383737 c -2.5054384,0 -7.5069705,1.257421 -7.5069705,3.753495 V 19.50699 H 19.50698 v -1.876748 c 0,-2.496074 -5.001532,-3.753495 -7.50699,-3.753495 z"
     fill="#fafafa"
     id="path1"
     style="stroke-width:0.938374" />
</svg>
