<?xml version="1.0" encoding="UTF-8" standalone="no"?>
<svg
   width="800"
   height="800"
   viewBox="0 0 24 24"
   fill="none"
   version="1.1"
   id="svg1"
   xmlns="http://www.w3.org/2000/svg"
   xmlns:svg="http://www.w3.org/2000/svg">
  <defs
     id="defs1" />
  <path
     d="m 12.000017,23.516536 c -6.3605856,0 -11.5165445,-5.155955 -11.5165445,-11.516541 0,-6.3605864 5.1559589,-11.5165314 11.5165445,-11.5165314 6.360555,0 11.51651,5.155945 11.51651,11.5165314 0,6.360586 -5.155955,11.516541 -11.51651,11.516541 z m 0,-2.303327 c 2.443475,0 4.786913,-0.970669 6.514713,-2.69847 1.727832,-1.727832 2.698502,-4.071238 2.698502,-6.514744 0,-2.4435059 -0.970669,-4.786912 -2.698502,-6.5147443 -1.7278,-1.7278003 -4.071238,-2.6984792 -6.514713,-2.6984792 -2.4435052,0 -4.7869433,0.9706789 -6.5147436,2.6984792 -1.7278323,1.7278323 -2.6984951,4.0712384 -2.6984951,6.5147443 0,2.443506 0.9706628,4.786912 2.6984951,6.514744 1.7278003,1.727801 4.0712384,2.69847 6.5147436,2.69847 z m -1.58698,-13.3418767 5.61891,3.7451597 c 0.0632,0.04207 0.115009,0.09907 0.150855,0.165957 0.03581,0.06691 0.05457,0.141653 0.05457,0.217546 0,0.07589 -0.01876,0.150631 -0.05457,0.217546 -0.03585,0.06688 -0.08766,0.123891 -0.150855,0.165957 l -5.620064,3.745192 c -0.06932,0.04591 -0.149734,0.07224 -0.232776,0.07618 -0.08307,0.0039 -0.165604,-0.01472 -0.2389317,-0.0539 -0.073328,-0.03921 -0.1346637,-0.09754 -0.1775317,-0.168746 -0.042868,-0.07124 -0.065665,-0.152747 -0.065953,-0.235886 V 8.2536813 c 1.603e-4,-0.083331 0.022925,-0.1650594 0.065825,-0.2364632 0.042932,-0.071436 0.1044286,-0.1298544 0.1779165,-0.1690992 0.07352,-0.039213 0.1562739,-0.057777 0.2395079,-0.053705 0.08324,0.00407 0.163777,0.030652 0.233097,0.076918 z"
     fill="currentColor"
     id="path1"
     style="stroke-width:0.320628" />
</svg>
