<?xml version="1.0" encoding="UTF-8" standalone="no"?>
<svg
   width="800"
   height="800"
   viewBox="0 0 24 24"
   fill="none"
   version="1.1"
   id="svg1"
   xmlns="http://www.w3.org/2000/svg"
   xmlns:svg="http://www.w3.org/2000/svg">
  <defs
     id="defs1" />
  <path
     d="M 10.960556,10.960556 V 6.8027785 h 2.078888 v 4.1577775 h 4.157777 v 2.078888 h -4.157777 v 4.157777 H 10.960556 V 13.039444 H 6.8027785 V 10.960556 Z M 12,22.394443 C 6.2591491,22.394443 1.605557,17.740851 1.605557,12 1.605557,6.2591491 6.2591491,1.605557 12,1.605557 c 5.740851,0 10.394443,4.6535921 10.394443,10.394443 0,5.740851 -4.653592,10.394443 -10.394443,10.394443 z m 0,-2.078889 c 2.20547,0 4.320508,-0.876136 5.880021,-2.435533 C 19.439418,16.320508 20.315554,14.20547 20.315554,12 c 0,-2.20547 -0.876136,-4.3205196 -2.435533,-5.8799863 C 16.320508,4.560547 14.20547,3.6844456 12,3.6844456 9.79453,3.6844456 7.6794804,4.560547 6.1200137,6.1200137 4.560547,7.6794804 3.6844456,9.79453 3.6844456,12 c 0,2.20547 0.8761014,4.320508 2.4355681,5.880021 C 7.6794804,19.439418 9.79453,20.315554 12,20.315554 Z"
     fill="currentColor"
     id="path1"
     style="stroke-width:1.15494" />
</svg>
