<?xml version="1.0" encoding="UTF-8" standalone="no"?>
<svg
   width="800"
   height="800"
   viewBox="0 0 24 24"
   fill="none"
   version="1.1"
   id="svg1"
   xmlns="http://www.w3.org/2000/svg"
   xmlns:svg="http://www.w3.org/2000/svg">
  <defs
     id="defs1" />
  <path
     d="M 12.000902,21.103529 C 6.9754535,21.098066 2.9028917,17.025512 2.8973728,12 v -0.182052 c 0.100076,-5.0028176 4.2191126,-8.9870461 9.2225132,-8.9206596 5.00339,0.066387 9.015225,4.1584938 8.982543,9.1622486 -0.03268,5.003664 -4.097681,9.042991 -9.101527,9.043992 z m -0.01456,-1.820706 h 0.01456 c 4.020756,-0.004 7.277544,-3.265709 7.275541,-7.286446 -0.002,-4.0207651 -3.262068,-7.2791822 -7.282824,-7.2791822 -4.0207737,0 -7.2808113,3.2584171 -7.2828232,7.2791822 -0.00201,4.020737 3.2547758,7.28244 7.2755402,7.286446 z m 0.924919,-1.820706 h -1.820706 v -1.820706 h 1.820706 z m 0,-2.731059 h -1.820706 c -0.02877,-1.185553 0.588215,-2.293361 1.611325,-2.893083 0.600833,-0.460638 1.119734,-0.857552 1.119734,-1.658663 0,-1.0055482 -0.81513,-1.8207055 -1.820706,-1.8207055 -1.005549,0 -1.820706,0.8151573 -1.820706,1.8207055 H 8.3594904 v -0.08193 c 0.014638,-1.3009487 0.7222103,-2.4952771 1.8561816,-3.1330703 1.133973,-0.6378024 2.52207,-0.6221898 3.64144,0.040966 1.119279,0.6631466 1.799859,1.8730875 1.785202,3.1740363 -0.06518,0.982289 -0.592002,1.875582 -1.420151,2.407865 -0.748583,0.469924 -1.233801,1.263388 -1.310908,2.143881 z"
     fill="#fafafa"
     id="path1"
     style="stroke-width:0.910353" />
</svg>
