<?xml version="1.0" encoding="UTF-8" standalone="no"?>
<svg
   width="24"
   height="24"
   viewBox="0 0 24 24"
   fill="none"
   version="1.1"
   xmlns="http://www.w3.org/2000/svg"
   xmlns:svg="http://www.w3.org/2000/svg">
  <g
     id="g6"
     transform="matrix(1.1772199,0,0,1.1530345,-2.4160551,-1.3636699)">
    <g
       id="g5">
      <path
         d="M 20.5,11.3 V 7.04001 C 20.5,3.01001 19.56,2 15.78,2 H 8.22 C 4.44,2 3.5,3.01001 3.5,7.04001 V 18.3 c 0,2.66 1.46001,3.29 3.23001,1.39 l 0.00998,-0.01 c 0.82,-0.87 2.07,-0.8 2.78,0.15 L 10.53,21.18"
         stroke="currentColor"
         stroke-width="1.5"
         stroke-linecap="round"
         stroke-linejoin="round"
         id="path1" />
      <path
         d="m 8,7 h 8"
         stroke="currentColor"
         stroke-width="1.5"
         stroke-linecap="round"
         stroke-linejoin="round"
         id="path2" />
      <path
         d="m 9,11 h 6"
         stroke="currentColor"
         stroke-width="1.5"
         stroke-linecap="round"
         stroke-linejoin="round"
         id="path3" />
      <path
         d="m 18.211,14.7703 -3.54,3.54 c -0.14,0.14 -0.27,0.4 -0.3,0.59 l -0.19,1.35 c -0.07,0.49 0.27,0.83 0.76,0.76 l 1.35,-0.19 c 0.19,-0.03 0.46,-0.16 0.59,-0.3 l 3.54,-3.54 c 0.61,-0.61 0.9,-1.32 0,-2.22 -0.89,-0.89 -1.6,-0.6 -2.21,0.01 z"
         stroke="currentColor"
         stroke-width="1.5"
         stroke-miterlimit="10"
         stroke-linecap="round"
         stroke-linejoin="round"
         id="path4" />
      <path
         d="m 17.6992,15.2803 c 0.3,1.08 1.14,1.92 2.22,2.22"
         stroke="currentColor"
         stroke-width="1.5"
         stroke-miterlimit="10"
         stroke-linecap="round"
         stroke-linejoin="round"
         id="path5" />
    </g>
  </g>
</svg>
