<?xml version="1.0" encoding="UTF-8" standalone="no"?>
<svg
   width="800"
   height="800"
   viewBox="0 0 24 24"
   fill="none"
   version="1.1"
   id="svg1"
   xmlns="http://www.w3.org/2000/svg"
   xmlns:svg="http://www.w3.org/2000/svg">
  <defs
     id="defs1" />
  <path
     d="M 18.98586,19.859092 H 5.0141405 c -0.4822689,0 -0.8732325,-0.390946 -0.8732325,-0.873232 v -6.374597 c 0,-0.251578 0.1085603,-0.490931 0.2977723,-0.656671 L 5.8873729,10.690151 V 5.0141405 c 0,-0.4822689 0.3909637,-0.8732325 0.8732325,-0.8732325 H 18.98586 c 0.482286,0 0.873232,0.3909636 0.873232,0.8732325 V 18.98586 c 0,0.482286 -0.390946,0.873232 -0.873232,0.873232 z M 9.3803028,7.9211313 c 0.211427,2.445e-4 0.4155888,0.077194 0.5745869,0.2165617 l 4.3661623,3.820392 c 0.188618,0.164779 0.297423,0.402735 0.298646,0.653178 v 5.501364 h 3.492929 V 5.8873729 H 7.6338379 V 9.1619947 L 8.8048426,8.1368197 C 8.96419,7.9975741 9.1686836,7.9209218 9.3803028,7.9211313 Z M 8.5070703,15.49293 h 1.7464647 v 2.619697 h 2.619698 V 13.01033 L 9.3803028,9.9540165 5.8873729,13.01033 v 5.102297 h 2.6196974 z"
     fill="#fafafa"
     id="path1"
     style="stroke-width:0.873232" />
</svg>
