<?xml version="1.0" encoding="UTF-8" standalone="no"?>
<svg
   width="800"
   height="800"
   viewBox="0 0 24 24"
   fill="none"
   version="1.1"
   id="svg1"
   xmlns="http://www.w3.org/2000/svg"
   xmlns:svg="http://www.w3.org/2000/svg">
  <defs
     id="defs1" />
  <path
     d="m 10.785683,1.3398275 c 5.214111,0 9.445854,4.2317425 9.445854,9.4458535 0,5.214111 -4.231743,9.445854 -9.445854,9.445854 -5.2141115,0 -9.445854,-4.231742 -9.445854,-9.445854 0,-5.214111 4.2317425,-9.4458535 9.445854,-9.4458535 z m 0,16.7926285 c 4.058498,0 7.346775,-3.288277 7.346775,-7.346775 0,-4.0596177 -3.288277,-7.3467749 -7.346775,-7.3467749 -4.0596182,0 -7.3467754,3.2871572 -7.3467754,7.3467749 0,4.058498 3.2871572,7.346775 7.3467754,7.346775 z m 8.905271,0.07445 2.969217,2.968098 -1.485168,1.485169 -2.968098,-2.969218 z"
     fill="currentColor"
     id="path1"
     style="stroke-width:1.39939" />
</svg>
