<?xml version="1.0" encoding="UTF-8" standalone="no"?>
<svg
   width="800"
   height="800"
   viewBox="0 0 24 24"
   fill="none"
   version="1.1"
   id="svg1"
   xmlns="http://www.w3.org/2000/svg"
   xmlns:svg="http://www.w3.org/2000/svg">
  <defs
     id="defs1" />
  <path
     d="M 20.943352,19.644471 17.531526,16.260234 C 18.855885,14.608947 19.497234,12.513019 19.3237,10.403379 19.150166,8.2937489 18.174991,6.3307902 16.598562,4.9181103 15.022224,3.5054304 12.964461,2.7504171 10.848504,2.808317 8.7325461,2.8662142 6.7191825,3.7326249 5.2224116,5.2293957 3.7256408,6.7261666 2.8592301,8.7395302 2.8013321,10.855497 c -0.057901,2.115957 0.6971142,4.173721 2.1097941,5.750058 1.4126707,1.576429 3.3756386,2.551604 5.4852688,2.725138 2.109631,0.173535 4.205559,-0.467815 5.856846,-1.792174 l 3.384237,3.384237 c 0.08553,0.08617 0.187236,0.15459 0.299247,0.201307 0.112103,0.04672 0.232299,0.07072 0.35369,0.07072 0.121391,0 0.241587,-0.024 0.353689,-0.07072 0.112011,-0.04672 0.213722,-0.115137 0.299248,-0.201307 0.165717,-0.171511 0.258416,-0.400682 0.258416,-0.639142 0,-0.23846 -0.0927,-0.467632 -0.258416,-0.639143 z m -9.849234,-2.105952 c -1.2731994,0 -2.5178078,-0.377508 -3.5764303,-1.084887 C 6.4590652,15.746253 5.6339643,14.740914 5.1467261,13.564615 4.6594971,12.388317 4.5320181,11.093966 4.7804008,9.8452285 5.0287928,8.596491 5.6419007,7.4494553 6.5421814,6.5491747 7.4424712,5.6488848 8.5895069,5.0357769 9.8382444,4.7873941 11.086982,4.5390022 12.381324,4.6664812 13.557622,5.1537194 c 1.176299,0.487229 2.181638,1.3123299 2.889017,2.3709524 0.707379,1.0586317 1.084887,2.3032309 1.084887,3.5764402 0,1.707292 -0.678227,3.344693 -1.885517,4.55189 -1.207198,1.20729 -2.844598,1.885517 -4.551891,1.885517 z"
     fill="#181b1a"
     id="path1"
     style="stroke-width:0.91963" />
</svg>
