<?xml version="1.0" encoding="UTF-8" standalone="no"?>
<svg
   width="800"
   height="800"
   viewBox="0 0 24 24"
   fill="none"
   version="1.1"
   id="svg1"
   xmlns="http://www.w3.org/2000/svg"
   xmlns:svg="http://www.w3.org/2000/svg">
  <defs
     id="defs1" />
  <path
     d="m 17.94961,4.0673176 c 0.333569,-1.054e-4 0.654841,0.1258689 0.899366,0.3526712 0.24459,0.2268023 0.394451,0.537665 0.41944,0.8702818 l 0.0032,0.099158 v 1.3221115 h 1.348553 c 0.68882,0 1.242785,0.5447098 1.292364,1.2242751 l 0.0032,0.097836 V 18.610542 c 0,0.691464 -0.522896,1.267243 -1.198494,1.318145 l -0.09718,0.004 H 6.0241642 c -0.6888201,0 -1.2427848,-0.54471 -1.2923639,-1.224276 l -0.00331,-0.09784 V 17.288432 H 3.4063836 C 3.0728281,17.288563 2.7515616,17.162566 2.5069856,16.935758 2.2624075,16.708949 2.112594,16.398121 2.0875775,16.065478 l -0.00331,-0.09916 V 5.3894289 C 2.0841667,5.0558735 2.2101412,4.7346071 2.4369434,4.490031 2.6637457,4.2454529 2.9746084,4.0956395 3.3072252,4.070623 l 0.099158,-0.00331 z m 1.322112,11.8990014 c 1.31e-4,0.333569 -0.125866,0.654842 -0.352674,0.899367 -0.226809,0.24459 -0.537636,0.394452 -0.87028,0.41944 l -0.09916,0.0032 H 6.0506063 V 18.6105 H 20.593832 V 8.0336518 h -1.32211 z M 17.94961,5.3894289 H 3.4063836 V 15.966319 H 17.94961 Z m -1.983168,7.9326681 c 0.175312,0 0.343485,0.06967 0.467433,0.193624 0.123948,0.123947 0.193623,0.29212 0.193623,0.467431 0,0.175312 -0.06968,0.343484 -0.193623,0.467433 -0.123948,0.123947 -0.292121,0.193623 -0.467433,0.193623 -0.175312,0 -0.343484,-0.06968 -0.467432,-0.193623 -0.123948,-0.123949 -0.193623,-0.292121 -0.193623,-0.467433 0,-0.175311 0.06967,-0.343484 0.193623,-0.467431 0.123948,-0.123949 0.29212,-0.193624 0.467432,-0.193624 z M 10.677996,8.0336518 c 0.701314,0 1.373872,0.2785886 1.869731,0.7744729 0.495924,0.4958911 0.774492,1.1684558 0.774492,1.8697503 0,0.701314 -0.278568,1.373871 -0.774492,1.869728 -0.495859,0.495924 -1.168417,0.774494 -1.869731,0.774494 -0.7013138,0 -1.3738718,-0.27857 -1.8697297,-0.774494 -0.4959041,-0.495857 -0.7744929,-1.168414 -0.7744929,-1.869728 0,-0.7012945 0.2785888,-1.3738592 0.7744929,-1.8697503 C 9.3041242,8.3122404 9.9766822,8.0336518 10.677996,8.0336518 Z m 0,1.3221112 c -0.350623,0 -0.6869027,0.1392912 -0.9348648,0.38724 -0.2479619,0.2479421 -0.3872464,0.584227 -0.3872464,0.934872 0,0.350623 0.1392845,0.686902 0.3872464,0.934864 0.2479621,0.247963 0.5842418,0.387247 0.9348648,0.387247 0.350625,0 0.686904,-0.139284 0.934866,-0.387247 0.247962,-0.247962 0.387246,-0.584241 0.387246,-0.934864 0,-0.350645 -0.139284,-0.6869298 -0.387246,-0.934872 C 11.3649,9.4950542 11.028621,9.355763 10.677996,9.355763 Z M 5.3895507,6.7115404 c 0.1753251,0 0.3434647,0.069649 0.4674391,0.1936166 0.1239678,0.1239743 0.1936165,0.2921139 0.1936165,0.467439 0,0.1753252 -0.069649,0.3434648 -0.1936165,0.4674392 -0.1239744,0.1239677 -0.292114,0.1936166 -0.4674391,0.1936166 -0.1753252,0 -0.3434647,-0.069649 -0.4674391,-0.1936166 C 4.7981439,7.7160608 4.728495,7.5479212 4.728495,7.372596 4.728495,7.1972709 4.798144,7.0291313 4.9221116,6.905157 5.046086,6.7811892 5.2142255,6.7115404 5.3895507,6.7115404 Z"
     fill="currentColor"
     id="path1"
     style="stroke-width:0.661056" />
</svg>
