<?xml version="1.0" encoding="UTF-8" standalone="no"?>
<svg
   width="800"
   height="800"
   viewBox="0 0 24 24"
   fill="none"
   version="1.1"
   id="svg1"
   xmlns="http://www.w3.org/2000/svg"
   xmlns:svg="http://www.w3.org/2000/svg">
  <defs
     id="defs1" />
  <path
     d="M 16.405041,1.499294 H 7.605469 c -3.8222406,0 -6.1008949,2.2786543 -6.1008949,6.1008949 v 8.7891261 c 0,3.832661 2.2786543,6.111391 6.1008949,6.111391 h 8.789113 c 3.822203,0 6.100807,-2.27873 6.100807,-6.100933 V 7.6001889 C 22.505973,3.7779483 20.227243,1.499294 16.405041,1.499294 Z m -0.451487,14.448992 c -0.063,0.892516 -0.136593,2.005545 -2.152722,2.005545 H 10.20964 c -2.0056327,0 -2.0896423,-1.113029 -2.1526463,-2.005545 L 7.731477,11.79002 c -0.021006,-0.273059 0.0735,-0.535597 0.2520162,-0.735106 0.1785156,-0.199508 0.4410282,-0.304523 0.7035408,-0.304523 h 6.636479 c 0.262475,0 0.52495,0.115511 0.703504,0.304523 0.178553,0.199509 0.273059,0.462047 0.252016,0.724521 z M 17.04554,9.710824 c -0.02092,0 -0.04196,0 -0.063,0 C 15.890554,9.605821 14.892948,9.532308 13.937429,9.49031 12.656305,9.42731 11.375218,9.4063 10.083636,9.45881 9.4535955,9.49031 8.8130461,9.53231 8.1830057,9.595314 l -1.144569,0.115512 c -0.021006,0 -0.052508,0 -0.073501,0 -0.3675277,0 -0.6825479,-0.273022 -0.7140499,-0.6510459 C 6.2088837,8.6712574 6.5028984,8.3142388 6.891419,8.2827368 L 8.0360007,8.1672252 c 0.4515247,-0.041999 0.892553,-0.0735 1.3440777,-0.094506 l 0.08401,-0.4935358 C 9.5480976,7.0541581 9.7056076,6.0460935 11.280708,6.0460935 h 1.45964 c 1.58556,0 1.74307,1.0395666 1.816532,1.5435989 l 0.08405,0.5040323 c 0.78755,0.041999 1.596144,0.1050025 2.4782,0.1890121 0.398942,0.041999 0.68246,0.3885206 0.650958,0.7875504 -0.04196,0.3675148 -0.356981,0.6405368 -0.724546,0.6405368 z"
     fill="currentColor"
     id="path1"
     style="stroke-width:1.26008" />
</svg>
