<?xml version="1.0" encoding="UTF-8" standalone="no"?>
<svg
   width="800"
   height="800"
   viewBox="0 0 24 24"
   fill="none"
   version="1.1"
   id="svg6"
   xmlns="http://www.w3.org/2000/svg"
   xmlns:svg="http://www.w3.org/2000/svg">
  <g
     clip-path="url(#clip0_2443_10514)"
     id="g6"
     transform="matrix(1.1637414,0,0,1.1637414,0.36258622,0.36258622)">
    <path
       d="M 10,20 C 15.5228,20 20,15.5228 20,10 20,4.47715 15.5228,0 10,0 4.47715,0 0,4.47715 0,10 0,15.5228 4.47715,20 10,20 Z"
       fill="#f0f0f0"
       id="path1" />
    <path
       d="M 9.56543,9.99934 H 20.0002 c 0,-0.90258 -0.1203,-1.77696 -0.3445,-2.60872 H 9.56543 Z"
       fill="#d80027"
       id="path2" />
    <path
       d="M 9.56543,4.78254 H 18.5325 C 17.9203,3.78363 17.1376,2.9007 16.225,2.17383 H 9.56543 Z"
       fill="#d80027"
       id="path3" />
    <path
       d="m 10.0002,20.0001 c 2.3535,0 4.5167,-0.8135 6.2249,-2.1739 H 3.77539 c 1.7082,1.3604 3.87137,2.1739 6.22481,2.1739 z"
       fill="#d80027"
       id="path4" />
    <path
       d="M 1.46797,15.2181 H 18.5325 c 0.4914,-0.8019 0.8726,-1.6785 1.1232,-2.6087 H 0.344727 c 0.250664,0.9302 0.631796,1.8068 1.123243,2.6087 z"
       fill="#d80027"
       id="path5" />
    <path
       d="M 4.63219,1.56164 H 5.54348 L 4.69582,2.17746 5.01961,3.17391 4.17199,2.55809 3.32437,3.17391 3.60406,2.31309 C 2.85773,2.93477 2.20359,3.66313 1.66453,4.47469 H 1.95652 L 1.41695,4.86668 C 1.33289,5.00691 1.25227,5.14937 1.175,5.29395 L 1.43266,6.08695 0.951953,5.7377 C 0.832461,5.99086 0.723164,6.24973 0.624922,6.51398 L 0.908789,7.38773 H 1.95652 L 1.10887,8.00356 1.43266,9 0.585039,8.38418 0.0773047,8.75309 C 0.0264844,9.1616 0,9.57769 0,10 H 10 C 10,4.47719 10,3.82609 10,0 8.02453,0 6.18301,0.573047 4.63219,1.56164 Z M 5.01961,9 4.17199,8.38418 3.32437,9 3.64816,8.00356 2.80051,7.38773 H 3.84824 L 4.17199,6.39129 4.49574,7.38773 H 5.54348 L 4.69582,8.00356 Z M 4.69582,5.09051 5.01961,6.08695 4.17199,5.47113 3.32437,6.08695 3.64816,5.09051 2.80051,4.47469 H 3.84824 L 4.17199,3.47824 4.49574,4.47469 H 5.54348 Z M 8.60656,9 7.75895,8.38418 6.91133,9 7.23512,8.00356 6.38746,7.38773 H 7.4352 L 7.75895,6.39129 8.0827,7.38773 H 9.13043 L 8.28277,8.00356 Z M 8.28277,5.09051 8.60656,6.08695 7.75895,5.47113 6.91133,6.08695 7.23512,5.09051 6.38746,4.47469 H 7.4352 L 7.75895,3.47824 8.0827,4.47469 h 1.04773 z m 0,-2.91305 L 8.60656,3.17391 7.75895,2.55809 6.91133,3.17391 7.23512,2.17746 6.38746,1.56164 H 7.4352 L 7.75895,0.565195 8.0827,1.56164 h 1.04773 z"
       fill="#0052b4"
       id="path6" />
  </g>
  <defs
     id="defs6">
    <clipPath
       id="clip0_2443_10514">
      <rect
         width="20"
         height="20"
         fill="#ffffff"
         id="rect6"
         x="0"
         y="0" />
    </clipPath>
  </defs>
</svg>
