<?xml version="1.0" encoding="UTF-8" standalone="no"?>
<svg
   width="800"
   height="800"
   viewBox="0 0 24 24"
   fill="none"
   version="1.1"
   id="svg1"
   xmlns="http://www.w3.org/2000/svg"
   xmlns:svg="http://www.w3.org/2000/svg">
  <defs
     id="defs1" />
  <path
     d="m 11.999871,12.595405 4.311089,4.310084 -1.437711,1.43771 -1.857339,-1.857339 v 5.674638 h -2.032088 v -5.67667 l -1.8573396,1.859371 -1.4377105,-1.43771 z m 0,-10.755903 c 1.744547,8.31e-5 3.428254,0.6412426 4.730943,1.8015805 1.302689,1.1603289 2.133592,2.7589253 2.334657,4.4918321 1.264191,0.3447683 2.36717,1.1228367 3.115886,2.1982574 0.748716,1.07541 1.095753,2.379747 0.980488,3.685123 -0.115378,1.305285 -0.685834,2.528496 -1.611568,3.455924 -0.925734,0.927428 -2.148042,1.500028 -3.453102,1.617777 v -2.046324 c 0.467609,-0.06672 0.917154,-0.226015 1.322445,-0.468399 0.405404,-0.242498 0.758425,-0.563118 1.038403,-0.943459 0.280091,-0.380341 0.481495,-0.812614 0.592696,-1.271643 0.111088,-0.459142 0.129716,-0.935669 0.05464,-1.401968 -0.07496,-0.466299 -0.242158,-0.912989 -0.491654,-1.313978 -0.24961,-0.40099 -0.576552,-0.748242 -0.961748,-1.021514 C 19.266761,10.34945 18.830876,10.155655 18.370041,10.05265 17.909093,9.9496456 17.432227,9.9394851 16.967328,10.022767 17.126509,9.2819541 17.117816,8.5149155 16.942152,7.7778616 16.766489,7.0407965 16.428144,6.3523776 15.951842,5.7630123 15.475654,5.1736469 14.873701,4.6982711 14.189899,4.3717014 13.50621,4.0451204 12.758059,3.875632 12.000425,3.875632 c -0.757759,0 -1.505888,0.1694884 -2.1896104,0.4960694 C 9.1270921,4.6982711 8.5250713,5.1736469 8.04886,5.7630123 7.5726487,6.3523776 7.2342929,7.0407965 7.0585953,7.7778616 6.8828977,8.5149155 6.8742951,9.2819541 7.0334198,10.022767 6.1064324,9.8486841 5.1482523,10.049986 4.3696871,10.582374 3.5911107,11.11475 3.0559121,11.934623 2.8818402,12.86161 c -0.1740832,0.926977 0.027208,1.885112 0.5595951,2.663744 0.5323875,0.77852 1.3522607,1.313753 2.2792481,1.487836 l 0.182889,0.03048 v 2.046324 C 4.5984,18.972473 3.3760469,18.399985 2.4501545,17.47267 1.5242543,16.545243 0.95370619,15.322032 0.83822987,14.016633 0.72275254,12.711337 1.0696905,11.406921 1.8184075,10.331421 2.5671244,9.2559206 3.6699901,8.4777506 4.9342609,8.1329146 5.1351339,6.3999175 5.9659579,4.8011969 7.2687144,3.6408229 8.5714596,2.4804465 10.255269,1.8393631 11.999871,1.839502 Z"
     fill="currentColor"
     id="path1"
     style="stroke-width:1.12894" />
</svg>
