<?xml version="1.0" encoding="UTF-8" standalone="no"?>
<svg
   width="800"
   height="800"
   viewBox="0 0 24 24"
   fill="none"
   version="1.1"
   id="svg3"
   xmlns="http://www.w3.org/2000/svg"
   xmlns:svg="http://www.w3.org/2000/svg">
  <defs
     id="defs3" />
  <path
     id="path1"
     style="fill:currentColor;stroke-width:0.953846;stroke-linecap:round;stroke-linejoin:round;-inkscape-stroke:none"
     d="m 11.999047,0.15607928 c -6.5325887,0 -11.8429659,5.31037722 -11.8429659,11.84296672 0,3.645538 1.6548989,6.909837 4.2520107,9.084153 0.00424,0.0035 0.00833,0.0072 0.012576,0.01085 0.1025981,0.08566 0.2078281,0.16812 0.3133161,0.250328 0.042085,0.03284 0.083329,0.06669 0.1258629,0.09898 0.087774,0.06653 0.1776087,0.130326 0.2672632,0.194439 0.063123,0.0452 0.1257115,0.09105 0.1897446,0.135029 0.078627,0.05393 0.1587857,0.10565 0.2387595,0.15772 0.077428,0.05048 0.1547337,0.101037 0.2333942,0.149728 0.073876,0.04568 0.1488423,0.0896 0.2237813,0.133687 0.086962,0.05121 0.174097,0.102039 0.2624566,0.151069 0.071514,0.03964 0.1438292,0.07788 0.2162362,0.116082 0.093813,0.04953 0.1880282,0.09826 0.2833034,0.145313 0.07012,0.03461 0.140761,0.06819 0.2116532,0.10144 0.1000444,0.04696 0.2007075,0.09267 0.30225,0.136873 0.069517,0.03025 0.1393295,0.05981 0.2095294,0.08876 0.1044151,0.04307 0.2096103,0.08444 0.3154957,0.124577 0.069627,0.02638 0.1393422,0.05247 0.2095854,0.07758 0.1088599,0.03891 0.2186086,0.07573 0.3289094,0.1115 0.069316,0.02248 0.1385443,0.04505 0.2084116,0.06628 0.112468,0.03417 0.2259527,0.06582 0.3398076,0.09669 0.070232,0.01906 0.1402383,0.03855 0.2109822,0.05633 0.1149918,0.02889 0.2310567,0.05487 0.3473525,0.08037 0.070985,0.01558 0.1416023,0.03199 0.2130511,0.04628 0.1181252,0.02361 0.2373779,0.04383 0.3567421,0.06388 0.07129,0.01199 0.142118,0.02529 0.213832,0.03599 0.121596,0.01813 0.244367,0.03238 0.367138,0.04678 0.07076,0.0083 0.140968,0.01832 0.2121,0.02537 0.133431,0.0132 0.268101,0.02196 0.402795,0.03069 0.06086,0.0039 0.121103,0.01 0.1822,0.01302 0.196294,0.0097 0.393733,0.01509 0.592427,0.01509 0.198688,0 0.396139,-0.0054 0.592428,-0.01509 0.06142,-0.0031 0.121983,-0.0091 0.18315,-0.01308 0.134353,-0.0087 0.268693,-0.01745 0.401789,-0.03063 0.07154,-0.0071 0.142165,-0.01718 0.21333,-0.02554 0.122259,-0.01435 0.244536,-0.0285 0.365628,-0.04656 0.07245,-0.01081 0.143994,-0.02427 0.216013,-0.03639 0.118569,-0.01994 0.237047,-0.03999 0.354395,-0.06343 0.07231,-0.01446 0.143788,-0.03107 0.215622,-0.04683 0.115224,-0.02529 0.230222,-0.05102 0.344166,-0.07965 0.07228,-0.01816 0.143813,-0.03808 0.215566,-0.05757 0.111933,-0.03039 0.223512,-0.06149 0.334106,-0.09507 0.07194,-0.02184 0.143204,-0.04507 0.21456,-0.06824 0.10814,-0.03512 0.215783,-0.07119 0.322537,-0.109319 0.07233,-0.02583 0.144109,-0.05268 0.21579,-0.07987 0.103371,-0.03922 0.206093,-0.0796 0.308063,-0.121615 0.07303,-0.03008 0.145625,-0.06085 0.217912,-0.09233 0.09783,-0.04264 0.194855,-0.08665 0.291295,-0.131843 0.07502,-0.03513 0.149737,-0.07066 0.223894,-0.107308 0.09042,-0.04472 0.179834,-0.09104 0.26894,-0.137991 0.0773,-0.04069 0.154429,-0.08151 0.230711,-0.123851 0.08224,-0.0457 0.163375,-0.09303 0.244404,-0.140618 0.0813,-0.04769 0.162568,-0.09531 0.242617,-0.144865 0.0704,-0.04365 0.139549,-0.08906 0.20897,-0.134135 0.08862,-0.05746 0.17727,-0.114798 0.264245,-0.174542 0.05229,-0.03597 0.10336,-0.07348 0.155037,-0.11027 0.101903,-0.07243 0.203602,-0.14501 0.303088,-0.22054 0.02472,-0.0188 0.04865,-0.03857 0.07322,-0.05756 2.809221,-2.167575 4.623395,-5.564605 4.623395,-9.380145 0,-6.5325855 -5.312339,-11.8429663 -11.844867,-11.8429663 z m 0,1.43076902 c 5.75928,0 10.414098,4.6528429 10.414098,10.4121977 0,2.629069 -0.97213,5.026111 -2.574378,6.857128 -0.384019,-0.797 -1.037127,-1.521101 -1.909853,-2.108372 a 0.71545603,0.71545603 0 0 0 -0.0019,-0.0019 c -1.664289,-1.113598 -3.789556,-1.669294 -5.918688,-1.669249 l 5.6e-5,5.5e-5 c -2.129132,4.6e-5 -4.2612044,0.555278 -5.9354559,1.66735 a 0.71545603,0.71545603 0 0 0 -0.00375,0.0037 C 5.196703,17.334897 4.54378,18.058735 4.1597193,18.855448 2.5582879,17.024524 1.5868501,14.62776 1.5868501,11.999046 c 0,-5.7593511 4.6528466,-10.4121977 10.4121969,-10.4121977 z m 0,3.2770199 c -2.4105086,1e-7 -4.3649623,1.9660454 -4.3649623,4.3649635 0,2.3469293 1.8714767,4.2741763 4.2066283,4.3537853 a 0.71545603,0.71545603 0 0 0 0.113623,-0.0037 c 0.02324,-0.003 0.08361,-8.22e-4 0.0764,-0.0019 a 0.71545603,0.71545603 0 0 0 0.126701,0.0056 c 2.335245,-0.07961 4.195203,-2.008085 4.208473,-4.3500968 a 0.71545603,0.71545603 0 0 0 0,-0.00372 c -2e-6,-2.4015437 -1.965303,-4.3649634 -4.366864,-4.3649635 z m 0,1.430769 c 1.626282,0 2.935094,1.3062914 2.936096,2.9322935 -0.0099,1.5808233 -1.221075,2.8470363 -2.779941,2.9240793 -0.10375,-0.0097 -0.200896,-0.0087 -0.300908,5.59e-4 -1.564302,-0.07239 -2.7894399,-1.342699 -2.7894399,-2.9227373 0,-1.6294901 1.2941079,-2.9341945 2.9341929,-2.9341945 z m 0.0074,10.2724178 v 5.6e-5 c 1.881964,4.6e-5 3.76078,0.456297 5.123216,1.367391 0.896759,0.603442 1.330985,1.299517 1.516447,1.982229 -1.694417,1.426953 -3.800758,2.368471 -6.156331,2.484062 -0.162718,0.0075 -0.326159,0.01235 -0.490765,0.01235 -0.164645,0 -0.328122,-0.0049 -0.490876,-0.01235 C 9.1525564,22.285188 7.0462814,21.34367 5.351903,19.916731 5.5370858,19.234999 5.9702625,18.539257 6.8646618,17.936402 l 0.00375,-0.0019 c 1.374588,-0.911752 3.2569912,-1.367485 5.1380692,-1.36744 z" />
</svg>
