<?xml version="1.0" encoding="UTF-8" standalone="no"?>
<svg
   width="800"
   height="800"
   viewBox="0 0 24 24"
   fill="none"
   version="1.1"
   id="svg2"
   xmlns="http://www.w3.org/2000/svg"
   xmlns:svg="http://www.w3.org/2000/svg">
  <defs
     id="defs2" />
  <path
     id="path4"
     style="clip-rule:evenodd;opacity:0.587821;fill:currentColor;fill-rule:evenodd;stroke-width:0.749511"
     d="m 9.1851504,3.005862 c -2.072791,0 -3.7531206,1.7896905 -3.7531206,3.9973849 0,2.2076945 1.6803296,3.9974291 3.7531206,3.9974291 2.0727666,0 3.7531196,-1.7897346 3.7531196,-3.9974291 0,-2.2076944 -1.680353,-3.9973849 -3.7531196,-3.9973849 z m 8.4445206,4.9977193 c -1.554558,0 -2.814797,1.3422675 -2.814797,2.9980607 0,1.655741 1.260239,2.998061 2.814797,2.998061 1.554632,0 2.814884,-1.34232 2.814884,-2.998061 0,-1.6557932 -1.260252,-2.9980607 -2.814884,-2.9980607 z M 9.1694279,12.998358 c -4.4300089,0 -8.064589,2.424982 -8.42827146,7.194564 -0.0198103,0.259779 0.44667216,0.80025 0.68198226,0.80025 H 16.922743 c 0.704839,0 0.715762,-0.604107 0.704819,-0.799503 -0.274919,-4.903595 -3.965796,-7.195311 -8.4581341,-7.195311 z m 8.0864671,2.000273 c 1.177406,1.670059 1.875067,3.745776 1.875067,5.99498 v 5.27e-4 h 3.618077 c 0.508993,0 0.516939,-0.453066 0.508994,-0.599594 -0.196372,-3.637374 -2.806002,-5.358587 -6.002138,-5.395913 z" />
</svg>
