<?xml version="1.0" encoding="UTF-8" standalone="no"?>
<svg
   width="800"
   height="800"
   viewBox="0 0 24 24"
   fill="none"
   version="1.1"
   id="svg1"
   xmlns="http://www.w3.org/2000/svg"
   xmlns:svg="http://www.w3.org/2000/svg">
  <defs
     id="defs1" />
  <path
     d="m 21.374616,4.067601 c 0.760355,0 1.383263,0.588352 1.438285,1.3346161 l 0.004,0.1076352 V 18.490114 c 0,0.760355 -0.588366,1.383263 -1.334587,1.438285 l -0.107663,0.004 H 2.6253498 c -0.760326,0 -1.3832416,-0.588366 -1.4382923,-1.334587 l -0.00396,-0.107698 V 5.5098523 c 0,-0.760326 0.588352,-1.3832416 1.3346161,-1.4382923 l 0.1076362,-0.00396 z m 0,1.4422513 H 2.6253498 V 18.490114 H 21.374616 Z M 19.21124,14.16336 v 1.442251 H 13.442235 V 14.16336 Z M 7.6732293,8.3943549 c 1.1948331,0 2.1633769,0.9685441 2.1633769,2.1633771 0,0.44479 -0.1342014,0.858211 -0.3643847,1.201972 1.0796685,0.621971 1.8066355,1.788464 1.8066355,3.124782 H 9.8366062 c 0,-0.941718 -0.6017072,-1.742889 -1.4416022,-2.040065 l -6.49e-4,-2.286689 c 0,-0.398278 -0.322848,-0.721126 -0.7211257,-0.721126 -0.3698221,0 -0.6746202,0.278355 -0.7162725,0.637043 l -0.00485,0.08408 6.49e-5,2.286473 C 6.1118841,13.141164 5.5098524,13.942479 5.5098524,14.884486 H 4.0676011 c 0,-1.336318 0.7269379,-2.502811 1.8069317,-3.125647 -0.2304573,-0.342896 -0.3646804,-0.756317 -0.3646804,-1.201107 0,-1.194833 0.9685799,-2.1633771 2.1633769,-2.1633771 z M 19.21124,11.278857 v 1.442252 h -5.769005 v -1.442252 z m 0,-2.8845021 V 9.836606 H 13.442235 V 8.3943549 Z"
     fill="currentColor"
     id="path1"
     style="stroke-width:0.721126" />
</svg>
