<?xml version="1.0" encoding="UTF-8" standalone="no"?>
<svg
   width="800"
   height="800"
   viewBox="0 0 24 24"
   fill="none"
   version="1.1"
   id="svg3"
   xmlns="http://www.w3.org/2000/svg"
   xmlns:svg="http://www.w3.org/2000/svg">
  <defs
     id="defs3" />
  <path
     id="path1"
     style="fill:currentColor;stroke-width:0.861023;stroke-linecap:round;stroke-linejoin:round;-inkscape-stroke:none"
     d="m 6.184762,2.8961909 c -1.6586762,0 -2.9185917,0.2698851 -3.7619494,1.1132428 C 1.5794551,4.8527913 1.3095194,6.1127069 1.3095194,7.771383 v 8.457184 c 0,1.166866 0.2873366,2.378624 1.0745976,3.323029 0.787261,0.944405 2.0704442,1.552213 3.800645,1.552213 h 6.34835 c 1.653879,0 2.912594,-0.270576 3.756904,-1.113292 0.813306,-0.811772 1.094584,-2.014553 1.114353,-3.584667 l 1.77808,1.247139 c 0.80088,0.564613 1.696394,0.766091 2.426674,0.386754 0.730878,-0.379647 1.081358,-1.228267 1.081358,-2.211401 V 8.1733228 c 0,-0.983144 -0.350228,-1.8305447 -1.079643,-2.2114512 C 21.246146,5.771426 20.838772,5.72526 20.423534,5.7970999 c -0.41524,0.071859 -0.838438,0.261428 -1.23937,0.5414862 a 0.64583216,0.64583216 0 0 0 -0.0017,0 L 17.404217,7.5858257 C 17.383828,6.0204313 17.105985,4.8203668 16.295061,4.0094337 15.451713,3.1660757 14.191759,2.8961908 12.533112,2.8961909 Z m 0,1.2915352 h 6.34835 c 1.515595,0 2.371205,0.2572697 2.848793,0.7348632 0.477589,0.4775936 0.734863,1.3331669 0.734863,2.8487937 v 1.0452862 a 0.64583216,0.64583216 0 0 0 -0.0017,0.010797 v 6.3383098 a 0.64583216,0.64583216 0 0 0 0.0017,0.01064 v 1.052148 c 0,1.514918 -0.259118,2.370573 -0.738243,2.848793 -0.479123,0.47822 -1.335037,0.734914 -2.845413,0.734914 h -6.34835 c -1.4441021,0 -2.2747426,-0.447849 -2.8084331,-1.088068 C 2.8426383,18.083986 2.6010546,17.181192 2.6010546,16.228567 V 7.771383 c 0,-1.5156268 0.2573199,-2.3711997 0.7349138,-2.8487937 C 3.8135622,4.4449955 4.6691352,4.1877261 6.184762,4.1877261 Z M 20.739405,7.054026 c 0.117003,-0.00561 0.207281,0.017201 0.272786,0.051409 0.174681,0.09122 0.386755,0.3734773 0.386755,1.0678877 v 7.6550193 c 0,0.694397 -0.211873,0.976197 -0.38509,1.066173 -0.173216,0.08997 -0.523266,0.101017 -1.088067,-0.297659 a 0.64583216,0.64583216 0 0 0 -0.0017,-0.0017 L 17.408304,14.830581 V 9.1609942 L 19.922458,7.3980486 C 20.27514,7.1516945 20.544401,7.0633717 20.739405,7.054026 Z M 11.49721,7.3375079 c -1.181183,0 -2.1525757,0.9714016 -2.1525757,2.1525752 0,1.1811759 0.9714007,2.1525249 2.1525757,2.1525249 1.181174,0 2.152525,-0.971349 2.152525,-2.1525249 0,-1.1811736 -0.971342,-2.1525752 -2.152525,-2.1525752 z m 0,1.2915348 c 0.483172,0 0.86099,0.3778593 0.86099,0.8610404 0,0.483181 -0.377809,0.8609899 -0.86099,0.8609899 -0.483181,0 -0.86104,-0.3778089 -0.86104,-0.8609899 0,-0.4831811 0.377868,-0.8610404 0.86104,-0.8610404 z" />
</svg>
