<?xml version="1.0" encoding="UTF-8" standalone="no"?>
<svg
   width="800"
   height="800"
   viewBox="0 0 24 24"
   fill="none"
   version="1.1"
   id="svg5"
   sodipodi:docname="wallet-money.svg"
   inkscape:version="1.3.2 (091e20e, 2023-11-25, custom)"
   xmlns:inkscape="http://www.inkscape.org/namespaces/inkscape"
   xmlns:sodipodi="http://sodipodi.sourceforge.net/DTD/sodipodi-0.dtd"
   xmlns="http://www.w3.org/2000/svg"
   xmlns:svg="http://www.w3.org/2000/svg">
  <defs
     id="defs5" />
  <sodipodi:namedview
     id="namedview5"
     pagecolor="#505050"
     bordercolor="#eeeeee"
     borderopacity="1"
     inkscape:showpageshadow="0"
     inkscape:pageopacity="0"
     inkscape:pagecheckerboard="0"
     inkscape:deskcolor="#505050"
     inkscape:zoom="0.32129164"
     inkscape:cx="141.61588"
     inkscape:cy="-73.142269"
     inkscape:window-width="1920"
     inkscape:window-height="1051"
     inkscape:window-x="-9"
     inkscape:window-y="-9"
     inkscape:window-maximized="1"
     inkscape:current-layer="svg5" />
  <path
     id="path1"
     style="color:currentColor;fill:currentColor;stroke-width:1.0209;stroke-linecap:round;stroke-linejoin:round;-inkscape-stroke:none"
     d="m 6.6831383,1.3981732 c -0.3301585,0 -0.6533974,0.02415 -0.9670871,0.071782 C 2.6790745,1.8563691 0.59958823,4.2832839 0.59958823,7.4796895 V 9.6072572 A 0.76567789,0.76567789 0 0 0 1.3652661,10.372935 0.76567789,0.76567789 0 0 0 2.130944,9.6072572 V 7.4796895 c 0,-2.5847783 1.4039958,-4.193651 3.7844826,-4.4923757 a 0.76575446,0.76575446 0 0 0 0.021953,-0.00395 c 0.2356495,-0.036257 0.4844465,-0.053836 0.7457583,-0.053836 h 9.5709731 c 0.256966,0 0.48139,0.010107 0.671943,0.041873 a 0.76575446,0.76575446 0 0 0 0.0359,0.00598 c 2.410968,0.2803445 3.842327,1.8995952 3.842327,4.5023057 v 0.777643 h -1.44558 c -0.09922,0 -0.197717,0.005 -0.295085,0.014834 -0.09725,0.0098 -0.19337,0.02443 -0.288146,0.043664 -3.18e-4,6.43e-5 -6.39e-4,1.144e-4 -9.57e-4,1.787e-4 -0.09448,0.019213 -0.187586,0.043021 -0.278994,0.071249 -4.58e-4,1.419e-4 -9.18e-4,2.776e-4 -0.0013,4.195e-4 -0.182978,0.056609 -0.359164,0.1309636 -0.526105,0.2215678 -6.58e-4,3.573e-4 -0.0013,7.187e-4 -0.0019,0.00112 -0.08334,0.045318 -0.164394,0.094668 -0.242804,0.147931 -0.07875,0.053485 -0.154874,0.1108988 -0.228029,0.1720387 -0.07316,0.061142 -0.143326,0.1259805 -0.210262,0.1944097 -0.07472,0.073679 -0.145486,0.1514163 -0.211937,0.2327538 -0.06645,0.081335 -0.128597,0.1662715 -0.186095,0.2544685 -0.0575,0.088196 -0.110357,0.179654 -0.158221,0.273909 -0.04786,0.09425 -0.09071,0.1913268 -0.128251,0.2908378 -0.03755,0.09951 -0.06976,0.20147 -0.09631,0.305434 -0.02654,0.103964 -0.04741,0.209962 -0.06227,0.317577 -0.01487,0.107614 -0.02377,0.216804 -0.02626,0.327267 -0.0024,0.110463 0.0014,0.222175 0.01197,0.334685 0.0084,0.09787 0.0216,0.19392 0.03942,0.288026 2.8e-4,0.0014 5.57e-4,0.003 8.38e-4,0.0044 0.01781,0.09328 0.04014,0.184638 0.06676,0.27391 4.3e-4,0.0014 8.85e-4,0.0029 0.0013,0.0043 0.02674,0.08918 0.05773,0.176301 0.09272,0.261168 5.59e-4,0.0013 0.0011,0.0028 0.0016,0.0041 0.035,0.08451 0.07394,0.166766 0.116588,0.246692 0.001,0.0019 0.002,0.0039 0.0031,0.0058 0.0426,0.07941 0.08885,0.156445 0.138481,0.231019 0.0012,0.0019 0.0026,0.0038 0.0039,0.0057 0.05001,0.07476 0.103336,0.147078 0.159895,0.216664 8.41e-4,10e-4 0.0016,0.002 0.0026,0.0031 0.05664,0.06948 0.116456,0.136254 0.179098,0.200273 0.0017,0.0017 0.0035,0.0035 0.0052,0.0053 0.06282,0.06389 0.128457,0.125048 0.196744,0.183164 4.52e-4,3.84e-4 8.63e-4,8.12e-4 0.0013,0.0012 1.1e-5,1.1e-5 4.9e-5,-9e-6 6e-5,0 4.22e-4,3.6e-4 8.93e-4,6.59e-4 0.0013,10e-4 0.0688,0.05842 0.140181,0.113846 0.213972,0.166116 0.0012,8.54e-4 0.0024,0.0016 0.0037,0.0026 0.07388,0.05218 0.150122,0.101253 0.228447,0.146974 4.12e-4,2.41e-4 7.85e-4,5.38e-4 0.0012,7.78e-4 1.5e-5,8e-6 4.6e-5,-8e-6 6e-5,0 3.69e-4,2.16e-4 7.66e-4,3.83e-4 0.0011,5.98e-4 0.07909,0.04607 0.160231,0.08882 0.243282,0.128013 0.08238,0.03888 0.16664,0.07419 0.252375,0.105998 0.0021,8.09e-4 0.0044,0.0016 0.0065,0.0024 0.08558,0.03154 0.172678,0.05954 0.261048,0.08375 2.62e-4,7.2e-5 5.15e-4,1.67e-4 7.78e-4,2.4e-4 1.8e-5,5e-6 4.1e-5,-5e-6 5.9e-5,0 1.96e-4,5.3e-5 4.03e-4,6.5e-5 5.98e-4,1.19e-4 0.08957,0.02449 0.180416,0.04521 0.272295,0.06186 0.09208,0.01668 0.185162,0.02936 0.278993,0.03786 0.09383,0.0085 0.1884,0.0128 0.28342,0.0128 h 1.317983 v 0.775668 c 0,1.425003 -0.462409,2.538135 -1.238244,3.31395 -0.775835,0.775813 -1.886905,1.238244 -3.311916,1.238244 h -2.660127 a 0.76567789,0.76567789 0 0 0 -0.765678,0.765678 0.76567789,0.76567789 0 0 0 0.765678,0.765678 h 2.659952 c 1.765308,0 3.311449,-0.601697 4.396667,-1.686885 1.085219,-1.085188 1.684849,-2.63135 1.684849,-4.396665 V 13.96353 c 0.625564,-0.300686 1.064772,-0.936515 1.064772,-1.666426 V 10.10571 c 0,-0.7299339 -0.439167,-1.3648463 -1.064772,-1.6649298 V 7.4796895 c 0,-3.2226384 -2.117408,-5.6612579 -5.190219,-6.0216977 -0.308019,-0.048644 -0.605369,-0.059819 -0.891297,-0.059819 z m 0.1914195,7.9738177 c -0.5425858,0 -1.0678293,0.085981 -1.5571974,0.2444187 -0.6223877,0.1959466 -1.1869314,0.5105454 -1.6590685,0.9240164 -0.8233508,0.720522 -1.3678716,1.753267 -1.3678716,2.90521 0,0.09438 0.00463,0.187655 0.011964,0.28019 v 2.644939 2.159451 c 0,2.306952 2.1170308,4.071611 4.5721737,4.071611 2.4551345,0 4.562125,-1.767628 4.562125,-4.071611 v -2.159451 -2.925129 c 0,-1.15199 -0.538975,-2.191772 -1.365838,-2.915199 a 0.76575446,0.76575446 0 0 0 -0.006,-0.004 C 9.2312779,9.8083922 8.1078336,9.3719909 6.8745578,9.3719909 Z M 19.358637,9.7886872 h 6e-5 2.187327 c 0.198213,0.0087 0.32302,0.141688 0.32302,0.3170378 v 2.191394 c 0,0.176443 -0.126505,0.31183 -0.326968,0.319013 H 19.48629 c -0.09689,0 -0.192592,-0.0089 -0.285992,-0.0259 -0.0934,-0.01698 -0.184522,-0.04204 -0.272235,-0.07435 -0.08772,-0.03231 -0.172007,-0.07186 -0.251836,-0.117842 -0.07982,-0.04598 -0.155171,-0.09836 -0.224918,-0.156365 -0.06975,-0.058 -0.13389,-0.121621 -0.191359,-0.189984 -0.05739,-0.06827 -0.108087,-0.141329 -0.151042,-0.218279 -4.9e-5,-8.6e-5 -1.32e-4,-1.52e-4 -1.8e-4,-2.39e-4 -1.3e-5,-2.3e-5 -4.7e-5,-3.7e-5 -6e-5,-6e-5 -8.3e-5,-1.49e-4 -9.6e-5,-3.29e-4 -1.79e-4,-4.78e-4 -0.04288,-0.07693 -0.07805,-0.157724 -0.104324,-0.241667 -6e-6,-1.8e-5 6e-6,-4.2e-5 0,-6e-5 -0.01316,-0.04204 -0.02408,-0.08488 -0.03266,-0.128371 -4e-6,-1.9e-5 5e-6,-4.1e-5 0,-5.9e-5 -0.0086,-0.04352 -0.01481,-0.08767 -0.01854,-0.132439 a 0.76575446,0.76575446 0 0 0 -0.002,-0.01 c -0.0052,-0.05416 -0.0071,-0.107776 -0.006,-0.160673 0.0077,-0.370281 0.164541,-0.705734 0.416755,-0.951953 a 0.76575446,0.76575446 0 0 0 0.014,-0.014 c 0.06278,-0.06448 0.13092,-0.122 0.203981,-0.172038 0.07306,-0.05003 0.151048,-0.09258 0.233532,-0.1270548 0.08239,-0.03444 0.169263,-0.06081 0.260211,-0.0786 1.21e-4,-2.3e-5 2.38e-4,-3.5e-5 3.59e-4,-5.9e-5 3.8e-5,-8e-6 8.1e-5,7e-6 1.19e-4,0 0.091,-0.01777 0.186073,-0.02698 0.284796,-0.02698 z M 6.8526044,10.91525 v 6e-5 c 0.8723837,0 1.6424146,0.30872 2.1913342,0.781589 a 0.76575446,0.76575446 0 0 0 0.00801,0.008 c 0.292113,0.243463 0.5153739,0.531646 0.6604566,0.850561 0.01807,0.04056 0.035793,0.08123 0.051382,0.122688 0.00796,0.02074 0.015752,0.04149 0.023031,0.06245 0.02334,0.0682 0.04433,0.137213 0.06084,0.20751 0.01915,0.08094 0.03373,0.163333 0.04337,0.246991 5e-6,3.9e-5 -4e-6,8.1e-5 0,1.2e-4 0.0047,0.04113 0.0084,0.08257 0.01071,0.124303 3e-6,5.9e-5 -4e-6,1.19e-4 0,1.79e-4 0.0023,0.04171 0.0036,0.08365 0.0036,0.125919 0,0.388099 -0.106201,0.735475 -0.2950844,1.050832 -0.4606385,0.755147 -1.4824902,1.310027 -2.7476469,1.310027 -1.2608317,0 -2.2847386,-0.565342 -2.745673,-1.312001 C 3.963401,14.237628 3.8651852,13.959321 3.8337398,13.655419 v -0.209783 c 0,-0.755793 0.4035388,-1.459251 1.0632754,-1.933875 0.015639,-0.01114 0.0317,-0.02185 0.047616,-0.03272 0.04886,-0.03372 0.099437,-0.06578 0.1509223,-0.09697 0.041465,-0.02483 0.083707,-0.04888 0.1267555,-0.07196 0.015026,-0.0082 0.030481,-0.0158 0.045702,-0.02375 0.4552781,-0.23452 0.9939283,-0.371115 1.5845944,-0.371115 z m 3.0515254,5.477468 c -7.11e-4,0.07403 -0.0042,0.146772 -0.0119,0.21768 -7.87e-4,0.0071 -0.0018,0.01414 -0.0027,0.02124 -0.0078,0.06555 -0.01936,0.129421 -0.03302,0.192317 -0.0052,0.02376 -0.01108,0.04725 -0.01717,0.07065 -0.01117,0.04358 -0.02427,0.08627 -0.03828,0.12855 -0.0142,0.04227 -0.02973,0.08395 -0.046778,0.124961 -0.00837,0.02031 -0.017233,0.04037 -0.026258,0.06036 -0.1395962,0.305909 -0.3588198,0.576264 -0.6501677,0.81126 -0.1667671,0.134511 -0.357766,0.254497 -0.5686355,0.355861 -5.556e-4,2.65e-4 -0.00112,5.12e-4 -0.00167,7.78e-4 -0.073854,0.03544 -0.1505026,0.06823 -0.2290454,0.09894 -0.02379,0.0092 -0.047703,0.01831 -0.071902,0.02709 -0.056946,0.02083 -0.1150811,0.04022 -0.1741917,0.05845 -0.048671,0.01487 -0.097813,0.02913 -0.1478715,0.04217 -0.036699,0.0096 -0.073675,0.01884 -0.1110831,0.02745 -0.074184,0.01694 -0.1493115,0.03244 -0.2261143,0.04523 -0.016927,0.0029 -0.033858,0.0056 -0.050905,0.0083 -0.093339,0.01428 -0.1882118,0.02597 -0.2849159,0.03379 -0.00531,4.34e-4 -0.010596,9.02e-4 -0.015912,0.0013 -0.1053004,0.0081 -0.2123007,0.01251 -0.3210463,0.01251 -0.8881315,0 -1.6728457,-0.282757 -2.2093397,-0.713815 -0.5286225,-0.424732 -0.8213456,-0.962643 -0.8298632,-1.618212 0.8201586,0.604022 1.8855127,0.938254 3.0272391,0.938254 1.1455376,0 2.2181876,-0.3335 3.0415352,-0.945074 z M 4.4085964,19.67299 c 0.673833,0.357878 1.4565441,0.560803 2.286386,0.586461 0.059453,0.0022 0.1193153,0.0035 0.1795754,0.0035 0.059651,0 0.1189061,-0.0011 0.1777808,-0.0034 0.8273946,-0.02516 1.6080091,-0.225392 2.2801052,-0.580659 -0.4888271,0.777657 -1.2846485,1.39162 -2.457886,1.39162 -1.1753749,0 -1.9740088,-0.618016 -2.4659614,-1.397482 z" />
</svg>
