<?xml version="1.0" encoding="UTF-8" standalone="no"?>
<svg
   width="800"
   height="800"
   viewBox="0 0 24 24"
   fill="none"
   version="1.1"
   id="svg6"
   xmlns="http://www.w3.org/2000/svg"
   xmlns:svg="http://www.w3.org/2000/svg">
  <defs
     id="defs6" />
  <path
     id="path1"
     style="color:currentColor;fill:currentColor;stroke-linecap:round;stroke-linejoin:round;stroke-miterlimit:10;-inkscape-stroke:none"
     d="M 10.405286,0.83550798 C 9.897795,0.84976858 9.420187,0.95138368 8.9697388,1.154551 7.7835963,1.6895409 6.9750708,2.8385877 6.2665746,4.4592385 6.2343831,4.5179639 6.2109904,4.5705582 6.191516,4.6175588 3.2471023,5.3868294 1.08302,8.0678033 1.08302,11.238536 v 3.050742 h 0.011777 c -3e-7,6.7e-4 -5.87e-5,0.0013 -5.87e-5,0.002 v 2.031211 c 0,0.28144 0.024148,0.551139 0.056601,0.80666 0.1202885,1.77156 0.6700935,3.238437 1.7050782,4.273418 1.0379585,1.037954 2.510659,1.590833 4.2890624,1.709004 0.2514892,0.03149 0.5162292,0.05467 0.7930078,0.05467 h 8.1249613 c 2.046018,0 3.724486,-0.493954 4.914082,-1.564453 1.189595,-1.070498 1.811748,-2.663339 1.917949,-4.613262 a 0.750075,0.750075 0 0 0 0,-0.0039 c 0.0104,-0.208311 0.0215,-0.428846 0.0215,-0.662109 v -2.031211 c 0,-0.03189 -0.0034,-0.06292 -0.0039,-0.09469 v -2.960039 c 0,-2.5223693 -1.375874,-4.7554522 -3.432422,-5.9235946 C 19.431348,5.2096833 19.376154,5.113661 19.319329,5.0236721 19.222319,4.8492704 19.113346,4.6946072 18.998997,4.5568557 18.330748,3.7342912 17.323618,3.1418128 15.98927,2.5881057 l -0.0039,-0.00193 -2.298808,-0.9667969 a 0.750075,0.750075 0 0 0 -0.01172,-0.00586 C 13.563182,1.5688472 13.414535,1.4962361 13.212981,1.426133 a 0.750075,0.750075 0 0 0 -0.0089,-0.00404 C 12.38512,1.1087915 11.626418,0.90634658 10.922844,0.84986348 10.746951,0.83574268 10.574449,0.83075448 10.405286,0.83550798 Z m 0.07154,1.49748052 c 0.113667,-0.00231 0.232833,0.00192 0.358125,0.012949 0.292219,0.025715 0.702526,0.1739021 1.068339,0.2773242 L 9.389622,8.4572658 H 6.9150317 c -0.00461,0 -0.00901,6.351e-4 -0.013594,7.032e-4 -0.2401314,0.00113 -0.4761885,0.018336 -0.708457,0.048047 L 7.4306568,5.5490823 a 0.750075,0.750075 0 0 0 0.00287,-0.00914 0.750075,0.750075 0 0 0 0.00105,-0.00258 l 0.03709,-0.09375 0.068379,-0.1562695 a 0.750075,0.750075 0 0 0 0.023437,-0.06252 c 0.020863,-0.062568 0.035122,-0.078077 0.00586,-0.029297 a 0.750075,0.750075 0 0 0 0.044888,-0.087889 C 8.263917,3.6049216 8.9000808,2.8315003 9.586907,2.521719 9.844466,2.4055509 10.135827,2.3399225 10.476829,2.3329885 Z m 2.856152,0.7648828 2.074219,0.8730469 a 0.750075,0.750075 0 0 0 0.0039,0.00199 c 1.225645,0.5082142 2.009703,1.0195163 2.423847,1.5292969 a 0.750075,0.750075 0 0 0 0.0059,0.00779 c 0.08574,0.1028586 0.132014,0.1688287 0.175781,0.2500196 a 0.750075,0.750075 0 0 0 0.0293,0.050742 c 0.06641,0.1033634 0.09973,0.1762014 0.115254,0.234375 a 0.750075,0.750075 0 0 0 0.03902,0.1113282 c 0.0227,0.051034 0.04067,0.1078881 0.0508,0.1484765 a 0.750075,0.750075 0 0 0 0.01365,0.048809 c 0.156524,0.4868736 -0.03691,1.2911689 -0.307265,2.164336 -0.282216,-0.040214 -0.57087,-0.06082 -0.862676,-0.06082 h -6.068321 z m 6.382852,2.8125 0.01365,0.048867 c -0.0027,-0.012285 -0.0107,-0.024838 -0.01365,-0.037148 -0.0011,-0.00367 0.0011,-0.00805 0,-0.011719 z M 5.3731957,6.5768752 4.3305785,9.0671686 C 3.7442591,9.3608836 3.2154793,9.7507486 2.7619653,10.215255 3.0671574,8.6419821 4.0116828,7.3225782 5.3731957,6.5768752 Z M 19.823235,7.6955471 c 0.628689,0.6619081 1.039798,1.4342695 1.259297,2.3489069 -0.460255,-0.4354014 -0.990851,-0.7949574 -1.571719,-1.0630671 0.123056,-0.3742924 0.217385,-0.7364759 0.277383,-1.0872656 0.01384,-0.067079 0.02622,-0.1335365 0.03504,-0.1985742 z M 6.928684,9.9572656 h 2.955117 7.19918 c 0.03849,0 0.07625,0.0028 0.114551,0.0037 0.331835,0.0075 0.655841,0.05089 0.959004,0.1248044 0.05185,0.01319 0.104373,0.02529 0.154804,0.04066 a 0.750075,0.750075 0 0 0 0.0334,0.01641 c 0.266889,0.08006 0.522799,0.186166 0.765469,0.314648 0.02044,0.01093 0.04086,0.02186 0.06111,0.03311 0.06373,0.03508 0.126344,0.07195 0.188086,0.110156 0.05129,0.03195 0.102181,0.06449 0.152051,0.0985 0.0331,0.02246 0.06594,0.04525 0.09838,0.06861 0.06787,0.04907 0.134546,0.09968 0.199454,0.15252 0.01699,0.0138 0.03396,0.02761 0.05074,0.04166 0.07306,0.06131 0.144188,0.124899 0.213105,0.19084 0.01051,0.01006 0.02111,0.02001 0.03152,0.03017 0.06982,0.06815 0.1372,0.138813 0.202382,0.211524 0.01198,0.01338 0.02392,0.02678 0.03574,0.04031 0.05957,0.06812 0.116644,0.138439 0.171972,0.210235 0.01765,0.02296 0.03512,0.04605 0.05232,0.06937 0.04687,0.06339 0.09171,0.12837 0.135175,0.194355 0.02352,0.03582 0.04648,0.07202 0.06896,0.108575 0.03315,0.05372 0.06489,0.108394 0.09574,0.163652 0.02925,0.05257 0.05745,0.105773 0.08455,0.159668 0.02112,0.04183 0.04143,0.08413 0.06123,0.126738 0.03246,0.07015 0.06315,0.141273 0.09193,0.213399 0.01122,0.02799 0.02205,0.05615 0.0327,0.08443 0.03228,0.0861 0.06207,0.173417 0.08895,0.262031 0.0054,0.01757 0.01057,0.03519 0.0157,0.05285 0.0288,0.09954 0.05432,0.200505 0.07606,0.302871 0.0018,0.0083 0.0035,0.01663 0.0053,0.02496 0.02277,0.110442 0.04145,0.222338 0.05566,0.335684 2.52e-4,0.002 5.13e-4,0.004 7.62e-4,0.006 0.02192,0.176787 0.03328,0.356853 0.03328,0.53959 a 0.750075,0.750075 0 0 0 0.004,0.02326 v 2.01 c 0,0.183335 -0.0091,0.379583 -0.01957,0.587871 -0.09242,1.683036 -0.585513,2.821825 -1.423828,3.576211 -0.83905,0.755048 -2.101962,1.179668 -3.910137,1.179668 H 7.9384887 c -0.2081996,0 -0.42674,-0.01876 -0.6425977,-0.04687 a 0.750075,0.750075 0 0 0 -0.046875,-0.0039 C 5.7167742,21.51428 4.6484261,21.071478 3.9189574,20.342012 3.189489,19.612547 2.7466664,18.54419 2.645481,17.011954 a 0.750075,0.750075 0 0 0 -0.00586,-0.04687 c -0.028125,-0.215639 -0.044883,-0.434259 -0.044883,-0.642598 v -2.031211 c 0,-1.790322 1.0863511,-3.322606 2.6308594,-3.988301 C 5.764787,10.0796 6.3267924,9.9572706 6.9286832,9.9572706 Z m 2.468789,5.4570124 a 0.75,0.75 0 0 0 -0.7499998,0.75 0.75,0.75 0 0 0 0.7499998,0.75 h 5.208985 a 0.75,0.75 0 0 0 0.75,-0.75 0.75,0.75 0 0 0 -0.75,-0.75 z" />
</svg>
