<?xml version="1.0" encoding="UTF-8" standalone="no"?>
<svg
   width="800"
   height="800"
   viewBox="0 0 24 24"
   fill="none"
   version="1.1"
   id="svg1"
   xmlns="http://www.w3.org/2000/svg"
   xmlns:svg="http://www.w3.org/2000/svg">
  <defs
     id="defs1" />
  <path
     d="M 0.55333445,6.9365451 C 3.7910829,4.3135592 7.8331014,2.8850581 11.999989,2.891243 c 4.336783,0 8.319335,1.5150906 11.446677,4.0453021 L 22.175488,8.5113489 C 19.297344,6.1796183 15.704219,4.9097895 11.999989,4.9154122 c -3.8550081,0 -7.3942679,1.3460725 -10.1754764,3.5959367 z M 3.7322921,10.873554 C 6.0708147,8.9789319 8.9902736,7.9471678 11.999989,7.9516659 c 3.13139,0 6.007734,1.094064 8.267719,2.9208761 l -1.27219,1.574804 C 17.01678,10.844541 14.546506,9.9717869 11.999989,9.9758349 c -2.6496374,0 -5.0836787,0.9260581 -6.9955066,2.4715111 L 3.7322921,10.872542 Z m 3.1799697,3.937021 c 1.439027,-1.166046 3.2356122,-1.801072 5.0877272,-1.798486 1.927009,0 3.697145,0.673036 5.087749,1.797473 l -1.27219,1.574804 c -1.07922,-0.874216 -2.426641,-1.350244 -3.815559,-1.348097 -1.445257,0 -2.7731124,0.505031 -3.8155368,1.348097 L 6.9122618,14.809562 Z m 3.1799482,3.937009 c 0.539553,-0.437513 1.213152,-0.675893 1.907779,-0.675061 0.722629,0 1.386556,0.253021 1.90778,0.674049 l -1.90778,2.362205 -1.907779,-2.362205 z"
     fill="currentColor"
     id="path1"
     style="stroke-width:1.12454" />
</svg>
